<svg xmlns="http://www.w3.org/2000/svg" xmlns:xlink="http://www.w3.org/1999/xlink" version="1.1" class="marks" width="919" height="447" viewBox="0 0 919 447"><rect width="919" height="447" fill="#f6f7fb"/><g fill="none" stroke-miterlimit="10" transform="translate(56,157)"><g class="mark-group role-frame root" role="graphics-object" aria-roledescription="group mark container"><g transform="translate(0,0)"><path class="background" aria-hidden="true" d="M0,0h0v0h0Z"/><g><g class="mark-group role-row-header row_header" role="graphics-object" aria-roledescription="group mark container"><g transform="translate(-1,0)"><path class="background" aria-hidden="true" d="M0,0h0v245h0Z"/><g><g class="mark-group role-axis" role="graphics-symbol" aria-roledescription="axis" aria-label="Y-axis titled 'Top-10 Jaccard versus native' for a linear scale with values from 0.0 to 1.0"><g transform="translate(0.5,0.5)"><path class="background" aria-hidden="true" d="M0,0h0v0h0Z" pointer-events="none"/><g><g class="mark-rule role-axis-tick" pointer-events="none"><line transform="translate(0,245)" x2="-5" y2="0" stroke="#c7d2e0" stroke-width="1" opacity="1"/><line transform="translate(0,196)" x2="-5" y2="0" stroke="#c7d2e0" stroke-width="1" opacity="1"/><line transform="translate(0,147)" x2="-5" y2="0" stroke="#c7d2e0" stroke-width="1" opacity="1"/><line transform="translate(0,98)" x2="-5" y2="0" stroke="#c7d2e0" stroke-width="1" opacity="1"/><line transform="translate(0,49)" x2="-5" y2="0" stroke="#c7d2e0" stroke-width="1" opacity="1"/><line transform="translate(0,0)" x2="-5" y2="0" stroke="#c7d2e0" stroke-width="1" opacity="1"/></g><g class="mark-text role-axis-label" pointer-events="none"><text text-anchor="end" transform="translate(-7,249)" font-family="Mona Sans, DejaVu Sans, Arial, sans-serif" font-size="12px" fill="#475569" opacity="1">0.0</text><text text-anchor="end" transform="translate(-7,200)" font-family="Mona Sans, DejaVu Sans, Arial, sans-serif" font-size="12px" fill="#475569" opacity="1">0.2</text><text text-anchor="end" transform="translate(-7,151)" font-family="Mona Sans, DejaVu Sans, Arial, sans-serif" font-size="12px" fill="#475569" opacity="1">0.4</text><text text-anchor="end" transform="translate(-7,102)" font-family="Mona Sans, DejaVu Sans, Arial, sans-serif" font-size="12px" fill="#475569" opacity="1">0.6</text><text text-anchor="end" transform="translate(-7,52.999999999999986)" font-family="Mona Sans, DejaVu Sans, Arial, sans-serif" font-size="12px" fill="#475569" opacity="1">0.8</text><text text-anchor="end" transform="translate(-7,4)" font-family="Mona Sans, DejaVu Sans, Arial, sans-serif" font-size="12px" fill="#475569" opacity="1">1.0</text></g><g class="mark-rule role-axis-domain" pointer-events="none"><line transform="translate(0,245)" x2="0" y2="-245" stroke="#c7d2e0" stroke-width="1" opacity="1"/></g><g class="mark-text role-axis-title" pointer-events="none"><text text-anchor="middle" transform="translate(-36.083984375,122.5) rotate(-90) translate(0,-3)" font-family="Mona Sans, DejaVu Sans, Arial, sans-serif" font-size="12px" font-weight="bold" fill="#475569" opacity="1">Top-10 Jaccard versus native</text></g></g><path class="foreground" aria-hidden="true" d="" pointer-events="none" display="none"/></g></g></g><path class="foreground" aria-hidden="true" d="" display="none"/></g></g><g class="mark-group role-column-header column_header" role="graphics-object" aria-roledescription="group mark container"><g transform="translate(0,-9)"><path class="background" aria-hidden="true" d="M0,0h400v0h-400Z"/><g><g class="mark-group role-title"><g transform="translate(200,-21)"><path class="background" aria-hidden="true" d="M0,0h0v0h0Z" pointer-events="none"/><g><g class="mark-text role-title-text" role="graphics-symbol" aria-roledescription="title" aria-label="Title text 'Api Gateway'" pointer-events="none"><text text-anchor="middle" transform="translate(0,10)" font-family="Mona Sans, DejaVu Sans, Arial, sans-serif" font-size="13px" fill="#475569" opacity="1">Api Gateway</text></g></g><path class="foreground" aria-hidden="true" d="" pointer-events="none" display="none"/></g></g></g><path class="foreground" aria-hidden="true" d="" display="none"/></g><g transform="translate(457,-9)"><path class="background" aria-hidden="true" d="M0,0h400v0h-400Z"/><g><g class="mark-group role-title"><g transform="translate(200,-21)"><path class="background" aria-hidden="true" d="M0,0h0v0h0Z" pointer-events="none"/><g><g class="mark-text role-title-text" role="graphics-symbol" aria-roledescription="title" aria-label="Title text 'Terminal Ui'" pointer-events="none"><text text-anchor="middle" transform="translate(0,10)" font-family="Mona Sans, DejaVu Sans, Arial, sans-serif" font-size="13px" fill="#475569" opacity="1">Terminal Ui</text></g></g><path class="foreground" aria-hidden="true" d="" pointer-events="none" display="none"/></g></g></g><path class="foreground" aria-hidden="true" d="" display="none"/></g></g><g class="mark-group role-column-footer column_footer" role="graphics-object" aria-roledescription="group mark container"><g transform="translate(0,246)"><path class="background" aria-hidden="true" d="M0,0h400v0h-400Z"/><g><g class="mark-group role-axis" role="graphics-symbol" aria-roledescription="axis" aria-label="X-axis titled 'Wall time (seconds)' for a linear scale with values from 0 to 35"><g transform="translate(0.5,0.5)"><path class="background" aria-hidden="true" d="M0,0h0v0h0Z" pointer-events="none"/><g><g class="mark-rule role-axis-tick" pointer-events="none"><line transform="translate(0,0)" x2="0" y2="5" stroke="#c7d2e0" stroke-width="1" opacity="1"/><line transform="translate(57,0)" x2="0" y2="5" stroke="#c7d2e0" stroke-width="1" opacity="1"/><line transform="translate(114,0)" x2="0" y2="5" stroke="#c7d2e0" stroke-width="1" opacity="1"/><line transform="translate(171,0)" x2="0" y2="5" stroke="#c7d2e0" stroke-width="1" opacity="1"/><line transform="translate(229,0)" x2="0" y2="5" stroke="#c7d2e0" stroke-width="1" opacity="1"/><line transform="translate(286,0)" x2="0" y2="5" stroke="#c7d2e0" stroke-width="1" opacity="1"/><line transform="translate(343,0)" x2="0" y2="5" stroke="#c7d2e0" stroke-width="1" opacity="1"/><line transform="translate(400,0)" x2="0" y2="5" stroke="#c7d2e0" stroke-width="1" opacity="1"/></g><g class="mark-text role-axis-label" pointer-events="none"><text text-anchor="start" transform="translate(0,16)" font-family="Mona Sans, DejaVu Sans, Arial, sans-serif" font-size="12px" fill="#475569" opacity="1">0</text><text text-anchor="middle" transform="translate(57.14285714285714,16)" font-family="Mona Sans, DejaVu Sans, Arial, sans-serif" font-size="12px" fill="#475569" opacity="1">5</text><text text-anchor="middle" transform="translate(114.28571428571428,16)" font-family="Mona Sans, DejaVu Sans, Arial, sans-serif" font-size="12px" fill="#475569" opacity="1">10</text><text text-anchor="middle" transform="translate(171.42857142857142,16)" font-family="Mona Sans, DejaVu Sans, Arial, sans-serif" font-size="12px" fill="#475569" opacity="1">15</text><text text-anchor="middle" transform="translate(228.57142857142856,16)" font-family="Mona Sans, DejaVu Sans, Arial, sans-serif" font-size="12px" fill="#475569" opacity="1">20</text><text text-anchor="middle" transform="translate(285.7142857142857,16)" font-family="Mona Sans, DejaVu Sans, Arial, sans-serif" font-size="12px" fill="#475569" opacity="1">25</text><text text-anchor="middle" transform="translate(342.85714285714283,16)" font-family="Mona Sans, DejaVu Sans, Arial, sans-serif" font-size="12px" fill="#475569" opacity="1">30</text><text text-anchor="end" transform="translate(400,16)" font-family="Mona Sans, DejaVu Sans, Arial, sans-serif" font-size="12px" fill="#475569" opacity="1">35</text></g><g class="mark-rule role-axis-domain" pointer-events="none"><line transform="translate(0,0)" x2="400" y2="0" stroke="#c7d2e0" stroke-width="1" opacity="1"/></g><g class="mark-text role-axis-title" pointer-events="none"><text text-anchor="middle" transform="translate(200,37)" font-family="Mona Sans, DejaVu Sans, Arial, sans-serif" font-size="12px" font-weight="bold" fill="#475569" opacity="1">Wall time (seconds)</text></g></g><path class="foreground" aria-hidden="true" d="" pointer-events="none" display="none"/></g></g></g><path class="foreground" aria-hidden="true" d="" display="none"/></g><g transform="translate(457,246)"><path class="background" aria-hidden="true" d="M0,0h400v0h-400Z"/><g><g class="mark-group role-axis" role="graphics-symbol" aria-roledescription="axis" aria-label="X-axis titled 'Wall time (seconds)' for a linear scale with values from 0 to 35"><g transform="translate(0.5,0.5)"><path class="background" aria-hidden="true" d="M0,0h0v0h0Z" pointer-events="none"/><g><g class="mark-rule role-axis-tick" pointer-events="none"><line transform="translate(0,0)" x2="0" y2="5" stroke="#c7d2e0" stroke-width="1" opacity="1"/><line transform="translate(57,0)" x2="0" y2="5" stroke="#c7d2e0" stroke-width="1" opacity="1"/><line transform="translate(114,0)" x2="0" y2="5" stroke="#c7d2e0" stroke-width="1" opacity="1"/><line transform="translate(171,0)" x2="0" y2="5" stroke="#c7d2e0" stroke-width="1" opacity="1"/><line transform="translate(229,0)" x2="0" y2="5" stroke="#c7d2e0" stroke-width="1" opacity="1"/><line transform="translate(286,0)" x2="0" y2="5" stroke="#c7d2e0" stroke-width="1" opacity="1"/><line transform="translate(343,0)" x2="0" y2="5" stroke="#c7d2e0" stroke-width="1" opacity="1"/><line transform="translate(400,0)" x2="0" y2="5" stroke="#c7d2e0" stroke-width="1" opacity="1"/></g><g class="mark-text role-axis-label" pointer-events="none"><text text-anchor="start" transform="translate(0,16)" font-family="Mona Sans, DejaVu Sans, Arial, sans-serif" font-size="12px" fill="#475569" opacity="1">0</text><text text-anchor="middle" transform="translate(57.14285714285714,16)" font-family="Mona Sans, DejaVu Sans, Arial, sans-serif" font-size="12px" fill="#475569" opacity="1">5</text><text text-anchor="middle" transform="translate(114.28571428571428,16)" font-family="Mona Sans, DejaVu Sans, Arial, sans-serif" font-size="12px" fill="#475569" opacity="1">10</text><text text-anchor="middle" transform="translate(171.42857142857142,16)" font-family="Mona Sans, DejaVu Sans, Arial, sans-serif" font-size="12px" fill="#475569" opacity="1">15</text><text text-anchor="middle" transform="translate(228.57142857142856,16)" font-family="Mona Sans, DejaVu Sans, Arial, sans-serif" font-size="12px" fill="#475569" opacity="1">20</text><text text-anchor="middle" transform="translate(285.7142857142857,16)" font-family="Mona Sans, DejaVu Sans, Arial, sans-serif" font-size="12px" fill="#475569" opacity="1">25</text><text text-anchor="middle" transform="translate(342.85714285714283,16)" font-family="Mona Sans, DejaVu Sans, Arial, sans-serif" font-size="12px" fill="#475569" opacity="1">30</text><text text-anchor="end" transform="translate(400,16)" font-family="Mona Sans, DejaVu Sans, Arial, sans-serif" font-size="12px" fill="#475569" opacity="1">35</text></g><g class="mark-rule role-axis-domain" pointer-events="none"><line transform="translate(0,0)" x2="400" y2="0" stroke="#c7d2e0" stroke-width="1" opacity="1"/></g><g class="mark-text role-axis-title" pointer-events="none"><text text-anchor="middle" transform="translate(200,37)" font-family="Mona Sans, DejaVu Sans, Arial, sans-serif" font-size="12px" font-weight="bold" fill="#475569" opacity="1">Wall time (seconds)</text></g></g><path class="foreground" aria-hidden="true" d="" pointer-events="none" display="none"/></g></g></g><path class="foreground" aria-hidden="true" d="" display="none"/></g></g><g class="mark-group role-scope cell" role="graphics-object" aria-roledescription="group mark container"><g transform="translate(0,0)"><path class="background" aria-hidden="true" d="M0.5,0.5h400v245h-400Z" stroke="#ddd"/><g><g class="mark-group role-axis" aria-hidden="true"><g transform="translate(0.5,245.5)"><path class="background" aria-hidden="true" d="M0,0h0v0h0Z" pointer-events="none"/><g><g class="mark-rule role-axis-grid" pointer-events="none"><line transform="translate(0,-245)" x2="0" y2="245" stroke="#d7dee8" stroke-opacity="0.75" stroke-width="1" opacity="1"/><line transform="translate(57,-245)" x2="0" y2="245" stroke="#d7dee8" stroke-opacity="0.75" stroke-width="1" opacity="1"/><line transform="translate(114,-245)" x2="0" y2="245" stroke="#d7dee8" stroke-opacity="0.75" stroke-width="1" opacity="1"/><line transform="translate(171,-245)" x2="0" y2="245" stroke="#d7dee8" stroke-opacity="0.75" stroke-width="1" opacity="1"/><line transform="translate(229,-245)" x2="0" y2="245" stroke="#d7dee8" stroke-opacity="0.75" stroke-width="1" opacity="1"/><line transform="translate(286,-245)" x2="0" y2="245" stroke="#d7dee8" stroke-opacity="0.75" stroke-width="1" opacity="1"/><line transform="translate(343,-245)" x2="0" y2="245" stroke="#d7dee8" stroke-opacity="0.75" stroke-width="1" opacity="1"/><line transform="translate(400,-245)" x2="0" y2="245" stroke="#d7dee8" stroke-opacity="0.75" stroke-width="1" opacity="1"/></g></g><path class="foreground" aria-hidden="true" d="" pointer-events="none" display="none"/></g></g><g class="mark-group role-axis" aria-hidden="true"><g transform="translate(0.5,0.5)"><path class="background" aria-hidden="true" d="M0,0h0v0h0Z" pointer-events="none"/><g><g class="mark-rule role-axis-grid" pointer-events="none"><line transform="translate(0,245)" x2="400" y2="0" stroke="#d7dee8" stroke-opacity="0.75" stroke-width="1" opacity="1"/><line transform="translate(0,196)" x2="400" y2="0" stroke="#d7dee8" stroke-opacity="0.75" stroke-width="1" opacity="1"/><line transform="translate(0,147)" x2="400" y2="0" stroke="#d7dee8" stroke-opacity="0.75" stroke-width="1" opacity="1"/><line transform="translate(0,98)" x2="400" y2="0" stroke="#d7dee8" stroke-opacity="0.75" stroke-width="1" opacity="1"/><line transform="translate(0,49)" x2="400" y2="0" stroke="#d7dee8" stroke-opacity="0.75" stroke-width="1" opacity="1"/><line transform="translate(0,0)" x2="400" y2="0" stroke="#d7dee8" stroke-opacity="0.75" stroke-width="1" opacity="1"/></g></g><path class="foreground" aria-hidden="true" d="" pointer-events="none" display="none"/></g></g><g class="mark-symbol role-mark child_layer_0_marks" role="graphics-object" aria-roledescription="symbol mark container"><path aria-label="Wall time (seconds): 31.181; Top-10 Jaccard versus native: 1; frontier_label: Frontier; Novel repos: 0; Query: Api Gateway; Scenario: Balanced native; Duration (s): 31.18; Jaccard: 1.0000; Status: Frontier" role="graphics-symbol" aria-roledescription="circle" transform="translate(356.3542857142857,0)" d="M5.701,0A5.701,5.701,0,1,1,-5.701,0A5.701,5.701,0,1,1,5.701,0" fill="#0f766e" stroke="#ffffff" stroke-width="1.4" opacity="0.96"/><path aria-label="Wall time (seconds): 30.083; Top-10 Jaccard versus native: 0.25; frontier_label: Off frontier; Novel repos: 6; Query: Api Gateway; Scenario: Balanced query; Duration (s): 30.08; Jaccard: 0.2500; Status: Off frontier" role="graphics-symbol" aria-roledescription="circle" transform="translate(343.80571428571426,183.75)" d="M17.321,0A17.321,17.321,0,1,1,-17.321,0A17.321,17.321,0,1,1,17.321,0" fill="#cbd5e1" stroke="#ffffff" stroke-width="1.4" opacity="0.42"/><path aria-label="Wall time (seconds): 30.279; Top-10 Jaccard versus native: 0.3333; frontier_label: Frontier; Novel repos: 5; Query: Api Gateway; Scenario: Balanced activity; Duration (s): 30.28; Jaccard: 0.3333; Status: Frontier" role="graphics-symbol" aria-roledescription="circle" transform="translate(346.04571428571427,163.34150000000002)" d="M15.982,0A15.982,15.982,0,1,1,-15.982,0A15.982,15.982,0,1,1,15.982,0" fill="#0f766e" stroke="#ffffff" stroke-width="1.4" opacity="0.96"/><path aria-label="Wall time (seconds): 30.217; Top-10 Jaccard versus native: 0.4286; frontier_label: Frontier; Novel repos: 4; Query: Api Gateway; Scenario: Balanced quality; Duration (s): 30.22; Jaccard: 0.4286; Status: Frontier" role="graphics-symbol" aria-roledescription="circle" transform="translate(345.33714285714285,139.993)" d="M14.52,0A14.52,14.52,0,1,1,-14.52,0A14.52,14.52,0,1,1,14.52,0" fill="#0f766e" stroke="#ffffff" stroke-width="1.4" opacity="0.96"/><path aria-label="Wall time (seconds): 29.608; Top-10 Jaccard versus native: 0.25; frontier_label: Frontier; Novel repos: 6; Query: Api Gateway; Scenario: Balanced blended; Duration (s): 29.61; Jaccard: 0.2500; Status: Frontier" role="graphics-symbol" aria-roledescription="circle" transform="translate(338.37714285714287,183.75)" d="M17.321,0A17.321,17.321,0,1,1,-17.321,0A17.321,17.321,0,1,1,17.321,0" fill="#0f766e" stroke="#ffffff" stroke-width="1.4" opacity="0.96"/><path aria-label="Wall time (seconds): 30.039; Top-10 Jaccard versus native: 0.25; frontier_label: Off frontier; Novel repos: 6; Query: Api Gateway; Scenario: Query-heavy blend; Duration (s): 30.04; Jaccard: 0.2500; Status: Off frontier" role="graphics-symbol" aria-roledescription="circle" transform="translate(343.3028571428572,183.75)" d="M17.321,0A17.321,17.321,0,1,1,-17.321,0A17.321,17.321,0,1,1,17.321,0" fill="#cbd5e1" stroke="#ffffff" stroke-width="1.4" opacity="0.42"/><path aria-label="Wall time (seconds): 30.461; Top-10 Jaccard versus native: 0.3333; frontier_label: Off frontier; Novel repos: 5; Query: Api Gateway; Scenario: Activity-heavy blend; Duration (s): 30.46; Jaccard: 0.3333; Status: Off frontier" role="graphics-symbol" aria-roledescription="circle" transform="translate(348.1257142857143,163.34150000000002)" d="M15.982,0A15.982,15.982,0,1,1,-15.982,0A15.982,15.982,0,1,1,15.982,0" fill="#cbd5e1" stroke="#ffffff" stroke-width="1.4" opacity="0.42"/><path aria-label="Wall time (seconds): 30.403; Top-10 Jaccard versus native: 0.6667; frontier_label: Frontier; Novel repos: 2; Query: Api Gateway; Scenario: Quality-heavy blend; Duration (s): 30.40; Jaccard: 0.6667; Status: Frontier" role="graphics-symbol" aria-roledescription="circle" transform="translate(347.4628571428571,81.6585)" d="M11.03,0A11.03,11.03,0,1,1,-11.03,0A11.03,11.03,0,1,1,11.03,0" fill="#0f766e" stroke="#ffffff" stroke-width="1.4" opacity="0.96"/></g><g class="mark-text role-mark child_layer_1_marks" role="graphics-object" aria-roledescription="text mark container"><text aria-label="duration_s: 31.181; top_k_jaccard: 1; label_text: Native" role="graphics-symbol" aria-roledescription="text mark" text-anchor="start" transform="translate(366.3542857142857,3)" font-family="Mona Sans, DejaVu Sans, Arial, sans-serif" font-size="11px" fill="#0f172a">Native</text><text aria-label="duration_s: 30.083; top_k_jaccard: 0.25; label_text: " role="graphics-symbol" aria-roledescription="text mark" text-anchor="start" transform="translate(353.80571428571426,186.75)" font-family="Mona Sans, DejaVu Sans, Arial, sans-serif" font-size="11px" fill="#0f172a"/><text aria-label="duration_s: 30.279; top_k_jaccard: 0.3333; label_text: Activity" role="graphics-symbol" aria-roledescription="text mark" text-anchor="start" transform="translate(356.04571428571427,166.34150000000002)" font-family="Mona Sans, DejaVu Sans, Arial, sans-serif" font-size="11px" fill="#0f172a">Activity</text><text aria-label="duration_s: 30.217; top_k_jaccard: 0.4286; label_text: Quality" role="graphics-symbol" aria-roledescription="text mark" text-anchor="start" transform="translate(355.33714285714285,142.993)" font-family="Mona Sans, DejaVu Sans, Arial, sans-serif" font-size="11px" fill="#0f172a">Quality</text><text aria-label="duration_s: 29.608; top_k_jaccard: 0.25; label_text: Blended" role="graphics-symbol" aria-roledescription="text mark" text-anchor="start" transform="translate(348.37714285714287,186.75)" font-family="Mona Sans, DejaVu Sans, Arial, sans-serif" font-size="11px" fill="#0f172a">Blended</text><text aria-label="duration_s: 30.039; top_k_jaccard: 0.25; label_text: " role="graphics-symbol" aria-roledescription="text mark" text-anchor="start" transform="translate(353.3028571428572,186.75)" font-family="Mona Sans, DejaVu Sans, Arial, sans-serif" font-size="11px" fill="#0f172a"/><text aria-label="duration_s: 30.461; top_k_jaccard: 0.3333; label_text: " role="graphics-symbol" aria-roledescription="text mark" text-anchor="start" transform="translate(358.1257142857143,166.34150000000002)" font-family="Mona Sans, DejaVu Sans, Arial, sans-serif" font-size="11px" fill="#0f172a"/><text aria-label="duration_s: 30.403; top_k_jaccard: 0.6667; label_text: Quality-heavy" role="graphics-symbol" aria-roledescription="text mark" text-anchor="start" transform="translate(357.4628571428571,84.6585)" font-family="Mona Sans, DejaVu Sans, Arial, sans-serif" font-size="11px" fill="#0f172a">Quality-heavy</text></g></g><path class="foreground" aria-hidden="true" d="" display="none"/></g><g transform="translate(457,0)"><path class="background" aria-hidden="true" d="M0.5,0.5h400v245h-400Z" stroke="#ddd"/><g><g class="mark-group role-axis" aria-hidden="true"><g transform="translate(0.5,245.5)"><path class="background" aria-hidden="true" d="M0,0h0v0h0Z" pointer-events="none"/><g><g class="mark-rule role-axis-grid" pointer-events="none"><line transform="translate(0,-245)" x2="0" y2="245" stroke="#d7dee8" stroke-opacity="0.75" stroke-width="1" opacity="1"/><line transform="translate(57,-245)" x2="0" y2="245" stroke="#d7dee8" stroke-opacity="0.75" stroke-width="1" opacity="1"/><line transform="translate(114,-245)" x2="0" y2="245" stroke="#d7dee8" stroke-opacity="0.75" stroke-width="1" opacity="1"/><line transform="translate(171,-245)" x2="0" y2="245" stroke="#d7dee8" stroke-opacity="0.75" stroke-width="1" opacity="1"/><line transform="translate(229,-245)" x2="0" y2="245" stroke="#d7dee8" stroke-opacity="0.75" stroke-width="1" opacity="1"/><line transform="translate(286,-245)" x2="0" y2="245" stroke="#d7dee8" stroke-opacity="0.75" stroke-width="1" opacity="1"/><line transform="translate(343,-245)" x2="0" y2="245" stroke="#d7dee8" stroke-opacity="0.75" stroke-width="1" opacity="1"/><line transform="translate(400,-245)" x2="0" y2="245" stroke="#d7dee8" stroke-opacity="0.75" stroke-width="1" opacity="1"/></g></g><path class="foreground" aria-hidden="true" d="" pointer-events="none" display="none"/></g></g><g class="mark-group role-axis" aria-hidden="true"><g transform="translate(0.5,0.5)"><path class="background" aria-hidden="true" d="M0,0h0v0h0Z" pointer-events="none"/><g><g class="mark-rule role-axis-grid" pointer-events="none"><line transform="translate(0,245)" x2="400" y2="0" stroke="#d7dee8" stroke-opacity="0.75" stroke-width="1" opacity="1"/><line transform="translate(0,196)" x2="400" y2="0" stroke="#d7dee8" stroke-opacity="0.75" stroke-width="1" opacity="1"/><line transform="translate(0,147)" x2="400" y2="0" stroke="#d7dee8" stroke-opacity="0.75" stroke-width="1" opacity="1"/><line transform="translate(0,98)" x2="400" y2="0" stroke="#d7dee8" stroke-opacity="0.75" stroke-width="1" opacity="1"/><line transform="translate(0,49)" x2="400" y2="0" stroke="#d7dee8" stroke-opacity="0.75" stroke-width="1" opacity="1"/><line transform="translate(0,0)" x2="400" y2="0" stroke="#d7dee8" stroke-opacity="0.75" stroke-width="1" opacity="1"/></g></g><path class="foreground" aria-hidden="true" d="" pointer-events="none" display="none"/></g></g><g class="mark-symbol role-mark child_layer_0_marks" role="graphics-object" aria-roledescription="symbol mark container"><path aria-label="Wall time (seconds): 27.342; Top-10 Jaccard versus native: 1; frontier_label: Frontier; Novel repos: 0; Query: Terminal Ui; Scenario: Balanced native; Duration (s): 27.34; Jaccard: 1.0000; Status: Frontier" role="graphics-symbol" aria-roledescription="circle" transform="translate(312.48,0)" d="M5.701,0A5.701,5.701,0,1,1,-5.701,0A5.701,5.701,0,1,1,5.701,0" fill="#0f766e" stroke="#ffffff" stroke-width="1.4" opacity="0.96"/><path aria-label="Wall time (seconds): 26.685; Top-10 Jaccard versus native: 0.25; frontier_label: Off frontier; Novel repos: 6; Query: Terminal Ui; Scenario: Balanced query; Duration (s): 26.68; Jaccard: 0.2500; Status: Off frontier" role="graphics-symbol" aria-roledescription="circle" transform="translate(304.97142857142853,183.75)" d="M17.321,0A17.321,17.321,0,1,1,-17.321,0A17.321,17.321,0,1,1,17.321,0" fill="#cbd5e1" stroke="#ffffff" stroke-width="1.4" opacity="0.42"/><path aria-label="Wall time (seconds): 27.567; Top-10 Jaccard versus native: 0.25; frontier_label: Off frontier; Novel repos: 6; Query: Terminal Ui; Scenario: Balanced activity; Duration (s): 27.57; Jaccard: 0.2500; Status: Off frontier" role="graphics-symbol" aria-roledescription="circle" transform="translate(315.0514285714286,183.75)" d="M17.321,0A17.321,17.321,0,1,1,-17.321,0A17.321,17.321,0,1,1,17.321,0" fill="#cbd5e1" stroke="#ffffff" stroke-width="1.4" opacity="0.42"/><path aria-label="Wall time (seconds): 26.374; Top-10 Jaccard versus native: 0.4286; frontier_label: Frontier; Novel repos: 4; Query: Terminal Ui; Scenario: Balanced quality; Duration (s): 26.37; Jaccard: 0.4286; Status: Frontier" role="graphics-symbol" aria-roledescription="circle" transform="translate(301.41714285714284,139.993)" d="M14.52,0A14.52,14.52,0,1,1,-14.52,0A14.52,14.52,0,1,1,14.52,0" fill="#0f766e" stroke="#ffffff" stroke-width="1.4" opacity="0.96"/><path aria-label="Wall time (seconds): 25.844; Top-10 Jaccard versus native: 0.3333; frontier_label: Frontier; Novel repos: 5; Query: Terminal Ui; Scenario: Balanced blended; Duration (s): 25.84; Jaccard: 0.3333; Status: Frontier" role="graphics-symbol" aria-roledescription="circle" transform="translate(295.36,163.34150000000002)" d="M15.982,0A15.982,15.982,0,1,1,-15.982,0A15.982,15.982,0,1,1,15.982,0" fill="#0f766e" stroke="#ffffff" stroke-width="1.4" opacity="0.96"/><path aria-label="Wall time (seconds): 26.542; Top-10 Jaccard versus native: 0.25; frontier_label: Frontier; Novel repos: 6; Query: Terminal Ui; Scenario: Query-heavy blend; Duration (s): 26.54; Jaccard: 0.2500; Status: Frontier" role="graphics-symbol" aria-roledescription="circle" transform="translate(303.3371428571429,183.75)" d="M17.321,0A17.321,17.321,0,1,1,-17.321,0A17.321,17.321,0,1,1,17.321,0" fill="#0f766e" stroke="#ffffff" stroke-width="1.4" opacity="0.96"/><path aria-label="Wall time (seconds): 26.362; Top-10 Jaccard versus native: 0.3333; frontier_label: Off frontier; Novel repos: 5; Query: Terminal Ui; Scenario: Activity-heavy blend; Duration (s): 26.36; Jaccard: 0.3333; Status: Off frontier" role="graphics-symbol" aria-roledescription="circle" transform="translate(301.28,163.34150000000002)" d="M15.982,0A15.982,15.982,0,1,1,-15.982,0A15.982,15.982,0,1,1,15.982,0" fill="#cbd5e1" stroke="#ffffff" stroke-width="1.4" opacity="0.42"/><path aria-label="Wall time (seconds): 28.437; Top-10 Jaccard versus native: 0.4286; frontier_label: Off frontier; Novel repos: 4; Query: Terminal Ui; Scenario: Quality-heavy blend; Duration (s): 28.44; Jaccard: 0.4286; Status: Off frontier" role="graphics-symbol" aria-roledescription="circle" transform="translate(324.99428571428575,139.993)" d="M14.52,0A14.52,14.52,0,1,1,-14.52,0A14.52,14.52,0,1,1,14.52,0" fill="#cbd5e1" stroke="#ffffff" stroke-width="1.4" opacity="0.42"/></g><g class="mark-text role-mark child_layer_1_marks" role="graphics-object" aria-roledescription="text mark container"><text aria-label="duration_s: 27.342; top_k_jaccard: 1; label_text: Native" role="graphics-symbol" aria-roledescription="text mark" text-anchor="start" transform="translate(322.48,3)" font-family="Mona Sans, DejaVu Sans, Arial, sans-serif" font-size="11px" fill="#0f172a">Native</text><text aria-label="duration_s: 26.685; top_k_jaccard: 0.25; label_text: " role="graphics-symbol" aria-roledescription="text mark" text-anchor="start" transform="translate(314.97142857142853,186.75)" font-family="Mona Sans, DejaVu Sans, Arial, sans-serif" font-size="11px" fill="#0f172a"/><text aria-label="duration_s: 27.567; top_k_jaccard: 0.25; label_text: " role="graphics-symbol" aria-roledescription="text mark" text-anchor="start" transform="translate(325.0514285714286,186.75)" font-family="Mona Sans, DejaVu Sans, Arial, sans-serif" font-size="11px" fill="#0f172a"/><text aria-label="duration_s: 26.374; top_k_jaccard: 0.4286; label_text: Quality" role="graphics-symbol" aria-roledescription="text mark" text-anchor="start" transform="translate(311.41714285714284,142.993)" font-family="Mona Sans, DejaVu Sans, Arial, sans-serif" font-size="11px" fill="#0f172a">Quality</text><text aria-label="duration_s: 25.844; top_k_jaccard: 0.3333; label_text: Blended" role="graphics-symbol" aria-roledescription="text mark" text-anchor="start" transform="translate(305.36,166.34150000000002)" font-family="Mona Sans, DejaVu Sans, Arial, sans-serif" font-size="11px" fill="#0f172a">Blended</text><text aria-label="duration_s: 26.542; top_k_jaccard: 0.25; label_text: Q-heavy" role="graphics-symbol" aria-roledescription="text mark" text-anchor="start" transform="translate(313.3371428571429,186.75)" font-family="Mona Sans, DejaVu Sans, Arial, sans-serif" font-size="11px" fill="#0f172a">Q-heavy</text><text aria-label="duration_s: 26.362; top_k_jaccard: 0.3333; label_text: " role="graphics-symbol" aria-roledescription="text mark" text-anchor="start" transform="translate(311.28,166.34150000000002)" font-family="Mona Sans, DejaVu Sans, Arial, sans-serif" font-size="11px" fill="#0f172a"/><text aria-label="duration_s: 28.437; top_k_jaccard: 0.4286; label_text: " role="graphics-symbol" aria-roledescription="text mark" text-anchor="start" transform="translate(334.99428571428575,142.993)" font-family="Mona Sans, DejaVu Sans, Arial, sans-serif" font-size="11px" fill="#0f172a"/></g></g><path class="foreground" aria-hidden="true" d="" display="none"/></g></g><g class="mark-group role-legend" role="graphics-symbol" aria-roledescription="legend" aria-label="Symbol legend for fill color with 2 values: Frontier, Off frontier"><g transform="translate(0,-104)"><path class="background" aria-hidden="true" d="M0,0h151v26h-151Z" pointer-events="none"/><g><g class="mark-group role-legend-entry"><g transform="translate(6,6)"><path class="background" aria-hidden="true" d="M0,0h0v0h0Z" pointer-events="none"/><g><g class="mark-group role-scope" role="graphics-object" aria-roledescription="group mark container"><g transform="translate(0,0.26138721247416896)"><path class="background" aria-hidden="true" d="M0,0h55.3349609375v13.477225575051662h-55.3349609375Z" pointer-events="none" opacity="1"/><g><g class="mark-symbol role-legend-symbol" pointer-events="none"><path transform="translate(6.5,6.5)" d="M5.477,0A5.477,5.477,0,1,1,-5.477,0A5.477,5.477,0,1,1,5.477,0" fill="#0f766e" stroke="#ffffff" stroke-width="1.5" opacity="0.96"/></g><g class="mark-text role-legend-label" pointer-events="none"><text text-anchor="start" transform="translate(17,9.5)" font-family="Mona Sans, DejaVu Sans, Arial, sans-serif" font-size="10px" fill="#475569" opacity="1">Frontier</text></g></g><path class="foreground" aria-hidden="true" d="" pointer-events="none" display="none"/></g><g transform="translate(67,0.26138721247416896)"><path class="background" aria-hidden="true" d="M0,0h71.7705078125v13.477225575051662h-71.7705078125Z" pointer-events="none" opacity="1"/><g><g class="mark-symbol role-legend-symbol" pointer-events="none"><path transform="translate(6.5,6.5)" d="M5.477,0A5.477,5.477,0,1,1,-5.477,0A5.477,5.477,0,1,1,5.477,0" fill="#cbd5e1" stroke="#ffffff" stroke-width="1.5" opacity="0.96"/></g><g class="mark-text role-legend-label" pointer-events="none"><text text-anchor="start" transform="translate(17,9.5)" font-family="Mona Sans, DejaVu Sans, Arial, sans-serif" font-size="10px" fill="#475569" opacity="1">Off frontier</text></g></g><path class="foreground" aria-hidden="true" d="" pointer-events="none" display="none"/></g></g></g><path class="foreground" aria-hidden="true" d="" pointer-events="none" display="none"/></g></g></g><path class="foreground" aria-hidden="true" d="" pointer-events="none" display="none"/></g></g><g class="mark-group role-legend" role="graphics-symbol" aria-roledescription="legend" aria-label="Symbol legend titled 'Novel repos' for size with values from 0 to 6"><g transform="translate(159,-104)"><path class="background" aria-hidden="true" d="M0,0h342v66h-342Z" pointer-events="none"/><g><g class="mark-group role-legend-entry"><g transform="translate(6,22)"><path class="background" aria-hidden="true" d="M0,0h0v0h0Z" pointer-events="none"/><g><g class="mark-group role-scope" role="graphics-object" aria-roledescription="group mark container"><g transform="translate(0,12.149561437252155)"><path class="background" aria-hidden="true" d="M0,0h23.3623046875v13.700877125495692h-23.3623046875Z" pointer-events="none" opacity="1"/><g><g class="mark-symbol role-legend-symbol" pointer-events="none"><path transform="translate(6.5,6.5)" d="M5.701,0A5.701,5.701,0,1,1,-5.701,0A5.701,5.701,0,1,1,5.701,0" fill="black" fill-opacity="0.96" stroke="#ffffff" stroke-width="1.5" opacity="0.96"/></g><g class="mark-text role-legend-label" pointer-events="none"><text text-anchor="start" transform="translate(17,9.5)" font-family="Mona Sans, DejaVu Sans, Arial, sans-serif" font-size="10px" fill="#475569" opacity="1">0</text></g></g><path class="foreground" aria-hidden="true" d="" pointer-events="none" display="none"/></g><g transform="translate(35,8.860144269644692)"><path class="background" aria-hidden="true" d="M0,0h30.3623046875v20.279711460710615h-30.3623046875Z" pointer-events="none" opacity="1"/><g><g class="mark-symbol role-legend-symbol" pointer-events="none"><path transform="translate(10,10)" d="M8.78,0A8.78,8.78,0,1,1,-8.78,0A8.78,8.78,0,1,1,8.78,0" fill="black" fill-opacity="0.96" stroke="#ffffff" stroke-width="1.5" opacity="0.96"/></g><g class="mark-text role-legend-label" pointer-events="none"><text text-anchor="start" transform="translate(24,13)" font-family="Mona Sans, DejaVu Sans, Arial, sans-serif" font-size="10px" fill="#475569" opacity="1">1</text></g></g><path class="foreground" aria-hidden="true" d="" pointer-events="none" display="none"/></g><g transform="translate(77,6.734869297408569)"><path class="background" aria-hidden="true" d="M0,0h34.3623046875v24.530261405182863h-34.3623046875Z" pointer-events="none" opacity="1"/><g><g class="mark-symbol role-legend-symbol" pointer-events="none"><path transform="translate(12,12)" d="M11.03,0A11.03,11.03,0,1,1,-11.03,0A11.03,11.03,0,1,1,11.03,0" fill="black" fill-opacity="0.96" stroke="#ffffff" stroke-width="1.5" opacity="0.96"/></g><g class="mark-text role-legend-label" pointer-events="none"><text text-anchor="start" transform="translate(28,15)" font-family="Mona Sans, DejaVu Sans, Arial, sans-serif" font-size="10px" fill="#475569" opacity="1">2</text></g></g><path class="foreground" aria-hidden="true" d="" pointer-events="none" display="none"/></g><g transform="translate(123,4.803101520886187)"><path class="background" aria-hidden="true" d="M0,0h38.3623046875v28.393796958227625h-38.3623046875Z" pointer-events="none" opacity="1"/><g><g class="mark-symbol role-legend-symbol" pointer-events="none"><path transform="translate(14,14)" d="M12.894,0A12.894,12.894,0,1,1,-12.894,0A12.894,12.894,0,1,1,12.894,0" fill="black" fill-opacity="0.96" stroke="#ffffff" stroke-width="1.5" opacity="0.96"/></g><g class="mark-text role-legend-label" pointer-events="none"><text text-anchor="start" transform="translate(32,17)" font-family="Mona Sans, DejaVu Sans, Arial, sans-serif" font-size="10px" fill="#475569" opacity="1">3</text></g></g><path class="foreground" aria-hidden="true" d="" pointer-events="none" display="none"/></g><g transform="translate(173,3.239949495125167)"><path class="background" aria-hidden="true" d="M0,0h41.3623046875v31.520101009749666h-41.3623046875Z" pointer-events="none" opacity="1"/><g><g class="mark-symbol role-legend-symbol" pointer-events="none"><path transform="translate(15.5,15.5)" d="M14.52,0A14.52,14.52,0,1,1,-14.52,0A14.52,14.52,0,1,1,14.52,0" fill="black" fill-opacity="0.96" stroke="#ffffff" stroke-width="1.5" opacity="0.96"/></g><g class="mark-text role-legend-label" pointer-events="none"><text text-anchor="start" transform="translate(35,18.5)" font-family="Mona Sans, DejaVu Sans, Arial, sans-serif" font-size="10px" fill="#475569" opacity="1">4</text></g></g><path class="foreground" aria-hidden="true" d="" pointer-events="none" display="none"/></g><g transform="translate(226,1.7591197814842303)"><path class="background" aria-hidden="true" d="M0,0h44.3623046875v34.48176043703154h-44.3623046875Z" pointer-events="none" opacity="1"/><g><g class="mark-symbol role-legend-symbol" pointer-events="none"><path transform="translate(17,17)" d="M15.982,0A15.982,15.982,0,1,1,-15.982,0A15.982,15.982,0,1,1,15.982,0" fill="black" fill-opacity="0.96" stroke="#ffffff" stroke-width="1.5" opacity="0.96"/></g><g class="mark-text role-legend-label" pointer-events="none"><text text-anchor="start" transform="translate(38,20)" font-family="Mona Sans, DejaVu Sans, Arial, sans-serif" font-size="10px" fill="#475569" opacity="1">5</text></g></g><path class="foreground" aria-hidden="true" d="" pointer-events="none" display="none"/></g><g transform="translate(282,0.3397459621556109)"><path class="background" aria-hidden="true" d="M0,0h47.3623046875v37.32050807568878h-47.3623046875Z" pointer-events="none" opacity="1"/><g><g class="mark-symbol role-legend-symbol" pointer-events="none"><path transform="translate(18.5,18.5)" d="M17.321,0A17.321,17.321,0,1,1,-17.321,0A17.321,17.321,0,1,1,17.321,0" fill="black" fill-opacity="0.96" stroke="#ffffff" stroke-width="1.5" opacity="0.96"/></g><g class="mark-text role-legend-label" pointer-events="none"><text text-anchor="start" transform="translate(41,21.5)" font-family="Mona Sans, DejaVu Sans, Arial, sans-serif" font-size="10px" fill="#475569" opacity="1">6</text></g></g><path class="foreground" aria-hidden="true" d="" pointer-events="none" display="none"/></g></g></g><path class="foreground" aria-hidden="true" d="" pointer-events="none" display="none"/></g></g><g class="mark-text role-legend-title" pointer-events="none"><text text-anchor="start" transform="translate(6,15)" font-family="Mona Sans, DejaVu Sans, Arial, sans-serif" font-size="11px" font-weight="bold" fill="#475569" opacity="1">Novel repos</text></g></g><path class="foreground" aria-hidden="true" d="" pointer-events="none" display="none"/></g></g><g class="mark-group role-title"><g transform="translate(-50.083984375,-147)"><path class="background" aria-hidden="true" d="M0,0h0v0h0Z" pointer-events="none"/><g><g class="mark-text role-title-text" role="graphics-symbol" aria-roledescription="title" aria-label="Title text 'Balanced frontier map'" pointer-events="none"><text text-anchor="start" transform="translate(8,13)" font-family="Monaspace Neon, Mona Sans, DejaVu Sans Mono, monospace" font-size="22px" font-weight="bold" fill="#0f172a" opacity="1">Balanced frontier map</text></g><g class="mark-text role-title-subtitle" role="graphics-symbol" aria-roledescription="subtitle" aria-label="Subtitle text 'Frontier scenarios are the only balanced options worth keeping as tradeoff leaders for their query family.'" pointer-events="none"><text text-anchor="start" transform="translate(8,31)" font-family="Mona Sans, DejaVu Sans, Arial, sans-serif" font-size="13px" fill="#475569" opacity="1">Frontier scenarios are the only balanced options worth keeping as tradeoff leaders for their query family.</text></g></g><path class="foreground" aria-hidden="true" d="" pointer-events="none" display="none"/></g></g></g><path class="foreground" aria-hidden="true" d="" display="none"/></g></g></g></svg>