<svg xmlns="http://www.w3.org/2000/svg" viewBox="0 0 1560 640" width="1560" height="640" role="img">
<rect x="0.0" y="0.0" width="1560.0" height="640.0" fill="#ffffff" />
<text x="40.0" y="44.0" font-family="Mona Sans, Inter, sans-serif" font-size="34" font-weight="800" fill="#0f172a" text-anchor="start">Scenario churn versus the native baseline</text><text x="40.0" y="72.0" font-family="Mona Sans, Inter, sans-serif" font-size="16" font-weight="400" fill="#334155" text-anchor="start">Quality-oriented ranking stays closer to the native baseline. Rust and recency slices deliberately pull the result set away from the default top 10.</text><rect x="40.0" y="96.0" width="730.0" height="506.0" fill="#f8fafc" rx="24.0" stroke="#cbd5e1" stroke-width="1.0" /><text x="68.0" y="136.0" font-family="Mona Sans, Inter, sans-serif" font-size="26" font-weight="700" fill="#0f172a" text-anchor="start">api gateway</text><text x="68.0" y="164.0" font-family="Mona Sans, Inter, sans-serif" font-size="14" font-weight="400" fill="#475569" text-anchor="start">Top-10 Jaccard similarity versus native best-match</text><line x1="300.0" y1="192.0" x2="300.0" y2="572.0" stroke="#cbd5e1" stroke-width="1.0" opacity="0.550" /><text x="300.0" y="182.0" font-family="Mona Sans, Inter, sans-serif" font-size="12" font-weight="400" fill="#64748b" text-anchor="middle">0.00</text><line x1="413.7" y1="192.0" x2="413.7" y2="572.0" stroke="#cbd5e1" stroke-width="1.0" opacity="0.550" /><text x="413.7" y="182.0" font-family="Mona Sans, Inter, sans-serif" font-size="12" font-weight="400" fill="#64748b" text-anchor="middle">0.20</text><line x1="527.4" y1="192.0" x2="527.4" y2="572.0" stroke="#cbd5e1" stroke-width="1.0" opacity="0.550" /><text x="527.4" y="182.0" font-family="Mona Sans, Inter, sans-serif" font-size="12" font-weight="400" fill="#64748b" text-anchor="middle">0.40</text><line x1="641.1" y1="192.0" x2="641.1" y2="572.0" stroke="#cbd5e1" stroke-width="1.0" opacity="0.550" /><text x="641.1" y="182.0" font-family="Mona Sans, Inter, sans-serif" font-size="12" font-weight="400" fill="#64748b" text-anchor="middle">0.60</text><text x="68.0" y="200.0" font-family="Mona Sans, Inter, sans-serif" font-size="14" font-weight="400" fill="#0f172a" text-anchor="start">balanced query</text><rect x="300.0" y="182.0" width="398.0" height="22.0" fill="#e2e8f0" rx="11.0" /><rect x="300.0" y="182.0" width="142.1" height="22.0" fill="#ea580c" rx="11.0" /><text x="744.0" y="200.0" font-family="Mona Sans, Inter, sans-serif" font-size="14" font-weight="400" fill="#0f172a" text-anchor="end">0.25</text><text x="68.0" y="256.0" font-family="Mona Sans, Inter, sans-serif" font-size="14" font-weight="400" fill="#0f172a" text-anchor="start">balanced activity</text><rect x="300.0" y="238.0" width="398.0" height="22.0" fill="#e2e8f0" rx="11.0" /><rect x="300.0" y="238.0" width="189.5" height="22.0" fill="#16a34a" rx="11.0" /><text x="744.0" y="256.0" font-family="Mona Sans, Inter, sans-serif" font-size="14" font-weight="400" fill="#0f172a" text-anchor="end">0.33</text><text x="68.0" y="312.0" font-family="Mona Sans, Inter, sans-serif" font-size="14" font-weight="400" fill="#0f172a" text-anchor="start">balanced quality</text><rect x="300.0" y="294.0" width="398.0" height="22.0" fill="#e2e8f0" rx="11.0" /><rect x="300.0" y="294.0" width="243.7" height="22.0" fill="#2563eb" rx="11.0" /><text x="744.0" y="312.0" font-family="Mona Sans, Inter, sans-serif" font-size="14" font-weight="400" fill="#0f172a" text-anchor="end">0.43</text><text x="68.0" y="368.0" font-family="Mona Sans, Inter, sans-serif" font-size="14" font-weight="400" fill="#0f172a" text-anchor="start">balanced blended</text><rect x="300.0" y="350.0" width="398.0" height="22.0" fill="#e2e8f0" rx="11.0" /><rect x="300.0" y="350.0" width="142.1" height="22.0" fill="#475569" rx="11.0" /><text x="744.0" y="368.0" font-family="Mona Sans, Inter, sans-serif" font-size="14" font-weight="400" fill="#0f172a" text-anchor="end">0.25</text><text x="68.0" y="424.0" font-family="Mona Sans, Inter, sans-serif" font-size="14" font-weight="400" fill="#0f172a" text-anchor="start">balanced blended quality-heavy</text><rect x="300.0" y="406.0" width="398.0" height="22.0" fill="#e2e8f0" rx="11.0" /><rect x="300.0" y="406.0" width="379.1" height="22.0" fill="#1d4ed8" rx="11.0" /><text x="744.0" y="424.0" font-family="Mona Sans, Inter, sans-serif" font-size="14" font-weight="400" fill="#0f172a" text-anchor="end">0.67</text><text x="68.0" y="480.0" font-family="Mona Sans, Inter, sans-serif" font-size="14" font-weight="400" fill="#0f172a" text-anchor="start">balanced activity + updated 1y</text><rect x="300.0" y="462.0" width="398.0" height="22.0" fill="#e2e8f0" rx="11.0" /><rect x="300.0" y="462.0" width="189.5" height="22.0" fill="#b91c1c" rx="11.0" /><text x="744.0" y="480.0" font-family="Mona Sans, Inter, sans-serif" font-size="14" font-weight="400" fill="#0f172a" text-anchor="end">0.33</text><text x="68.0" y="536.0" font-family="Mona Sans, Inter, sans-serif" font-size="14" font-weight="400" fill="#0f172a" text-anchor="start">balanced blended + rust</text><rect x="300.0" y="518.0" width="398.0" height="22.0" fill="#e2e8f0" rx="11.0" /><rect x="300.0" y="518.0" width="0.0" height="22.0" fill="#9a3412" rx="11.0" /><text x="744.0" y="536.0" font-family="Mona Sans, Inter, sans-serif" font-size="14" font-weight="400" fill="#0f172a" text-anchor="end">0.00</text><rect x="800.0" y="96.0" width="730.0" height="506.0" fill="#f8fafc" rx="24.0" stroke="#cbd5e1" stroke-width="1.0" /><text x="828.0" y="136.0" font-family="Mona Sans, Inter, sans-serif" font-size="26" font-weight="700" fill="#0f172a" text-anchor="start">terminal ui</text><text x="828.0" y="164.0" font-family="Mona Sans, Inter, sans-serif" font-size="14" font-weight="400" fill="#475569" text-anchor="start">Top-10 Jaccard similarity versus native best-match</text><line x1="1060.0" y1="192.0" x2="1060.0" y2="572.0" stroke="#cbd5e1" stroke-width="1.0" opacity="0.550" /><text x="1060.0" y="182.0" font-family="Mona Sans, Inter, sans-serif" font-size="12" font-weight="400" fill="#64748b" text-anchor="middle">0.00</text><line x1="1173.7" y1="192.0" x2="1173.7" y2="572.0" stroke="#cbd5e1" stroke-width="1.0" opacity="0.550" /><text x="1173.7" y="182.0" font-family="Mona Sans, Inter, sans-serif" font-size="12" font-weight="400" fill="#64748b" text-anchor="middle">0.20</text><line x1="1287.4" y1="192.0" x2="1287.4" y2="572.0" stroke="#cbd5e1" stroke-width="1.0" opacity="0.550" /><text x="1287.4" y="182.0" font-family="Mona Sans, Inter, sans-serif" font-size="12" font-weight="400" fill="#64748b" text-anchor="middle">0.40</text><line x1="1401.1" y1="192.0" x2="1401.1" y2="572.0" stroke="#cbd5e1" stroke-width="1.0" opacity="0.550" /><text x="1401.1" y="182.0" font-family="Mona Sans, Inter, sans-serif" font-size="12" font-weight="400" fill="#64748b" text-anchor="middle">0.60</text><text x="828.0" y="200.0" font-family="Mona Sans, Inter, sans-serif" font-size="14" font-weight="400" fill="#0f172a" text-anchor="start">balanced query</text><rect x="1060.0" y="182.0" width="398.0" height="22.0" fill="#e2e8f0" rx="11.0" /><rect x="1060.0" y="182.0" width="142.1" height="22.0" fill="#ea580c" rx="11.0" /><text x="1504.0" y="200.0" font-family="Mona Sans, Inter, sans-serif" font-size="14" font-weight="400" fill="#0f172a" text-anchor="end">0.25</text><text x="828.0" y="256.0" font-family="Mona Sans, Inter, sans-serif" font-size="14" font-weight="400" fill="#0f172a" text-anchor="start">balanced activity</text><rect x="1060.0" y="238.0" width="398.0" height="22.0" fill="#e2e8f0" rx="11.0" /><rect x="1060.0" y="238.0" width="142.1" height="22.0" fill="#16a34a" rx="11.0" /><text x="1504.0" y="256.0" font-family="Mona Sans, Inter, sans-serif" font-size="14" font-weight="400" fill="#0f172a" text-anchor="end">0.25</text><text x="828.0" y="312.0" font-family="Mona Sans, Inter, sans-serif" font-size="14" font-weight="400" fill="#0f172a" text-anchor="start">balanced quality</text><rect x="1060.0" y="294.0" width="398.0" height="22.0" fill="#e2e8f0" rx="11.0" /><rect x="1060.0" y="294.0" width="243.7" height="22.0" fill="#2563eb" rx="11.0" /><text x="1504.0" y="312.0" font-family="Mona Sans, Inter, sans-serif" font-size="14" font-weight="400" fill="#0f172a" text-anchor="end">0.43</text><text x="828.0" y="368.0" font-family="Mona Sans, Inter, sans-serif" font-size="14" font-weight="400" fill="#0f172a" text-anchor="start">balanced blended</text><rect x="1060.0" y="350.0" width="398.0" height="22.0" fill="#e2e8f0" rx="11.0" /><rect x="1060.0" y="350.0" width="189.5" height="22.0" fill="#475569" rx="11.0" /><text x="1504.0" y="368.0" font-family="Mona Sans, Inter, sans-serif" font-size="14" font-weight="400" fill="#0f172a" text-anchor="end">0.33</text><text x="828.0" y="424.0" font-family="Mona Sans, Inter, sans-serif" font-size="14" font-weight="400" fill="#0f172a" text-anchor="start">balanced blended quality-heavy</text><rect x="1060.0" y="406.0" width="398.0" height="22.0" fill="#e2e8f0" rx="11.0" /><rect x="1060.0" y="406.0" width="243.7" height="22.0" fill="#1d4ed8" rx="11.0" /><text x="1504.0" y="424.0" font-family="Mona Sans, Inter, sans-serif" font-size="14" font-weight="400" fill="#0f172a" text-anchor="end">0.43</text><text x="828.0" y="480.0" font-family="Mona Sans, Inter, sans-serif" font-size="14" font-weight="400" fill="#0f172a" text-anchor="start">balanced activity + updated 1y</text><rect x="1060.0" y="462.0" width="398.0" height="22.0" fill="#e2e8f0" rx="11.0" /><rect x="1060.0" y="462.0" width="142.1" height="22.0" fill="#b91c1c" rx="11.0" /><text x="1504.0" y="480.0" font-family="Mona Sans, Inter, sans-serif" font-size="14" font-weight="400" fill="#0f172a" text-anchor="end">0.25</text><text x="828.0" y="536.0" font-family="Mona Sans, Inter, sans-serif" font-size="14" font-weight="400" fill="#0f172a" text-anchor="start">balanced blended + rust</text><rect x="1060.0" y="518.0" width="398.0" height="22.0" fill="#e2e8f0" rx="11.0" /><rect x="1060.0" y="518.0" width="29.9" height="22.0" fill="#9a3412" rx="11.0" /><text x="1504.0" y="536.0" font-family="Mona Sans, Inter, sans-serif" font-size="14" font-weight="400" fill="#0f172a" text-anchor="end">0.05</text>
</svg>
