<svg xmlns="http://www.w3.org/2000/svg" viewBox="0 0 1560 580" width="1560" height="580" role="img">
<rect x="0.0" y="0.0" width="1560.0" height="580.0" fill="#ffffff" />
<text x="40.0" y="44.0" font-family="Mona Sans, Inter, sans-serif" font-size="34" font-weight="800" fill="#0f172a" text-anchor="start">Baseline core retention</text><text x="40.0" y="72.0" font-family="Mona Sans, Inter, sans-serif" font-size="16" font-weight="400" fill="#334155" text-anchor="start">Quality-oriented modes keep more of the native core. Query-heavy modes trade away core retention to maximize novel results.</text><rect x="40.0" y="96.0" width="730.0" height="394.0" fill="#f8fafc" rx="24.0" stroke="#cbd5e1" stroke-width="1.0" /><text x="68.0" y="136.0" font-family="Mona Sans, Inter, sans-serif" font-size="26" font-weight="700" fill="#0f172a" text-anchor="start">api gateway</text><text x="68.0" y="164.0" font-family="Mona Sans, Inter, sans-serif" font-size="14" font-weight="400" fill="#475569" text-anchor="start">How many of the native top five still survive in the balanced result set</text><line x1="300.0" y1="192.0" x2="300.0" y2="460.0" stroke="#cbd5e1" stroke-width="1.0" opacity="0.550" /><text x="300.0" y="182.0" font-family="Mona Sans, Inter, sans-serif" font-size="12" font-weight="400" fill="#64748b" text-anchor="middle">0/5</text><line x1="379.6" y1="192.0" x2="379.6" y2="460.0" stroke="#cbd5e1" stroke-width="1.0" opacity="0.550" /><text x="379.6" y="182.0" font-family="Mona Sans, Inter, sans-serif" font-size="12" font-weight="400" fill="#64748b" text-anchor="middle">1/5</text><line x1="459.2" y1="192.0" x2="459.2" y2="460.0" stroke="#cbd5e1" stroke-width="1.0" opacity="0.550" /><text x="459.2" y="182.0" font-family="Mona Sans, Inter, sans-serif" font-size="12" font-weight="400" fill="#64748b" text-anchor="middle">2/5</text><line x1="538.8" y1="192.0" x2="538.8" y2="460.0" stroke="#cbd5e1" stroke-width="1.0" opacity="0.550" /><text x="538.8" y="182.0" font-family="Mona Sans, Inter, sans-serif" font-size="12" font-weight="400" fill="#64748b" text-anchor="middle">3/5</text><line x1="618.4" y1="192.0" x2="618.4" y2="460.0" stroke="#cbd5e1" stroke-width="1.0" opacity="0.550" /><text x="618.4" y="182.0" font-family="Mona Sans, Inter, sans-serif" font-size="12" font-weight="400" fill="#64748b" text-anchor="middle">4/5</text><line x1="698.0" y1="192.0" x2="698.0" y2="460.0" stroke="#cbd5e1" stroke-width="1.0" opacity="0.550" /><text x="698.0" y="182.0" font-family="Mona Sans, Inter, sans-serif" font-size="12" font-weight="400" fill="#64748b" text-anchor="middle">5/5</text><text x="68.0" y="200.0" font-family="Mona Sans, Inter, sans-serif" font-size="14" font-weight="400" fill="#0f172a" text-anchor="start">query</text><rect x="300.0" y="182.0" width="398.0" height="22.0" fill="#e2e8f0" rx="11.0" /><rect x="300.0" y="182.0" width="79.6" height="22.0" fill="#ea580c" rx="11.0" /><text x="744.0" y="200.0" font-family="Mona Sans, Inter, sans-serif" font-size="14" font-weight="400" fill="#0f172a" text-anchor="end">1/5</text><text x="68.0" y="256.0" font-family="Mona Sans, Inter, sans-serif" font-size="14" font-weight="400" fill="#0f172a" text-anchor="start">activity</text><rect x="300.0" y="238.0" width="398.0" height="22.0" fill="#e2e8f0" rx="11.0" /><rect x="300.0" y="238.0" width="159.2" height="22.0" fill="#16a34a" rx="11.0" /><text x="744.0" y="256.0" font-family="Mona Sans, Inter, sans-serif" font-size="14" font-weight="400" fill="#0f172a" text-anchor="end">2/5</text><text x="68.0" y="312.0" font-family="Mona Sans, Inter, sans-serif" font-size="14" font-weight="400" fill="#0f172a" text-anchor="start">quality</text><rect x="300.0" y="294.0" width="398.0" height="22.0" fill="#e2e8f0" rx="11.0" /><rect x="300.0" y="294.0" width="398.0" height="22.0" fill="#2563eb" rx="11.0" /><text x="744.0" y="312.0" font-family="Mona Sans, Inter, sans-serif" font-size="14" font-weight="400" fill="#0f172a" text-anchor="end">5/5</text><text x="68.0" y="368.0" font-family="Mona Sans, Inter, sans-serif" font-size="14" font-weight="400" fill="#0f172a" text-anchor="start">blended</text><rect x="300.0" y="350.0" width="398.0" height="22.0" fill="#e2e8f0" rx="11.0" /><rect x="300.0" y="350.0" width="79.6" height="22.0" fill="#475569" rx="11.0" /><text x="744.0" y="368.0" font-family="Mona Sans, Inter, sans-serif" font-size="14" font-weight="400" fill="#0f172a" text-anchor="end">1/5</text><text x="68.0" y="424.0" font-family="Mona Sans, Inter, sans-serif" font-size="14" font-weight="400" fill="#0f172a" text-anchor="start">qual-heavy</text><rect x="300.0" y="406.0" width="398.0" height="22.0" fill="#e2e8f0" rx="11.0" /><rect x="300.0" y="406.0" width="398.0" height="22.0" fill="#1d4ed8" rx="11.0" /><text x="744.0" y="424.0" font-family="Mona Sans, Inter, sans-serif" font-size="14" font-weight="400" fill="#0f172a" text-anchor="end">5/5</text><rect x="800.0" y="96.0" width="730.0" height="394.0" fill="#f8fafc" rx="24.0" stroke="#cbd5e1" stroke-width="1.0" /><text x="828.0" y="136.0" font-family="Mona Sans, Inter, sans-serif" font-size="26" font-weight="700" fill="#0f172a" text-anchor="start">terminal ui</text><text x="828.0" y="164.0" font-family="Mona Sans, Inter, sans-serif" font-size="14" font-weight="400" fill="#475569" text-anchor="start">How many of the native top five still survive in the balanced result set</text><line x1="1060.0" y1="192.0" x2="1060.0" y2="460.0" stroke="#cbd5e1" stroke-width="1.0" opacity="0.550" /><text x="1060.0" y="182.0" font-family="Mona Sans, Inter, sans-serif" font-size="12" font-weight="400" fill="#64748b" text-anchor="middle">0/5</text><line x1="1139.6" y1="192.0" x2="1139.6" y2="460.0" stroke="#cbd5e1" stroke-width="1.0" opacity="0.550" /><text x="1139.6" y="182.0" font-family="Mona Sans, Inter, sans-serif" font-size="12" font-weight="400" fill="#64748b" text-anchor="middle">1/5</text><line x1="1219.2" y1="192.0" x2="1219.2" y2="460.0" stroke="#cbd5e1" stroke-width="1.0" opacity="0.550" /><text x="1219.2" y="182.0" font-family="Mona Sans, Inter, sans-serif" font-size="12" font-weight="400" fill="#64748b" text-anchor="middle">2/5</text><line x1="1298.8" y1="192.0" x2="1298.8" y2="460.0" stroke="#cbd5e1" stroke-width="1.0" opacity="0.550" /><text x="1298.8" y="182.0" font-family="Mona Sans, Inter, sans-serif" font-size="12" font-weight="400" fill="#64748b" text-anchor="middle">3/5</text><line x1="1378.4" y1="192.0" x2="1378.4" y2="460.0" stroke="#cbd5e1" stroke-width="1.0" opacity="0.550" /><text x="1378.4" y="182.0" font-family="Mona Sans, Inter, sans-serif" font-size="12" font-weight="400" fill="#64748b" text-anchor="middle">4/5</text><line x1="1458.0" y1="192.0" x2="1458.0" y2="460.0" stroke="#cbd5e1" stroke-width="1.0" opacity="0.550" /><text x="1458.0" y="182.0" font-family="Mona Sans, Inter, sans-serif" font-size="12" font-weight="400" fill="#64748b" text-anchor="middle">5/5</text><text x="828.0" y="200.0" font-family="Mona Sans, Inter, sans-serif" font-size="14" font-weight="400" fill="#0f172a" text-anchor="start">query</text><rect x="1060.0" y="182.0" width="398.0" height="22.0" fill="#e2e8f0" rx="11.0" /><rect x="1060.0" y="182.0" width="79.6" height="22.0" fill="#ea580c" rx="11.0" /><text x="1504.0" y="200.0" font-family="Mona Sans, Inter, sans-serif" font-size="14" font-weight="400" fill="#0f172a" text-anchor="end">1/5</text><text x="828.0" y="256.0" font-family="Mona Sans, Inter, sans-serif" font-size="14" font-weight="400" fill="#0f172a" text-anchor="start">activity</text><rect x="1060.0" y="238.0" width="398.0" height="22.0" fill="#e2e8f0" rx="11.0" /><rect x="1060.0" y="238.0" width="159.2" height="22.0" fill="#16a34a" rx="11.0" /><text x="1504.0" y="256.0" font-family="Mona Sans, Inter, sans-serif" font-size="14" font-weight="400" fill="#0f172a" text-anchor="end">2/5</text><text x="828.0" y="312.0" font-family="Mona Sans, Inter, sans-serif" font-size="14" font-weight="400" fill="#0f172a" text-anchor="start">quality</text><rect x="1060.0" y="294.0" width="398.0" height="22.0" fill="#e2e8f0" rx="11.0" /><rect x="1060.0" y="294.0" width="318.4" height="22.0" fill="#2563eb" rx="11.0" /><text x="1504.0" y="312.0" font-family="Mona Sans, Inter, sans-serif" font-size="14" font-weight="400" fill="#0f172a" text-anchor="end">4/5</text><text x="828.0" y="368.0" font-family="Mona Sans, Inter, sans-serif" font-size="14" font-weight="400" fill="#0f172a" text-anchor="start">blended</text><rect x="1060.0" y="350.0" width="398.0" height="22.0" fill="#e2e8f0" rx="11.0" /><rect x="1060.0" y="350.0" width="238.8" height="22.0" fill="#475569" rx="11.0" /><text x="1504.0" y="368.0" font-family="Mona Sans, Inter, sans-serif" font-size="14" font-weight="400" fill="#0f172a" text-anchor="end">3/5</text><text x="828.0" y="424.0" font-family="Mona Sans, Inter, sans-serif" font-size="14" font-weight="400" fill="#0f172a" text-anchor="start">qual-heavy</text><rect x="1060.0" y="406.0" width="398.0" height="22.0" fill="#e2e8f0" rx="11.0" /><rect x="1060.0" y="406.0" width="318.4" height="22.0" fill="#1d4ed8" rx="11.0" /><text x="1504.0" y="424.0" font-family="Mona Sans, Inter, sans-serif" font-size="14" font-weight="400" fill="#0f172a" text-anchor="end">4/5</text>
</svg>
