<svg xmlns="http://www.w3.org/2000/svg" xmlns:xlink="http://www.w3.org/1999/xlink" version="1.1" class="marks" width="738" height="436" viewBox="0 0 738 436"><rect width="738" height="436" fill="#f6f7fb"/><g fill="none" stroke-miterlimit="10" transform="translate(134,139)"><g class="mark-group role-frame root" role="graphics-object" aria-roledescription="group mark container"><g transform="translate(0,0)"><path class="background" aria-hidden="true" d="M0,0h0v0h0Z"/><g><g class="mark-group role-row-header row_header" role="graphics-object" aria-roledescription="group mark container"><g transform="translate(-1,0)"><path class="background" aria-hidden="true" d="M0,0h0v210h0Z"/><g><g class="mark-group role-axis" role="graphics-symbol" aria-roledescription="axis" aria-label="Y-axis for a discrete scale with 5 values: Balanced query, Balanced activity, Balanced quality, Balanced blended, Quality-heavy blend"><g transform="translate(0.5,0.5)"><path class="background" aria-hidden="true" d="M0,0h0v0h0Z" pointer-events="none"/><g><g class="mark-rule role-axis-tick" pointer-events="none"><line transform="translate(0,21)" x2="-5" y2="0" stroke="#c7d2e0" stroke-width="1" opacity="1"/><line transform="translate(0,63)" x2="-5" y2="0" stroke="#c7d2e0" stroke-width="1" opacity="1"/><line transform="translate(0,105)" x2="-5" y2="0" stroke="#c7d2e0" stroke-width="1" opacity="1"/><line transform="translate(0,147)" x2="-5" y2="0" stroke="#c7d2e0" stroke-width="1" opacity="1"/><line transform="translate(0,189)" x2="-5" y2="0" stroke="#c7d2e0" stroke-width="1" opacity="1"/></g><g class="mark-text role-axis-label" pointer-events="none"><text text-anchor="end" transform="translate(-7,24.5)" font-family="Mona Sans, DejaVu Sans, Arial, sans-serif" font-size="12px" fill="#475569" opacity="1">Balanced query</text><text text-anchor="end" transform="translate(-7,66.5)" font-family="Mona Sans, DejaVu Sans, Arial, sans-serif" font-size="12px" fill="#475569" opacity="1">Balanced activity</text><text text-anchor="end" transform="translate(-7,108.5)" font-family="Mona Sans, DejaVu Sans, Arial, sans-serif" font-size="12px" fill="#475569" opacity="1">Balanced quality</text><text text-anchor="end" transform="translate(-7,150.5)" font-family="Mona Sans, DejaVu Sans, Arial, sans-serif" font-size="12px" fill="#475569" opacity="1">Balanced blended</text><text text-anchor="end" transform="translate(-7,192.5)" font-family="Mona Sans, DejaVu Sans, Arial, sans-serif" font-size="12px" fill="#475569" opacity="1">Quality-heavy blend</text></g><g class="mark-rule role-axis-domain" pointer-events="none"><line transform="translate(0,0)" x2="0" y2="210" stroke="#c7d2e0" stroke-width="1" opacity="1"/></g></g><path class="foreground" aria-hidden="true" d="" pointer-events="none" display="none"/></g></g></g><path class="foreground" aria-hidden="true" d="" display="none"/></g></g><g class="mark-group role-column-header column_header" role="graphics-object" aria-roledescription="group mark container"><g transform="translate(0,-1)"><path class="background" aria-hidden="true" d="M0,0h250v0h-250Z"/><g><g class="mark-group role-title"><g transform="translate(125,-21)"><path class="background" aria-hidden="true" d="M0,0h0v0h0Z" pointer-events="none"/><g><g class="mark-text role-title-text" role="graphics-symbol" aria-roledescription="title" aria-label="Title text 'Api Gateway'" pointer-events="none"><text text-anchor="middle" transform="translate(0,10)" font-family="Mona Sans, DejaVu Sans, Arial, sans-serif" font-size="13px" fill="#475569" opacity="1">Api Gateway</text></g></g><path class="foreground" aria-hidden="true" d="" pointer-events="none" display="none"/></g></g></g><path class="foreground" aria-hidden="true" d="" display="none"/></g><g transform="translate(272,-1)"><path class="background" aria-hidden="true" d="M0,0h250v0h-250Z"/><g><g class="mark-group role-title"><g transform="translate(125,-21)"><path class="background" aria-hidden="true" d="M0,0h0v0h0Z" pointer-events="none"/><g><g class="mark-text role-title-text" role="graphics-symbol" aria-roledescription="title" aria-label="Title text 'Terminal Ui'" pointer-events="none"><text text-anchor="middle" transform="translate(0,10)" font-family="Mona Sans, DejaVu Sans, Arial, sans-serif" font-size="13px" fill="#475569" opacity="1">Terminal Ui</text></g></g><path class="foreground" aria-hidden="true" d="" pointer-events="none" display="none"/></g></g></g><path class="foreground" aria-hidden="true" d="" display="none"/></g></g><g class="mark-group role-column-footer column_footer" role="graphics-object" aria-roledescription="group mark container"><g transform="translate(0,211)"><path class="background" aria-hidden="true" d="M0,0h250v0h-250Z"/><g><g class="mark-group role-axis" role="graphics-symbol" aria-roledescription="axis" aria-label="X-axis for a discrete scale with 2 values: Native top 3, Native top 5"><g transform="translate(0.5,0.5)"><path class="background" aria-hidden="true" d="M0,0h0v0h0Z" pointer-events="none"/><g><g class="mark-rule role-axis-tick" pointer-events="none"><line transform="translate(62,0)" x2="0" y2="5" stroke="#c7d2e0" stroke-width="1" opacity="1"/><line transform="translate(187,0)" x2="0" y2="5" stroke="#c7d2e0" stroke-width="1" opacity="1"/></g><g class="mark-text role-axis-label" pointer-events="none"><text text-anchor="end" transform="translate(62,7) rotate(270) translate(0,4)" font-family="Mona Sans, DejaVu Sans, Arial, sans-serif" font-size="12px" fill="#475569" opacity="1">Native top 3</text><text text-anchor="end" transform="translate(187,7) rotate(270) translate(0,4)" font-family="Mona Sans, DejaVu Sans, Arial, sans-serif" font-size="12px" fill="#475569" opacity="1">Native top 5</text></g><g class="mark-rule role-axis-domain" pointer-events="none"><line transform="translate(0,0)" x2="250" y2="0" stroke="#c7d2e0" stroke-width="1" opacity="1"/></g></g><path class="foreground" aria-hidden="true" d="" pointer-events="none" display="none"/></g></g></g><path class="foreground" aria-hidden="true" d="" display="none"/></g><g transform="translate(272,211)"><path class="background" aria-hidden="true" d="M0,0h250v0h-250Z"/><g><g class="mark-group role-axis" role="graphics-symbol" aria-roledescription="axis" aria-label="X-axis for a discrete scale with 2 values: Native top 3, Native top 5"><g transform="translate(0.5,0.5)"><path class="background" aria-hidden="true" d="M0,0h0v0h0Z" pointer-events="none"/><g><g class="mark-rule role-axis-tick" pointer-events="none"><line transform="translate(62,0)" x2="0" y2="5" stroke="#c7d2e0" stroke-width="1" opacity="1"/><line transform="translate(187,0)" x2="0" y2="5" stroke="#c7d2e0" stroke-width="1" opacity="1"/></g><g class="mark-text role-axis-label" pointer-events="none"><text text-anchor="end" transform="translate(62,7) rotate(270) translate(0,4)" font-family="Mona Sans, DejaVu Sans, Arial, sans-serif" font-size="12px" fill="#475569" opacity="1">Native top 3</text><text text-anchor="end" transform="translate(187,7) rotate(270) translate(0,4)" font-family="Mona Sans, DejaVu Sans, Arial, sans-serif" font-size="12px" fill="#475569" opacity="1">Native top 5</text></g><g class="mark-rule role-axis-domain" pointer-events="none"><line transform="translate(0,0)" x2="250" y2="0" stroke="#c7d2e0" stroke-width="1" opacity="1"/></g></g><path class="foreground" aria-hidden="true" d="" pointer-events="none" display="none"/></g></g></g><path class="foreground" aria-hidden="true" d="" display="none"/></g></g><g class="mark-group role-scope cell" role="graphics-object" aria-roledescription="group mark container"><g transform="translate(0,0)"><path class="background" aria-hidden="true" d="M0.5,0.5h250v210h-250Z" stroke="#ddd"/><g><g class="mark-rect role-mark child_layer_0_marks" role="graphics-object" aria-roledescription="rect mark container"><path aria-label="cohort: Native top 3; scenario_label: Balanced query; Retention: 0.3333; Query: Api Gateway; Scenario: Balanced query; Baseline slice: Native top 3" role="graphics-symbol" aria-roledescription="rect mark" d="M6,0L119,0C122.311490146964,0,125,2.688509853036,125,6L125,36C125,39.311490146964,122.311490146964,42,119,42L6,42C2.688509853036,42,0,39.311490146964,0,36L0,6C0,2.688509853036,2.688509853036,0,6,0Z" fill="rgb(168, 199, 251)"/><path aria-label="cohort: Native top 3; scenario_label: Balanced activity; Retention: 0.3333; Query: Api Gateway; Scenario: Balanced activity; Baseline slice: Native top 3" role="graphics-symbol" aria-roledescription="rect mark" d="M6,42L119,42C122.311490146964,42,125,44.688509853036,125,48L125,78C125,81.311490146964,122.311490146964,84,119,84L6,84C2.688509853036,84,0,81.311490146964,0,78L0,48C0,44.688509853036,2.688509853036,42,6,42Z" fill="rgb(168, 199, 251)"/><path aria-label="cohort: Native top 3; scenario_label: Balanced quality; Retention: 1; Query: Api Gateway; Scenario: Balanced quality; Baseline slice: Native top 3" role="graphics-symbol" aria-roledescription="rect mark" d="M6,84L119,84C122.311490146964,84,125,86.688509853036,125,90L125,120C125,123.311490146964,122.311490146964,126,119,126L6,126C2.688509853036,126,0,123.311490146964,0,120L0,90C0,86.688509853036,2.688509853036,84,6,84Z" fill="rgb(37, 99, 235)"/><path aria-label="cohort: Native top 3; scenario_label: Balanced blended; Retention: 0.3333; Query: Api Gateway; Scenario: Balanced blended; Baseline slice: Native top 3" role="graphics-symbol" aria-roledescription="rect mark" d="M6,126L119,126C122.311490146964,126,125,128.688509853036,125,132L125,162C125,165.311490146964,122.311490146964,168,119,168L6,168C2.688509853036,168,0,165.311490146964,0,162L0,132C0,128.688509853036,2.688509853036,126,6,126Z" fill="rgb(168, 199, 251)"/><path aria-label="cohort: Native top 3; scenario_label: Quality-heavy blend; Retention: 1; Query: Api Gateway; Scenario: Quality-heavy blend; Baseline slice: Native top 3" role="graphics-symbol" aria-roledescription="rect mark" d="M6,168L119,168C122.311490146964,168,125,170.688509853036,125,174L125,204C125,207.311490146964,122.311490146964,210,119,210L6,210C2.688509853036,210,0,207.311490146964,0,204L0,174C0,170.688509853036,2.688509853036,168,6,168Z" fill="rgb(37, 99, 235)"/><path aria-label="cohort: Native top 5; scenario_label: Balanced query; Retention: 0.2; Query: Api Gateway; Scenario: Balanced query; Baseline slice: Native top 5" role="graphics-symbol" aria-roledescription="rect mark" d="M131,0L244,0C247.311490146964,0,250,2.688509853036,250,6L250,36C250,39.311490146964,247.311490146964,42,244,42L131,42C127.688509853036,42,125,39.311490146964,125,36L125,6C125,2.688509853036,127.688509853036,0,131,0Z" fill="rgb(195, 218, 253)"/><path aria-label="cohort: Native top 5; scenario_label: Balanced activity; Retention: 0.4; Query: Api Gateway; Scenario: Balanced activity; Baseline slice: Native top 5" role="graphics-symbol" aria-roledescription="rect mark" d="M131,42L244,42C247.311490146964,42,250,44.688509853036,250,48L250,78C250,81.311490146964,247.311490146964,84,244,84L131,84C127.688509853036,84,125,81.311490146964,125,78L125,48C125,44.688509853036,127.688509853036,42,131,42Z" fill="rgb(154, 189, 251)"/><path aria-label="cohort: Native top 5; scenario_label: Balanced quality; Retention: 1; Query: Api Gateway; Scenario: Balanced quality; Baseline slice: Native top 5" role="graphics-symbol" aria-roledescription="rect mark" d="M131,84L244,84C247.311490146964,84,250,86.688509853036,250,90L250,120C250,123.311490146964,247.311490146964,126,244,126L131,126C127.688509853036,126,125,123.311490146964,125,120L125,90C125,86.688509853036,127.688509853036,84,131,84Z" fill="rgb(37, 99, 235)"/><path aria-label="cohort: Native top 5; scenario_label: Balanced blended; Retention: 0.2; Query: Api Gateway; Scenario: Balanced blended; Baseline slice: Native top 5" role="graphics-symbol" aria-roledescription="rect mark" d="M131,126L244,126C247.311490146964,126,250,128.688509853036,250,132L250,162C250,165.311490146964,247.311490146964,168,244,168L131,168C127.688509853036,168,125,165.311490146964,125,162L125,132C125,128.688509853036,127.688509853036,126,131,126Z" fill="rgb(195, 218, 253)"/><path aria-label="cohort: Native top 5; scenario_label: Quality-heavy blend; Retention: 1; Query: Api Gateway; Scenario: Quality-heavy blend; Baseline slice: Native top 5" role="graphics-symbol" aria-roledescription="rect mark" d="M131,168L244,168C247.311490146964,168,250,170.688509853036,250,174L250,204C250,207.311490146964,247.311490146964,210,244,210L131,210C127.688509853036,210,125,207.311490146964,125,204L125,174C125,170.688509853036,127.688509853036,168,131,168Z" fill="rgb(37, 99, 235)"/></g><g class="mark-text role-mark child_layer_1_marks" role="graphics-object" aria-roledescription="text mark container"><text aria-label="cohort: Native top 3; scenario_label: Balanced query; retention_label: 33%" role="graphics-symbol" aria-roledescription="text mark" text-anchor="middle" transform="translate(62.5,25)" font-family="Mona Sans, DejaVu Sans, Arial, sans-serif" font-size="12px" font-weight="600" fill="#0f172a">33%</text><text aria-label="cohort: Native top 3; scenario_label: Balanced activity; retention_label: 33%" role="graphics-symbol" aria-roledescription="text mark" text-anchor="middle" transform="translate(62.5,67)" font-family="Mona Sans, DejaVu Sans, Arial, sans-serif" font-size="12px" font-weight="600" fill="#0f172a">33%</text><text aria-label="cohort: Native top 3; scenario_label: Balanced quality; retention_label: 100%" role="graphics-symbol" aria-roledescription="text mark" text-anchor="middle" transform="translate(62.5,109)" font-family="Mona Sans, DejaVu Sans, Arial, sans-serif" font-size="12px" font-weight="600" fill="white">100%</text><text aria-label="cohort: Native top 3; scenario_label: Balanced blended; retention_label: 33%" role="graphics-symbol" aria-roledescription="text mark" text-anchor="middle" transform="translate(62.5,151)" font-family="Mona Sans, DejaVu Sans, Arial, sans-serif" font-size="12px" font-weight="600" fill="#0f172a">33%</text><text aria-label="cohort: Native top 3; scenario_label: Quality-heavy blend; retention_label: 100%" role="graphics-symbol" aria-roledescription="text mark" text-anchor="middle" transform="translate(62.5,193)" font-family="Mona Sans, DejaVu Sans, Arial, sans-serif" font-size="12px" font-weight="600" fill="white">100%</text><text aria-label="cohort: Native top 5; scenario_label: Balanced query; retention_label: 20%" role="graphics-symbol" aria-roledescription="text mark" text-anchor="middle" transform="translate(187.5,25)" font-family="Mona Sans, DejaVu Sans, Arial, sans-serif" font-size="12px" font-weight="600" fill="#0f172a">20%</text><text aria-label="cohort: Native top 5; scenario_label: Balanced activity; retention_label: 40%" role="graphics-symbol" aria-roledescription="text mark" text-anchor="middle" transform="translate(187.5,67)" font-family="Mona Sans, DejaVu Sans, Arial, sans-serif" font-size="12px" font-weight="600" fill="#0f172a">40%</text><text aria-label="cohort: Native top 5; scenario_label: Balanced quality; retention_label: 100%" role="graphics-symbol" aria-roledescription="text mark" text-anchor="middle" transform="translate(187.5,109)" font-family="Mona Sans, DejaVu Sans, Arial, sans-serif" font-size="12px" font-weight="600" fill="white">100%</text><text aria-label="cohort: Native top 5; scenario_label: Balanced blended; retention_label: 20%" role="graphics-symbol" aria-roledescription="text mark" text-anchor="middle" transform="translate(187.5,151)" font-family="Mona Sans, DejaVu Sans, Arial, sans-serif" font-size="12px" font-weight="600" fill="#0f172a">20%</text><text aria-label="cohort: Native top 5; scenario_label: Quality-heavy blend; retention_label: 100%" role="graphics-symbol" aria-roledescription="text mark" text-anchor="middle" transform="translate(187.5,193)" font-family="Mona Sans, DejaVu Sans, Arial, sans-serif" font-size="12px" font-weight="600" fill="white">100%</text></g></g><path class="foreground" aria-hidden="true" d="" display="none"/></g><g transform="translate(272,0)"><path class="background" aria-hidden="true" d="M0.5,0.5h250v210h-250Z" stroke="#ddd"/><g><g class="mark-rect role-mark child_layer_0_marks" role="graphics-object" aria-roledescription="rect mark container"><path aria-label="cohort: Native top 3; scenario_label: Balanced query; Retention: 0.3333; Query: Terminal Ui; Scenario: Balanced query; Baseline slice: Native top 3" role="graphics-symbol" aria-roledescription="rect mark" d="M6,0L119,0C122.311490146964,0,125,2.688509853036,125,6L125,36C125,39.311490146964,122.311490146964,42,119,42L6,42C2.688509853036,42,0,39.311490146964,0,36L0,6C0,2.688509853036,2.688509853036,0,6,0Z" fill="rgb(168, 199, 251)"/><path aria-label="cohort: Native top 3; scenario_label: Balanced activity; Retention: 0.3333; Query: Terminal Ui; Scenario: Balanced activity; Baseline slice: Native top 3" role="graphics-symbol" aria-roledescription="rect mark" d="M6,42L119,42C122.311490146964,42,125,44.688509853036,125,48L125,78C125,81.311490146964,122.311490146964,84,119,84L6,84C2.688509853036,84,0,81.311490146964,0,78L0,48C0,44.688509853036,2.688509853036,42,6,42Z" fill="rgb(168, 199, 251)"/><path aria-label="cohort: Native top 3; scenario_label: Balanced quality; Retention: 1; Query: Terminal Ui; Scenario: Balanced quality; Baseline slice: Native top 3" role="graphics-symbol" aria-roledescription="rect mark" d="M6,84L119,84C122.311490146964,84,125,86.688509853036,125,90L125,120C125,123.311490146964,122.311490146964,126,119,126L6,126C2.688509853036,126,0,123.311490146964,0,120L0,90C0,86.688509853036,2.688509853036,84,6,84Z" fill="rgb(37, 99, 235)"/><path aria-label="cohort: Native top 3; scenario_label: Balanced blended; Retention: 0.6667; Query: Terminal Ui; Scenario: Balanced blended; Baseline slice: Native top 3" role="graphics-symbol" aria-roledescription="rect mark" d="M6,126L119,126C122.311490146964,126,125,128.688509853036,125,132L125,162C125,165.311490146964,122.311490146964,168,119,168L6,168C2.688509853036,168,0,165.311490146964,0,162L0,132C0,128.688509853036,2.688509853036,126,6,126Z" fill="rgb(104, 150, 246)"/><path aria-label="cohort: Native top 3; scenario_label: Quality-heavy blend; Retention: 1; Query: Terminal Ui; Scenario: Quality-heavy blend; Baseline slice: Native top 3" role="graphics-symbol" aria-roledescription="rect mark" d="M6,168L119,168C122.311490146964,168,125,170.688509853036,125,174L125,204C125,207.311490146964,122.311490146964,210,119,210L6,210C2.688509853036,210,0,207.311490146964,0,204L0,174C0,170.688509853036,2.688509853036,168,6,168Z" fill="rgb(37, 99, 235)"/><path aria-label="cohort: Native top 5; scenario_label: Balanced query; Retention: 0.2; Query: Terminal Ui; Scenario: Balanced query; Baseline slice: Native top 5" role="graphics-symbol" aria-roledescription="rect mark" d="M131,0L244,0C247.311490146964,0,250,2.688509853036,250,6L250,36C250,39.311490146964,247.311490146964,42,244,42L131,42C127.688509853036,42,125,39.311490146964,125,36L125,6C125,2.688509853036,127.688509853036,0,131,0Z" fill="rgb(195, 218, 253)"/><path aria-label="cohort: Native top 5; scenario_label: Balanced activity; Retention: 0.4; Query: Terminal Ui; Scenario: Balanced activity; Baseline slice: Native top 5" role="graphics-symbol" aria-roledescription="rect mark" d="M131,42L244,42C247.311490146964,42,250,44.688509853036,250,48L250,78C250,81.311490146964,247.311490146964,84,244,84L131,84C127.688509853036,84,125,81.311490146964,125,78L125,48C125,44.688509853036,127.688509853036,42,131,42Z" fill="rgb(154, 189, 251)"/><path aria-label="cohort: Native top 5; scenario_label: Balanced quality; Retention: 0.8; Query: Terminal Ui; Scenario: Balanced quality; Baseline slice: Native top 5" role="graphics-symbol" aria-roledescription="rect mark" d="M131,84L244,84C247.311490146964,84,250,86.688509853036,250,90L250,120C250,123.311490146964,247.311490146964,126,244,126L131,126C127.688509853036,126,125,123.311490146964,125,120L125,90C125,86.688509853036,127.688509853036,84,131,84Z" fill="rgb(79, 130, 242)"/><path aria-label="cohort: Native top 5; scenario_label: Balanced blended; Retention: 0.6; Query: Terminal Ui; Scenario: Balanced blended; Baseline slice: Native top 5" role="graphics-symbol" aria-roledescription="rect mark" d="M131,126L244,126C247.311490146964,126,250,128.688509853036,250,132L250,162C250,165.311490146964,247.311490146964,168,244,168L131,168C127.688509853036,168,125,165.311490146964,125,162L125,132C125,128.688509853036,127.688509853036,126,131,126Z" fill="rgb(116, 160, 247)"/><path aria-label="cohort: Native top 5; scenario_label: Quality-heavy blend; Retention: 0.8; Query: Terminal Ui; Scenario: Quality-heavy blend; Baseline slice: Native top 5" role="graphics-symbol" aria-roledescription="rect mark" d="M131,168L244,168C247.311490146964,168,250,170.688509853036,250,174L250,204C250,207.311490146964,247.311490146964,210,244,210L131,210C127.688509853036,210,125,207.311490146964,125,204L125,174C125,170.688509853036,127.688509853036,168,131,168Z" fill="rgb(79, 130, 242)"/></g><g class="mark-text role-mark child_layer_1_marks" role="graphics-object" aria-roledescription="text mark container"><text aria-label="cohort: Native top 3; scenario_label: Balanced query; retention_label: 33%" role="graphics-symbol" aria-roledescription="text mark" text-anchor="middle" transform="translate(62.5,25)" font-family="Mona Sans, DejaVu Sans, Arial, sans-serif" font-size="12px" font-weight="600" fill="#0f172a">33%</text><text aria-label="cohort: Native top 3; scenario_label: Balanced activity; retention_label: 33%" role="graphics-symbol" aria-roledescription="text mark" text-anchor="middle" transform="translate(62.5,67)" font-family="Mona Sans, DejaVu Sans, Arial, sans-serif" font-size="12px" font-weight="600" fill="#0f172a">33%</text><text aria-label="cohort: Native top 3; scenario_label: Balanced quality; retention_label: 100%" role="graphics-symbol" aria-roledescription="text mark" text-anchor="middle" transform="translate(62.5,109)" font-family="Mona Sans, DejaVu Sans, Arial, sans-serif" font-size="12px" font-weight="600" fill="white">100%</text><text aria-label="cohort: Native top 3; scenario_label: Balanced blended; retention_label: 67%" role="graphics-symbol" aria-roledescription="text mark" text-anchor="middle" transform="translate(62.5,151)" font-family="Mona Sans, DejaVu Sans, Arial, sans-serif" font-size="12px" font-weight="600" fill="white">67%</text><text aria-label="cohort: Native top 3; scenario_label: Quality-heavy blend; retention_label: 100%" role="graphics-symbol" aria-roledescription="text mark" text-anchor="middle" transform="translate(62.5,193)" font-family="Mona Sans, DejaVu Sans, Arial, sans-serif" font-size="12px" font-weight="600" fill="white">100%</text><text aria-label="cohort: Native top 5; scenario_label: Balanced query; retention_label: 20%" role="graphics-symbol" aria-roledescription="text mark" text-anchor="middle" transform="translate(187.5,25)" font-family="Mona Sans, DejaVu Sans, Arial, sans-serif" font-size="12px" font-weight="600" fill="#0f172a">20%</text><text aria-label="cohort: Native top 5; scenario_label: Balanced activity; retention_label: 40%" role="graphics-symbol" aria-roledescription="text mark" text-anchor="middle" transform="translate(187.5,67)" font-family="Mona Sans, DejaVu Sans, Arial, sans-serif" font-size="12px" font-weight="600" fill="#0f172a">40%</text><text aria-label="cohort: Native top 5; scenario_label: Balanced quality; retention_label: 80%" role="graphics-symbol" aria-roledescription="text mark" text-anchor="middle" transform="translate(187.5,109)" font-family="Mona Sans, DejaVu Sans, Arial, sans-serif" font-size="12px" font-weight="600" fill="white">80%</text><text aria-label="cohort: Native top 5; scenario_label: Balanced blended; retention_label: 60%" role="graphics-symbol" aria-roledescription="text mark" text-anchor="middle" transform="translate(187.5,151)" font-family="Mona Sans, DejaVu Sans, Arial, sans-serif" font-size="12px" font-weight="600" fill="white">60%</text><text aria-label="cohort: Native top 5; scenario_label: Quality-heavy blend; retention_label: 80%" role="graphics-symbol" aria-roledescription="text mark" text-anchor="middle" transform="translate(187.5,193)" font-family="Mona Sans, DejaVu Sans, Arial, sans-serif" font-size="12px" font-weight="600" fill="white">80%</text></g></g><path class="foreground" aria-hidden="true" d="" display="none"/></g></g><g class="mark-group role-legend" role="graphics-symbol" aria-roledescription="legend" aria-label="Gradient legend titled 'Retention' for fill color with values from 0.0 to 1.0"><g transform="translate(0,-86)"><path class="background" aria-hidden="true" d="M0,0h212v56h-212Z" pointer-events="none"/><g><g class="mark-group role-legend-entry"><g transform="translate(6,22)"><path class="background" aria-hidden="true" d="M0,0h0v0h0Z" pointer-events="none"/><g><g class="mark-rect role-legend-gradient" pointer-events="none"><path d="M0,0h200v16h-200Z" fill="url(#gradient_0)" stroke="#ddd" stroke-width="0" opacity="1"/></g><g class="mark-text role-legend-label" pointer-events="none"><text text-anchor="start" transform="translate(0,26)" font-family="Mona Sans, DejaVu Sans, Arial, sans-serif" font-size="10px" fill="#475569" opacity="1">0.0</text><text text-anchor="middle" transform="translate(40,26)" font-family="Mona Sans, DejaVu Sans, Arial, sans-serif" font-size="10px" fill="#475569" opacity="1">0.2</text><text text-anchor="middle" transform="translate(80,26)" font-family="Mona Sans, DejaVu Sans, Arial, sans-serif" font-size="10px" fill="#475569" opacity="1">0.4</text><text text-anchor="middle" transform="translate(120,26)" font-family="Mona Sans, DejaVu Sans, Arial, sans-serif" font-size="10px" fill="#475569" opacity="1">0.6</text><text text-anchor="middle" transform="translate(160,26)" font-family="Mona Sans, DejaVu Sans, Arial, sans-serif" font-size="10px" fill="#475569" opacity="1">0.8</text><text text-anchor="end" transform="translate(200,26)" font-family="Mona Sans, DejaVu Sans, Arial, sans-serif" font-size="10px" fill="#475569" opacity="1">1.0</text></g></g><path class="foreground" aria-hidden="true" d="" pointer-events="none" display="none"/></g></g><g class="mark-text role-legend-title" pointer-events="none"><text text-anchor="start" transform="translate(6,15)" font-family="Mona Sans, DejaVu Sans, Arial, sans-serif" font-size="11px" font-weight="bold" fill="#475569" opacity="1">Retention</text></g></g><path class="foreground" aria-hidden="true" d="" pointer-events="none" display="none"/></g></g><g class="mark-group role-title"><g transform="translate(-128.9140625,-129)"><path class="background" aria-hidden="true" d="M0,0h0v0h0Z" pointer-events="none"/><g><g class="mark-text role-title-text" role="graphics-symbol" aria-roledescription="title" aria-label="Title text 'Baseline core retention'" pointer-events="none"><text text-anchor="start" transform="translate(8,13)" font-family="Monaspace Neon, Mona Sans, DejaVu Sans Mono, monospace" font-size="22px" font-weight="bold" fill="#0f172a" opacity="1">Baseline core retention</text></g><g class="mark-text role-title-subtitle" role="graphics-symbol" aria-roledescription="subtitle" aria-label="Subtitle text 'Quality retains the native core far better than query, which is why it is the default advanced recommendation.'" pointer-events="none"><text text-anchor="start" transform="translate(8,31)" font-family="Mona Sans, DejaVu Sans, Arial, sans-serif" font-size="13px" fill="#475569" opacity="1">Quality retains the native core far better than query, which is why it is the default advanced recommendation.</text></g></g><path class="foreground" aria-hidden="true" d="" pointer-events="none" display="none"/></g></g></g><path class="foreground" aria-hidden="true" d="" display="none"/></g></g></g><defs><linearGradient id="gradient_0" x1="0" x2="1" y1="0" y2="0"><stop offset="0" stop-color="rgb(239, 246, 255)"/><stop offset="0.05" stop-color="rgb(228, 239, 254)"/><stop offset="0.1" stop-color="rgb(217, 232, 254)"/><stop offset="0.15" stop-color="rgb(206, 225, 253)"/><stop offset="0.2" stop-color="rgb(195, 218, 253)"/><stop offset="0.25" stop-color="rgb(185, 211, 252)"/><stop offset="0.3" stop-color="rgb(174, 204, 252)"/><stop offset="0.35" stop-color="rgb(164, 197, 251)"/><stop offset="0.4" stop-color="rgb(154, 189, 251)"/><stop offset="0.45" stop-color="rgb(145, 182, 250)"/><stop offset="0.5" stop-color="rgb(135, 175, 249)"/><stop offset="0.55" stop-color="rgb(126, 167, 248)"/><stop offset="0.6" stop-color="rgb(116, 160, 247)"/><stop offset="0.65" stop-color="rgb(107, 152, 246)"/><stop offset="0.7" stop-color="rgb(98, 145, 245)"/><stop offset="0.75" stop-color="rgb(89, 137, 244)"/><stop offset="0.8" stop-color="rgb(79, 130, 242)"/><stop offset="0.85" stop-color="rgb(70, 122, 241)"/><stop offset="0.9" stop-color="rgb(60, 114, 239)"/><stop offset="0.95" stop-color="rgb(49, 107, 237)"/><stop offset="1" stop-color="rgb(37, 99, 235)"/></linearGradient></defs></svg>