<svg xmlns="http://www.w3.org/2000/svg" viewBox="0 0 1560 520" width="1560" height="520" role="img">
<rect x="0.0" y="0.0" width="1560.0" height="520.0" fill="#ffffff" />
<text x="40.0" y="44.0" font-family="Mona Sans, Inter, sans-serif" font-size="34" font-weight="800" fill="#0f172a" text-anchor="start">Benchmark latency profile</text><text x="40.0" y="72.0" font-family="Mona Sans, Inter, sans-serif" font-size="16" font-weight="400" fill="#334155" text-anchor="start">Native stays sub-second. Depth drives the biggest cost jump, and README enrichment adds another few seconds on top of balanced discover.</text><rect x="40.0" y="96.0" width="730.0" height="394.0" fill="#f8fafc" rx="24.0" stroke="#cbd5e1" stroke-width="1.0" /><text x="68.0" y="136.0" font-family="Mona Sans, Inter, sans-serif" font-size="26" font-weight="700" fill="#0f172a" text-anchor="start">api gateway</text><text x="68.0" y="164.0" font-family="Mona Sans, Inter, sans-serif" font-size="14" font-weight="400" fill="#475569" text-anchor="start">Latency ladder for representative scenarios</text><line x1="300.0" y1="192.0" x2="300.0" y2="460.0" stroke="#cbd5e1" stroke-width="1.0" opacity="0.550" /><text x="300.0" y="182.0" font-family="Mona Sans, Inter, sans-serif" font-size="12" font-weight="400" fill="#64748b" text-anchor="middle">0ms</text><line x1="396.3" y1="192.0" x2="396.3" y2="460.0" stroke="#cbd5e1" stroke-width="1.0" opacity="0.550" /><text x="396.3" y="182.0" font-family="Mona Sans, Inter, sans-serif" font-size="12" font-weight="400" fill="#64748b" text-anchor="middle">15s</text><line x1="492.6" y1="192.0" x2="492.6" y2="460.0" stroke="#cbd5e1" stroke-width="1.0" opacity="0.550" /><text x="492.6" y="182.0" font-family="Mona Sans, Inter, sans-serif" font-size="12" font-weight="400" fill="#64748b" text-anchor="middle">30s</text><line x1="588.9" y1="192.0" x2="588.9" y2="460.0" stroke="#cbd5e1" stroke-width="1.0" opacity="0.550" /><text x="588.9" y="182.0" font-family="Mona Sans, Inter, sans-serif" font-size="12" font-weight="400" fill="#64748b" text-anchor="middle">45s</text><line x1="685.2" y1="192.0" x2="685.2" y2="460.0" stroke="#cbd5e1" stroke-width="1.0" opacity="0.550" /><text x="685.2" y="182.0" font-family="Mona Sans, Inter, sans-serif" font-size="12" font-weight="400" fill="#64748b" text-anchor="middle">60s</text><text x="68.0" y="200.0" font-family="Mona Sans, Inter, sans-serif" font-size="14" font-weight="400" fill="#0f172a" text-anchor="start">native best-match</text><rect x="300.0" y="182.0" width="398.0" height="22.0" fill="#e2e8f0" rx="11.0" /><rect x="300.0" y="182.0" width="6.8" height="22.0" fill="#0f172a" rx="11.0" /><text x="744.0" y="200.0" font-family="Mona Sans, Inter, sans-serif" font-size="14" font-weight="400" fill="#0f172a" text-anchor="end">1s</text><text x="68.0" y="256.0" font-family="Mona Sans, Inter, sans-serif" font-size="14" font-weight="400" fill="#0f172a" text-anchor="start">discover quick native</text><rect x="300.0" y="238.0" width="398.0" height="22.0" fill="#e2e8f0" rx="11.0" /><rect x="300.0" y="238.0" width="124.6" height="22.0" fill="#2563eb" rx="11.0" /><text x="744.0" y="256.0" font-family="Mona Sans, Inter, sans-serif" font-size="14" font-weight="400" fill="#0f172a" text-anchor="end">19s</text><text x="68.0" y="312.0" font-family="Mona Sans, Inter, sans-serif" font-size="14" font-weight="400" fill="#0f172a" text-anchor="start">discover balanced native</text><rect x="300.0" y="294.0" width="398.0" height="22.0" fill="#e2e8f0" rx="11.0" /><rect x="300.0" y="294.0" width="200.2" height="22.0" fill="#0f766e" rx="11.0" /><text x="744.0" y="312.0" font-family="Mona Sans, Inter, sans-serif" font-size="14" font-weight="400" fill="#0f172a" text-anchor="end">31s</text><text x="68.0" y="368.0" font-family="Mona Sans, Inter, sans-serif" font-size="14" font-weight="400" fill="#0f172a" text-anchor="start">discover deep native</text><rect x="300.0" y="350.0" width="398.0" height="22.0" fill="#e2e8f0" rx="11.0" /><rect x="300.0" y="350.0" width="390.6" height="22.0" fill="#b45309" rx="11.0" /><text x="744.0" y="368.0" font-family="Mona Sans, Inter, sans-serif" font-size="14" font-weight="400" fill="#0f172a" text-anchor="end">60s</text><text x="68.0" y="424.0" font-family="Mona Sans, Inter, sans-serif" font-size="14" font-weight="400" fill="#0f172a" text-anchor="start">balanced query + README</text><rect x="300.0" y="406.0" width="398.0" height="22.0" fill="#e2e8f0" rx="11.0" /><rect x="300.0" y="406.0" width="222.4" height="22.0" fill="#dc2626" rx="11.0" /><text x="744.0" y="424.0" font-family="Mona Sans, Inter, sans-serif" font-size="14" font-weight="400" fill="#0f172a" text-anchor="end">34s</text><rect x="800.0" y="96.0" width="730.0" height="394.0" fill="#f8fafc" rx="24.0" stroke="#cbd5e1" stroke-width="1.0" /><text x="828.0" y="136.0" font-family="Mona Sans, Inter, sans-serif" font-size="26" font-weight="700" fill="#0f172a" text-anchor="start">terminal ui</text><text x="828.0" y="164.0" font-family="Mona Sans, Inter, sans-serif" font-size="14" font-weight="400" fill="#475569" text-anchor="start">Latency ladder for representative scenarios</text><line x1="1060.0" y1="192.0" x2="1060.0" y2="460.0" stroke="#cbd5e1" stroke-width="1.0" opacity="0.550" /><text x="1060.0" y="182.0" font-family="Mona Sans, Inter, sans-serif" font-size="12" font-weight="400" fill="#64748b" text-anchor="middle">0ms</text><line x1="1156.3" y1="192.0" x2="1156.3" y2="460.0" stroke="#cbd5e1" stroke-width="1.0" opacity="0.550" /><text x="1156.3" y="182.0" font-family="Mona Sans, Inter, sans-serif" font-size="12" font-weight="400" fill="#64748b" text-anchor="middle">15s</text><line x1="1252.6" y1="192.0" x2="1252.6" y2="460.0" stroke="#cbd5e1" stroke-width="1.0" opacity="0.550" /><text x="1252.6" y="182.0" font-family="Mona Sans, Inter, sans-serif" font-size="12" font-weight="400" fill="#64748b" text-anchor="middle">30s</text><line x1="1348.9" y1="192.0" x2="1348.9" y2="460.0" stroke="#cbd5e1" stroke-width="1.0" opacity="0.550" /><text x="1348.9" y="182.0" font-family="Mona Sans, Inter, sans-serif" font-size="12" font-weight="400" fill="#64748b" text-anchor="middle">45s</text><line x1="1445.2" y1="192.0" x2="1445.2" y2="460.0" stroke="#cbd5e1" stroke-width="1.0" opacity="0.550" /><text x="1445.2" y="182.0" font-family="Mona Sans, Inter, sans-serif" font-size="12" font-weight="400" fill="#64748b" text-anchor="middle">60s</text><text x="828.0" y="200.0" font-family="Mona Sans, Inter, sans-serif" font-size="14" font-weight="400" fill="#0f172a" text-anchor="start">native best-match</text><rect x="1060.0" y="182.0" width="398.0" height="22.0" fill="#e2e8f0" rx="11.0" /><rect x="1060.0" y="182.0" width="3.2" height="22.0" fill="#0f172a" rx="11.0" /><text x="1504.0" y="200.0" font-family="Mona Sans, Inter, sans-serif" font-size="14" font-weight="400" fill="#0f172a" text-anchor="end">495ms</text><text x="828.0" y="256.0" font-family="Mona Sans, Inter, sans-serif" font-size="14" font-weight="400" fill="#0f172a" text-anchor="start">discover quick native</text><rect x="1060.0" y="238.0" width="398.0" height="22.0" fill="#e2e8f0" rx="11.0" /><rect x="1060.0" y="238.0" width="104.0" height="22.0" fill="#2563eb" rx="11.0" /><text x="1504.0" y="256.0" font-family="Mona Sans, Inter, sans-serif" font-size="14" font-weight="400" fill="#0f172a" text-anchor="end">16s</text><text x="828.0" y="312.0" font-family="Mona Sans, Inter, sans-serif" font-size="14" font-weight="400" fill="#0f172a" text-anchor="start">discover balanced native</text><rect x="1060.0" y="294.0" width="398.0" height="22.0" fill="#e2e8f0" rx="11.0" /><rect x="1060.0" y="294.0" width="175.5" height="22.0" fill="#0f766e" rx="11.0" /><text x="1504.0" y="312.0" font-family="Mona Sans, Inter, sans-serif" font-size="14" font-weight="400" fill="#0f172a" text-anchor="end">27s</text><text x="828.0" y="368.0" font-family="Mona Sans, Inter, sans-serif" font-size="14" font-weight="400" fill="#0f172a" text-anchor="start">discover deep native</text><rect x="1060.0" y="350.0" width="398.0" height="22.0" fill="#e2e8f0" rx="11.0" /><rect x="1060.0" y="350.0" width="340.5" height="22.0" fill="#b45309" rx="11.0" /><text x="1504.0" y="368.0" font-family="Mona Sans, Inter, sans-serif" font-size="14" font-weight="400" fill="#0f172a" text-anchor="end">53s</text><text x="828.0" y="424.0" font-family="Mona Sans, Inter, sans-serif" font-size="14" font-weight="400" fill="#0f172a" text-anchor="start">balanced query + README</text><rect x="1060.0" y="406.0" width="398.0" height="22.0" fill="#e2e8f0" rx="11.0" /><rect x="1060.0" y="406.0" width="190.1" height="22.0" fill="#dc2626" rx="11.0" /><text x="1504.0" y="424.0" font-family="Mona Sans, Inter, sans-serif" font-size="14" font-weight="400" fill="#0f172a" text-anchor="end">29s</text>
</svg>
