<svg xmlns="http://www.w3.org/2000/svg" xmlns:xlink="http://www.w3.org/1999/xlink" version="1.1" class="marks" width="1004" height="300" viewBox="0 0 1004 300"><rect width="1004" height="300" fill="#f6f7fb"/><g fill="none" stroke-miterlimit="10" transform="translate(176,75)"><g class="mark-group role-frame root" role="graphics-object" aria-roledescription="group mark container"><g transform="translate(0,0)"><path class="background" aria-hidden="true" d="M0,0h0v0h0Z"/><g><g class="mark-group role-row-header row_header" role="graphics-object" aria-roledescription="group mark container"><g transform="translate(-1,0)"><path class="background" aria-hidden="true" d="M0,0h0v180h0Z"/><g><g class="mark-group role-axis" role="graphics-symbol" aria-roledescription="axis" aria-label="Y-axis for a discrete scale with 5 values: Native baseline, Quick native, Balanced native, Deep native, Balanced query + README"><g transform="translate(0.5,0.5)"><path class="background" aria-hidden="true" d="M0,0h0v0h0Z" pointer-events="none"/><g><g class="mark-rule role-axis-tick" pointer-events="none"><line transform="translate(0,17)" x2="-5" y2="0" stroke="#c7d2e0" stroke-width="1" opacity="1"/><line transform="translate(0,54)" x2="-5" y2="0" stroke="#c7d2e0" stroke-width="1" opacity="1"/><line transform="translate(0,90)" x2="-5" y2="0" stroke="#c7d2e0" stroke-width="1" opacity="1"/><line transform="translate(0,126)" x2="-5" y2="0" stroke="#c7d2e0" stroke-width="1" opacity="1"/><line transform="translate(0,162)" x2="-5" y2="0" stroke="#c7d2e0" stroke-width="1" opacity="1"/></g><g class="mark-text role-axis-label" pointer-events="none"><text text-anchor="end" transform="translate(-7,21.499999999999996)" font-family="Mona Sans, DejaVu Sans, Arial, sans-serif" font-size="12px" fill="#475569" opacity="1">Native baseline</text><text text-anchor="end" transform="translate(-7,57.5)" font-family="Mona Sans, DejaVu Sans, Arial, sans-serif" font-size="12px" fill="#475569" opacity="1">Quick native</text><text text-anchor="end" transform="translate(-7,93.5)" font-family="Mona Sans, DejaVu Sans, Arial, sans-serif" font-size="12px" fill="#475569" opacity="1">Balanced native</text><text text-anchor="end" transform="translate(-7,129.5)" font-family="Mona Sans, DejaVu Sans, Arial, sans-serif" font-size="12px" fill="#475569" opacity="1">Deep native</text><text text-anchor="end" transform="translate(-7,165.5)" font-family="Mona Sans, DejaVu Sans, Arial, sans-serif" font-size="12px" fill="#475569" opacity="1">Balanced query + README</text></g><g class="mark-rule role-axis-domain" pointer-events="none"><line transform="translate(0,0)" x2="0" y2="180" stroke="#c7d2e0" stroke-width="1" opacity="1"/></g></g><path class="foreground" aria-hidden="true" d="" pointer-events="none" display="none"/></g></g></g><path class="foreground" aria-hidden="true" d="" display="none"/></g></g><g class="mark-group role-column-header column_header" role="graphics-object" aria-roledescription="group mark container"><g transform="translate(0,-1)"><path class="background" aria-hidden="true" d="M0,0h390v0h-390Z"/><g><g class="mark-group role-title"><g transform="translate(195,-21)"><path class="background" aria-hidden="true" d="M0,0h0v0h0Z" pointer-events="none"/><g><g class="mark-text role-title-text" role="graphics-symbol" aria-roledescription="title" aria-label="Title text 'Api Gateway'" pointer-events="none"><text text-anchor="middle" transform="translate(0,10)" font-family="Mona Sans, DejaVu Sans, Arial, sans-serif" font-size="13px" fill="#475569" opacity="1">Api Gateway</text></g></g><path class="foreground" aria-hidden="true" d="" pointer-events="none" display="none"/></g></g></g><path class="foreground" aria-hidden="true" d="" display="none"/></g><g transform="translate(432,-1)"><path class="background" aria-hidden="true" d="M0,0h390v0h-390Z"/><g><g class="mark-group role-title"><g transform="translate(195,-21)"><path class="background" aria-hidden="true" d="M0,0h0v0h0Z" pointer-events="none"/><g><g class="mark-text role-title-text" role="graphics-symbol" aria-roledescription="title" aria-label="Title text 'Terminal Ui'" pointer-events="none"><text text-anchor="middle" transform="translate(0,10)" font-family="Mona Sans, DejaVu Sans, Arial, sans-serif" font-size="13px" fill="#475569" opacity="1">Terminal Ui</text></g></g><path class="foreground" aria-hidden="true" d="" pointer-events="none" display="none"/></g></g></g><path class="foreground" aria-hidden="true" d="" display="none"/></g></g><g class="mark-group role-column-footer column_footer" role="graphics-object" aria-roledescription="group mark container"><g transform="translate(0,181)"><path class="background" aria-hidden="true" d="M0,0h390v0h-390Z"/><g><g class="mark-group role-axis" role="graphics-symbol" aria-roledescription="axis" aria-label="X-axis titled 'Wall time (seconds)' for a linear scale with values from 0 to 65"><g transform="translate(0.5,0.5)"><path class="background" aria-hidden="true" d="M0,0h0v0h0Z" pointer-events="none"/><g><g class="mark-rule role-axis-tick" pointer-events="none"><line transform="translate(0,0)" x2="0" y2="5" stroke="#c7d2e0" stroke-width="1" opacity="1"/><line transform="translate(30,0)" x2="0" y2="5" stroke="#c7d2e0" stroke-width="1" opacity="1"/><line transform="translate(60,0)" x2="0" y2="5" stroke="#c7d2e0" stroke-width="1" opacity="1"/><line transform="translate(90,0)" x2="0" y2="5" stroke="#c7d2e0" stroke-width="1" opacity="1"/><line transform="translate(120,0)" x2="0" y2="5" stroke="#c7d2e0" stroke-width="1" opacity="1"/><line transform="translate(150,0)" x2="0" y2="5" stroke="#c7d2e0" stroke-width="1" opacity="1"/><line transform="translate(180,0)" x2="0" y2="5" stroke="#c7d2e0" stroke-width="1" opacity="1"/><line transform="translate(210,0)" x2="0" y2="5" stroke="#c7d2e0" stroke-width="1" opacity="1"/><line transform="translate(240,0)" x2="0" y2="5" stroke="#c7d2e0" stroke-width="1" opacity="1"/><line transform="translate(270,0)" x2="0" y2="5" stroke="#c7d2e0" stroke-width="1" opacity="1"/><line transform="translate(300,0)" x2="0" y2="5" stroke="#c7d2e0" stroke-width="1" opacity="1"/><line transform="translate(330,0)" x2="0" y2="5" stroke="#c7d2e0" stroke-width="1" opacity="1"/><line transform="translate(360,0)" x2="0" y2="5" stroke="#c7d2e0" stroke-width="1" opacity="1"/><line transform="translate(390,0)" x2="0" y2="5" stroke="#c7d2e0" stroke-width="1" opacity="1"/></g><g class="mark-text role-axis-label" pointer-events="none"><text text-anchor="start" transform="translate(0,16)" font-family="Mona Sans, DejaVu Sans, Arial, sans-serif" font-size="12px" fill="#475569" opacity="1">0</text><text text-anchor="middle" transform="translate(30,16)" font-family="Mona Sans, DejaVu Sans, Arial, sans-serif" font-size="12px" fill="#475569" opacity="1">5</text><text text-anchor="middle" transform="translate(60,16)" font-family="Mona Sans, DejaVu Sans, Arial, sans-serif" font-size="12px" fill="#475569" opacity="1">10</text><text text-anchor="middle" transform="translate(90,16)" font-family="Mona Sans, DejaVu Sans, Arial, sans-serif" font-size="12px" fill="#475569" opacity="1">15</text><text text-anchor="middle" transform="translate(120,16)" font-family="Mona Sans, DejaVu Sans, Arial, sans-serif" font-size="12px" fill="#475569" opacity="1">20</text><text text-anchor="middle" transform="translate(150,16)" font-family="Mona Sans, DejaVu Sans, Arial, sans-serif" font-size="12px" fill="#475569" opacity="1">25</text><text text-anchor="middle" transform="translate(180,16)" font-family="Mona Sans, DejaVu Sans, Arial, sans-serif" font-size="12px" fill="#475569" opacity="1">30</text><text text-anchor="middle" transform="translate(210,16)" font-family="Mona Sans, DejaVu Sans, Arial, sans-serif" font-size="12px" fill="#475569" opacity="1">35</text><text text-anchor="middle" transform="translate(240,16)" font-family="Mona Sans, DejaVu Sans, Arial, sans-serif" font-size="12px" fill="#475569" opacity="1">40</text><text text-anchor="middle" transform="translate(270,16)" font-family="Mona Sans, DejaVu Sans, Arial, sans-serif" font-size="12px" fill="#475569" opacity="1">45</text><text text-anchor="middle" transform="translate(300,16)" font-family="Mona Sans, DejaVu Sans, Arial, sans-serif" font-size="12px" fill="#475569" opacity="1">50</text><text text-anchor="middle" transform="translate(330,16)" font-family="Mona Sans, DejaVu Sans, Arial, sans-serif" font-size="12px" fill="#475569" opacity="1">55</text><text text-anchor="middle" transform="translate(360,16)" font-family="Mona Sans, DejaVu Sans, Arial, sans-serif" font-size="12px" fill="#475569" opacity="1">60</text><text text-anchor="end" transform="translate(390,16)" font-family="Mona Sans, DejaVu Sans, Arial, sans-serif" font-size="12px" fill="#475569" opacity="1">65</text></g><g class="mark-rule role-axis-domain" pointer-events="none"><line transform="translate(0,0)" x2="390" y2="0" stroke="#c7d2e0" stroke-width="1" opacity="1"/></g><g class="mark-text role-axis-title" pointer-events="none"><text text-anchor="middle" transform="translate(195,37)" font-family="Mona Sans, DejaVu Sans, Arial, sans-serif" font-size="12px" font-weight="bold" fill="#475569" opacity="1">Wall time (seconds)</text></g></g><path class="foreground" aria-hidden="true" d="" pointer-events="none" display="none"/></g></g></g><path class="foreground" aria-hidden="true" d="" display="none"/></g><g transform="translate(432,181)"><path class="background" aria-hidden="true" d="M0,0h390v0h-390Z"/><g><g class="mark-group role-axis" role="graphics-symbol" aria-roledescription="axis" aria-label="X-axis titled 'Wall time (seconds)' for a linear scale with values from 0 to 65"><g transform="translate(0.5,0.5)"><path class="background" aria-hidden="true" d="M0,0h0v0h0Z" pointer-events="none"/><g><g class="mark-rule role-axis-tick" pointer-events="none"><line transform="translate(0,0)" x2="0" y2="5" stroke="#c7d2e0" stroke-width="1" opacity="1"/><line transform="translate(30,0)" x2="0" y2="5" stroke="#c7d2e0" stroke-width="1" opacity="1"/><line transform="translate(60,0)" x2="0" y2="5" stroke="#c7d2e0" stroke-width="1" opacity="1"/><line transform="translate(90,0)" x2="0" y2="5" stroke="#c7d2e0" stroke-width="1" opacity="1"/><line transform="translate(120,0)" x2="0" y2="5" stroke="#c7d2e0" stroke-width="1" opacity="1"/><line transform="translate(150,0)" x2="0" y2="5" stroke="#c7d2e0" stroke-width="1" opacity="1"/><line transform="translate(180,0)" x2="0" y2="5" stroke="#c7d2e0" stroke-width="1" opacity="1"/><line transform="translate(210,0)" x2="0" y2="5" stroke="#c7d2e0" stroke-width="1" opacity="1"/><line transform="translate(240,0)" x2="0" y2="5" stroke="#c7d2e0" stroke-width="1" opacity="1"/><line transform="translate(270,0)" x2="0" y2="5" stroke="#c7d2e0" stroke-width="1" opacity="1"/><line transform="translate(300,0)" x2="0" y2="5" stroke="#c7d2e0" stroke-width="1" opacity="1"/><line transform="translate(330,0)" x2="0" y2="5" stroke="#c7d2e0" stroke-width="1" opacity="1"/><line transform="translate(360,0)" x2="0" y2="5" stroke="#c7d2e0" stroke-width="1" opacity="1"/><line transform="translate(390,0)" x2="0" y2="5" stroke="#c7d2e0" stroke-width="1" opacity="1"/></g><g class="mark-text role-axis-label" pointer-events="none"><text text-anchor="start" transform="translate(0,16)" font-family="Mona Sans, DejaVu Sans, Arial, sans-serif" font-size="12px" fill="#475569" opacity="1">0</text><text text-anchor="middle" transform="translate(30,16)" font-family="Mona Sans, DejaVu Sans, Arial, sans-serif" font-size="12px" fill="#475569" opacity="1">5</text><text text-anchor="middle" transform="translate(60,16)" font-family="Mona Sans, DejaVu Sans, Arial, sans-serif" font-size="12px" fill="#475569" opacity="1">10</text><text text-anchor="middle" transform="translate(90,16)" font-family="Mona Sans, DejaVu Sans, Arial, sans-serif" font-size="12px" fill="#475569" opacity="1">15</text><text text-anchor="middle" transform="translate(120,16)" font-family="Mona Sans, DejaVu Sans, Arial, sans-serif" font-size="12px" fill="#475569" opacity="1">20</text><text text-anchor="middle" transform="translate(150,16)" font-family="Mona Sans, DejaVu Sans, Arial, sans-serif" font-size="12px" fill="#475569" opacity="1">25</text><text text-anchor="middle" transform="translate(180,16)" font-family="Mona Sans, DejaVu Sans, Arial, sans-serif" font-size="12px" fill="#475569" opacity="1">30</text><text text-anchor="middle" transform="translate(210,16)" font-family="Mona Sans, DejaVu Sans, Arial, sans-serif" font-size="12px" fill="#475569" opacity="1">35</text><text text-anchor="middle" transform="translate(240,16)" font-family="Mona Sans, DejaVu Sans, Arial, sans-serif" font-size="12px" fill="#475569" opacity="1">40</text><text text-anchor="middle" transform="translate(270,16)" font-family="Mona Sans, DejaVu Sans, Arial, sans-serif" font-size="12px" fill="#475569" opacity="1">45</text><text text-anchor="middle" transform="translate(300,16)" font-family="Mona Sans, DejaVu Sans, Arial, sans-serif" font-size="12px" fill="#475569" opacity="1">50</text><text text-anchor="middle" transform="translate(330,16)" font-family="Mona Sans, DejaVu Sans, Arial, sans-serif" font-size="12px" fill="#475569" opacity="1">55</text><text text-anchor="middle" transform="translate(360,16)" font-family="Mona Sans, DejaVu Sans, Arial, sans-serif" font-size="12px" fill="#475569" opacity="1">60</text><text text-anchor="end" transform="translate(390,16)" font-family="Mona Sans, DejaVu Sans, Arial, sans-serif" font-size="12px" fill="#475569" opacity="1">65</text></g><g class="mark-rule role-axis-domain" pointer-events="none"><line transform="translate(0,0)" x2="390" y2="0" stroke="#c7d2e0" stroke-width="1" opacity="1"/></g><g class="mark-text role-axis-title" pointer-events="none"><text text-anchor="middle" transform="translate(195,37)" font-family="Mona Sans, DejaVu Sans, Arial, sans-serif" font-size="12px" font-weight="bold" fill="#475569" opacity="1">Wall time (seconds)</text></g></g><path class="foreground" aria-hidden="true" d="" pointer-events="none" display="none"/></g></g></g><path class="foreground" aria-hidden="true" d="" display="none"/></g></g><g class="mark-group role-scope cell" role="graphics-object" aria-roledescription="group mark container"><g transform="translate(0,0)"><path class="background" aria-hidden="true" d="M0.5,0.5h390v180h-390Z" stroke="#ddd"/><g><g class="mark-group role-axis" aria-hidden="true"><g transform="translate(0.5,180.5)"><path class="background" aria-hidden="true" d="M0,0h0v0h0Z" pointer-events="none"/><g><g class="mark-rule role-axis-grid" pointer-events="none"><line transform="translate(0,0)" x2="0" y2="-180" stroke="#d7dee8" stroke-opacity="0.75" stroke-width="1" opacity="1"/><line transform="translate(30,0)" x2="0" y2="-180" stroke="#d7dee8" stroke-opacity="0.75" stroke-width="1" opacity="1"/><line transform="translate(60,0)" x2="0" y2="-180" stroke="#d7dee8" stroke-opacity="0.75" stroke-width="1" opacity="1"/><line transform="translate(90,0)" x2="0" y2="-180" stroke="#d7dee8" stroke-opacity="0.75" stroke-width="1" opacity="1"/><line transform="translate(120,0)" x2="0" y2="-180" stroke="#d7dee8" stroke-opacity="0.75" stroke-width="1" opacity="1"/><line transform="translate(150,0)" x2="0" y2="-180" stroke="#d7dee8" stroke-opacity="0.75" stroke-width="1" opacity="1"/><line transform="translate(180,0)" x2="0" y2="-180" stroke="#d7dee8" stroke-opacity="0.75" stroke-width="1" opacity="1"/><line transform="translate(210,0)" x2="0" y2="-180" stroke="#d7dee8" stroke-opacity="0.75" stroke-width="1" opacity="1"/><line transform="translate(240,0)" x2="0" y2="-180" stroke="#d7dee8" stroke-opacity="0.75" stroke-width="1" opacity="1"/><line transform="translate(270,0)" x2="0" y2="-180" stroke="#d7dee8" stroke-opacity="0.75" stroke-width="1" opacity="1"/><line transform="translate(300,0)" x2="0" y2="-180" stroke="#d7dee8" stroke-opacity="0.75" stroke-width="1" opacity="1"/><line transform="translate(330,0)" x2="0" y2="-180" stroke="#d7dee8" stroke-opacity="0.75" stroke-width="1" opacity="1"/><line transform="translate(360,0)" x2="0" y2="-180" stroke="#d7dee8" stroke-opacity="0.75" stroke-width="1" opacity="1"/><line transform="translate(390,0)" x2="0" y2="-180" stroke="#d7dee8" stroke-opacity="0.75" stroke-width="1" opacity="1"/></g></g><path class="foreground" aria-hidden="true" d="" pointer-events="none" display="none"/></g></g><g class="mark-group role-scope" role="graphics-object" aria-roledescription="group mark container"><g transform="translate(0,3.9999999999999964)"><path class="background" aria-hidden="true" d="M0,0L3.1740000000000004,0C4.925778287743956,0,6.348000000000001,1.4222217122560443,6.348000000000001,3.1740000000000004L6.348000000000001,24.826C6.348000000000001,26.577778287743957,4.925778287743956,28,3.1740000000000004,28L0,28C0,28,0,28,0,28L0,0C0,0,0,0,0,0Z"/><g clip-path="url(#clip1)"><g class="mark-group role-scope" role="graphics-object" aria-roledescription="group mark container"><g transform="translate(0,0)"><path class="background" aria-hidden="true" d="M0,0h0v28h0Z"/><g><g class="mark-rect role-mark child_layer_0_marks" role="graphics-object" aria-roledescription="rect mark container"><path aria-label="Wall time (seconds): 1.058; scenario_label: Native baseline; scenario: native-best-match; Query: Api Gateway; Scenario: Native baseline; Duration (s): 1.06" role="graphics-symbol" aria-roledescription="bar" d="M0,0h6.348000000000001v28h-6.348000000000001Z" fill="#111827"/></g></g><path class="foreground" aria-hidden="true" d="" display="none"/></g></g></g><path class="foreground" aria-hidden="true" d="" display="none"/></g><g transform="translate(0,40)"><path class="background" aria-hidden="true" d="M0,0L108.442,0C112.857320195952,0,116.442,3.584679804048,116.442,8L116.442,20C116.442,24.415320195952,112.857320195952,28,108.442,28L0,28C0,28,0,28,0,28L0,0C0,0,0,0,0,0Z"/><g clip-path="url(#clip2)"><g class="mark-group role-scope" role="graphics-object" aria-roledescription="group mark container"><g transform="translate(0,0)"><path class="background" aria-hidden="true" d="M0,0h0v28h0Z"/><g><g class="mark-rect role-mark child_layer_0_marks" role="graphics-object" aria-roledescription="rect mark container"><path aria-label="Wall time (seconds): 19.407; scenario_label: Quick native; scenario: discover-quick-native; Query: Api Gateway; Scenario: Quick native; Duration (s): 19.41" role="graphics-symbol" aria-roledescription="bar" d="M0,0h116.442v28h-116.442Z" fill="#2563eb"/></g></g><path class="foreground" aria-hidden="true" d="" display="none"/></g></g></g><path class="foreground" aria-hidden="true" d="" display="none"/></g><g transform="translate(0,76)"><path class="background" aria-hidden="true" d="M0,0L179.086,0C183.50132019595202,0,187.086,3.584679804048,187.086,8L187.086,20C187.086,24.415320195952,183.50132019595202,28,179.086,28L0,28C0,28,0,28,0,28L0,0C0,0,0,0,0,0Z"/><g clip-path="url(#clip3)"><g class="mark-group role-scope" role="graphics-object" aria-roledescription="group mark container"><g transform="translate(0,0)"><path class="background" aria-hidden="true" d="M0,0h0v28h0Z"/><g><g class="mark-rect role-mark child_layer_0_marks" role="graphics-object" aria-roledescription="rect mark container"><path aria-label="Wall time (seconds): 31.181; scenario_label: Balanced native; scenario: discover-balanced-native; Query: Api Gateway; Scenario: Balanced native; Duration (s): 31.18" role="graphics-symbol" aria-roledescription="bar" d="M0,0h187.086v28h-187.086Z" fill="#0f766e"/></g></g><path class="foreground" aria-hidden="true" d="" display="none"/></g></g></g><path class="foreground" aria-hidden="true" d="" display="none"/></g><g transform="translate(0,112)"><path class="background" aria-hidden="true" d="M0,0L357.064,0C361.479320195952,0,365.064,3.584679804048,365.064,8L365.064,20C365.064,24.415320195952,361.479320195952,28,357.064,28L0,28C0,28,0,28,0,28L0,0C0,0,0,0,0,0Z"/><g clip-path="url(#clip4)"><g class="mark-group role-scope" role="graphics-object" aria-roledescription="group mark container"><g transform="translate(0,0)"><path class="background" aria-hidden="true" d="M0,0h0v28h0Z"/><g><g class="mark-rect role-mark child_layer_0_marks" role="graphics-object" aria-roledescription="rect mark container"><path aria-label="Wall time (seconds): 60.844; scenario_label: Deep native; scenario: discover-deep-native; Query: Api Gateway; Scenario: Deep native; Duration (s): 60.84" role="graphics-symbol" aria-roledescription="bar" d="M0,0h365.064v28h-365.064Z" fill="#c2410c"/></g></g><path class="foreground" aria-hidden="true" d="" display="none"/></g></g></g><path class="foreground" aria-hidden="true" d="" display="none"/></g><g transform="translate(0,148)"><path class="background" aria-hidden="true" d="M0,0L199.864,0C204.279320195952,0,207.864,3.584679804048,207.864,8L207.864,20C207.864,24.415320195952,204.279320195952,28,199.864,28L0,28C0,28,0,28,0,28L0,0C0,0,0,0,0,0Z"/><g clip-path="url(#clip5)"><g class="mark-group role-scope" role="graphics-object" aria-roledescription="group mark container"><g transform="translate(0,0)"><path class="background" aria-hidden="true" d="M0,0h0v28h0Z"/><g><g class="mark-rect role-mark child_layer_0_marks" role="graphics-object" aria-roledescription="rect mark container"><path aria-label="Wall time (seconds): 34.644; scenario_label: Balanced query + README; scenario: discover-balanced-query-readme; Query: Api Gateway; Scenario: Balanced query + README; Duration (s): 34.64" role="graphics-symbol" aria-roledescription="bar" d="M0,0h207.864v28h-207.864Z" fill="#dc2626"/></g></g><path class="foreground" aria-hidden="true" d="" display="none"/></g></g></g><path class="foreground" aria-hidden="true" d="" display="none"/></g></g><g class="mark-text role-mark child_layer_1_marks" role="graphics-object" aria-roledescription="text mark container"><text aria-label="duration_s: 1.058; scenario_label: Native baseline; value_label: 1.1s" role="graphics-symbol" aria-roledescription="text mark" text-anchor="start" transform="translate(14.348,21.999999999999996)" font-family="Mona Sans, DejaVu Sans, Arial, sans-serif" font-size="12px" font-weight="600" fill="#0f172a">1.1s</text><text aria-label="duration_s: 19.407; scenario_label: Quick native; value_label: 19.4s" role="graphics-symbol" aria-roledescription="text mark" text-anchor="start" transform="translate(124.442,58)" font-family="Mona Sans, DejaVu Sans, Arial, sans-serif" font-size="12px" font-weight="600" fill="#0f172a">19.4s</text><text aria-label="duration_s: 31.181; scenario_label: Balanced native; value_label: 31.2s" role="graphics-symbol" aria-roledescription="text mark" text-anchor="start" transform="translate(195.086,94)" font-family="Mona Sans, DejaVu Sans, Arial, sans-serif" font-size="12px" font-weight="600" fill="#0f172a">31.2s</text><text aria-label="duration_s: 60.844; scenario_label: Deep native; value_label: 60.8s" role="graphics-symbol" aria-roledescription="text mark" text-anchor="start" transform="translate(373.064,130)" font-family="Mona Sans, DejaVu Sans, Arial, sans-serif" font-size="12px" font-weight="600" fill="#0f172a">60.8s</text><text aria-label="duration_s: 34.644; scenario_label: Balanced query + README; value_label: 34.6s" role="graphics-symbol" aria-roledescription="text mark" text-anchor="start" transform="translate(215.864,166)" font-family="Mona Sans, DejaVu Sans, Arial, sans-serif" font-size="12px" font-weight="600" fill="#0f172a">34.6s</text></g></g><path class="foreground" aria-hidden="true" d="" display="none"/></g><g transform="translate(432,0)"><path class="background" aria-hidden="true" d="M0.5,0.5h390v180h-390Z" stroke="#ddd"/><g><g class="mark-group role-axis" aria-hidden="true"><g transform="translate(0.5,180.5)"><path class="background" aria-hidden="true" d="M0,0h0v0h0Z" pointer-events="none"/><g><g class="mark-rule role-axis-grid" pointer-events="none"><line transform="translate(0,0)" x2="0" y2="-180" stroke="#d7dee8" stroke-opacity="0.75" stroke-width="1" opacity="1"/><line transform="translate(30,0)" x2="0" y2="-180" stroke="#d7dee8" stroke-opacity="0.75" stroke-width="1" opacity="1"/><line transform="translate(60,0)" x2="0" y2="-180" stroke="#d7dee8" stroke-opacity="0.75" stroke-width="1" opacity="1"/><line transform="translate(90,0)" x2="0" y2="-180" stroke="#d7dee8" stroke-opacity="0.75" stroke-width="1" opacity="1"/><line transform="translate(120,0)" x2="0" y2="-180" stroke="#d7dee8" stroke-opacity="0.75" stroke-width="1" opacity="1"/><line transform="translate(150,0)" x2="0" y2="-180" stroke="#d7dee8" stroke-opacity="0.75" stroke-width="1" opacity="1"/><line transform="translate(180,0)" x2="0" y2="-180" stroke="#d7dee8" stroke-opacity="0.75" stroke-width="1" opacity="1"/><line transform="translate(210,0)" x2="0" y2="-180" stroke="#d7dee8" stroke-opacity="0.75" stroke-width="1" opacity="1"/><line transform="translate(240,0)" x2="0" y2="-180" stroke="#d7dee8" stroke-opacity="0.75" stroke-width="1" opacity="1"/><line transform="translate(270,0)" x2="0" y2="-180" stroke="#d7dee8" stroke-opacity="0.75" stroke-width="1" opacity="1"/><line transform="translate(300,0)" x2="0" y2="-180" stroke="#d7dee8" stroke-opacity="0.75" stroke-width="1" opacity="1"/><line transform="translate(330,0)" x2="0" y2="-180" stroke="#d7dee8" stroke-opacity="0.75" stroke-width="1" opacity="1"/><line transform="translate(360,0)" x2="0" y2="-180" stroke="#d7dee8" stroke-opacity="0.75" stroke-width="1" opacity="1"/><line transform="translate(390,0)" x2="0" y2="-180" stroke="#d7dee8" stroke-opacity="0.75" stroke-width="1" opacity="1"/></g></g><path class="foreground" aria-hidden="true" d="" pointer-events="none" display="none"/></g></g><g class="mark-group role-scope" role="graphics-object" aria-roledescription="group mark container"><g transform="translate(0,3.9999999999999964)"><path class="background" aria-hidden="true" d="M0,0L1.4849999999999999,0C2.3045938113735898,0,2.9699999999999998,0.66540618862641,2.9699999999999998,1.4849999999999999L2.9699999999999998,26.515C2.9699999999999998,27.33459381137359,2.3045938113735898,28,1.4849999999999999,28L0,28C0,28,0,28,0,28L0,0C0,0,0,0,0,0Z"/><g clip-path="url(#clip6)"><g class="mark-group role-scope" role="graphics-object" aria-roledescription="group mark container"><g transform="translate(0,0)"><path class="background" aria-hidden="true" d="M0,0h0v28h0Z"/><g><g class="mark-rect role-mark child_layer_0_marks" role="graphics-object" aria-roledescription="rect mark container"><path aria-label="Wall time (seconds): 0.495; scenario_label: Native baseline; scenario: native-best-match; Query: Terminal Ui; Scenario: Native baseline; Duration (s): 0.49" role="graphics-symbol" aria-roledescription="bar" d="M0,0h2.9699999999999998v28h-2.9699999999999998Z" fill="#111827"/></g></g><path class="foreground" aria-hidden="true" d="" display="none"/></g></g></g><path class="foreground" aria-hidden="true" d="" display="none"/></g><g transform="translate(0,40)"><path class="background" aria-hidden="true" d="M0,0L89.176,0C93.59132019595201,0,97.176,3.584679804048,97.176,8L97.176,20C97.176,24.415320195952,93.59132019595201,28,89.176,28L0,28C0,28,0,28,0,28L0,0C0,0,0,0,0,0Z"/><g clip-path="url(#clip7)"><g class="mark-group role-scope" role="graphics-object" aria-roledescription="group mark container"><g transform="translate(0,0)"><path class="background" aria-hidden="true" d="M0,0h0v28h0Z"/><g><g class="mark-rect role-mark child_layer_0_marks" role="graphics-object" aria-roledescription="rect mark container"><path aria-label="Wall time (seconds): 16.196; scenario_label: Quick native; scenario: discover-quick-native; Query: Terminal Ui; Scenario: Quick native; Duration (s): 16.20" role="graphics-symbol" aria-roledescription="bar" d="M0,0h97.176v28h-97.176Z" fill="#2563eb"/></g></g><path class="foreground" aria-hidden="true" d="" display="none"/></g></g></g><path class="foreground" aria-hidden="true" d="" display="none"/></g><g transform="translate(0,76)"><path class="background" aria-hidden="true" d="M0,0L156.052,0C160.467320195952,0,164.052,3.584679804048,164.052,8L164.052,20C164.052,24.415320195952,160.467320195952,28,156.052,28L0,28C0,28,0,28,0,28L0,0C0,0,0,0,0,0Z"/><g clip-path="url(#clip8)"><g class="mark-group role-scope" role="graphics-object" aria-roledescription="group mark container"><g transform="translate(0,0)"><path class="background" aria-hidden="true" d="M0,0h0v28h0Z"/><g><g class="mark-rect role-mark child_layer_0_marks" role="graphics-object" aria-roledescription="rect mark container"><path aria-label="Wall time (seconds): 27.342; scenario_label: Balanced native; scenario: discover-balanced-native; Query: Terminal Ui; Scenario: Balanced native; Duration (s): 27.34" role="graphics-symbol" aria-roledescription="bar" d="M0,0h164.052v28h-164.052Z" fill="#0f766e"/></g></g><path class="foreground" aria-hidden="true" d="" display="none"/></g></g></g><path class="foreground" aria-hidden="true" d="" display="none"/></g><g transform="translate(0,112)"><path class="background" aria-hidden="true" d="M0,0L310.27000000000004,0C314.68532019595204,0,318.27000000000004,3.584679804048,318.27000000000004,8L318.27000000000004,20C318.27000000000004,24.415320195952,314.68532019595204,28,310.27000000000004,28L0,28C0,28,0,28,0,28L0,0C0,0,0,0,0,0Z"/><g clip-path="url(#clip9)"><g class="mark-group role-scope" role="graphics-object" aria-roledescription="group mark container"><g transform="translate(0,0)"><path class="background" aria-hidden="true" d="M0,0h0v28h0Z"/><g><g class="mark-rect role-mark child_layer_0_marks" role="graphics-object" aria-roledescription="rect mark container"><path aria-label="Wall time (seconds): 53.045; scenario_label: Deep native; scenario: discover-deep-native; Query: Terminal Ui; Scenario: Deep native; Duration (s): 53.05" role="graphics-symbol" aria-roledescription="bar" d="M0,0h318.27000000000004v28h-318.27000000000004Z" fill="#c2410c"/></g></g><path class="foreground" aria-hidden="true" d="" display="none"/></g></g></g><path class="foreground" aria-hidden="true" d="" display="none"/></g><g transform="translate(0,148)"><path class="background" aria-hidden="true" d="M0,0L169.672,0C174.087320195952,0,177.672,3.584679804048,177.672,8L177.672,20C177.672,24.415320195952,174.087320195952,28,169.672,28L0,28C0,28,0,28,0,28L0,0C0,0,0,0,0,0Z"/><g clip-path="url(#clip10)"><g class="mark-group role-scope" role="graphics-object" aria-roledescription="group mark container"><g transform="translate(0,0)"><path class="background" aria-hidden="true" d="M0,0h0v28h0Z"/><g><g class="mark-rect role-mark child_layer_0_marks" role="graphics-object" aria-roledescription="rect mark container"><path aria-label="Wall time (seconds): 29.612; scenario_label: Balanced query + README; scenario: discover-balanced-query-readme; Query: Terminal Ui; Scenario: Balanced query + README; Duration (s): 29.61" role="graphics-symbol" aria-roledescription="bar" d="M0,0h177.672v28h-177.672Z" fill="#dc2626"/></g></g><path class="foreground" aria-hidden="true" d="" display="none"/></g></g></g><path class="foreground" aria-hidden="true" d="" display="none"/></g></g><g class="mark-text role-mark child_layer_1_marks" role="graphics-object" aria-roledescription="text mark container"><text aria-label="duration_s: 0.495; scenario_label: Native baseline; value_label: 0.5s" role="graphics-symbol" aria-roledescription="text mark" text-anchor="start" transform="translate(10.969999999999999,21.999999999999996)" font-family="Mona Sans, DejaVu Sans, Arial, sans-serif" font-size="12px" font-weight="600" fill="#0f172a">0.5s</text><text aria-label="duration_s: 16.196; scenario_label: Quick native; value_label: 16.2s" role="graphics-symbol" aria-roledescription="text mark" text-anchor="start" transform="translate(105.176,58)" font-family="Mona Sans, DejaVu Sans, Arial, sans-serif" font-size="12px" font-weight="600" fill="#0f172a">16.2s</text><text aria-label="duration_s: 27.342; scenario_label: Balanced native; value_label: 27.3s" role="graphics-symbol" aria-roledescription="text mark" text-anchor="start" transform="translate(172.052,94)" font-family="Mona Sans, DejaVu Sans, Arial, sans-serif" font-size="12px" font-weight="600" fill="#0f172a">27.3s</text><text aria-label="duration_s: 53.045; scenario_label: Deep native; value_label: 53.0s" role="graphics-symbol" aria-roledescription="text mark" text-anchor="start" transform="translate(326.27000000000004,130)" font-family="Mona Sans, DejaVu Sans, Arial, sans-serif" font-size="12px" font-weight="600" fill="#0f172a">53.0s</text><text aria-label="duration_s: 29.612; scenario_label: Balanced query + README; value_label: 29.6s" role="graphics-symbol" aria-roledescription="text mark" text-anchor="start" transform="translate(185.672,166)" font-family="Mona Sans, DejaVu Sans, Arial, sans-serif" font-size="12px" font-weight="600" fill="#0f172a">29.6s</text></g></g><path class="foreground" aria-hidden="true" d="" display="none"/></g></g><g class="mark-group role-title"><g transform="translate(-170.919921875,-65)"><path class="background" aria-hidden="true" d="M0,0h0v0h0Z" pointer-events="none"/><g><g class="mark-text role-title-text" role="graphics-symbol" aria-roledescription="title" aria-label="Title text 'Latency profile'" pointer-events="none"><text text-anchor="start" transform="translate(8,13)" font-family="Monaspace Neon, Mona Sans, DejaVu Sans Mono, monospace" font-size="22px" font-weight="bold" fill="#0f172a" opacity="1">Latency profile</text></g><g class="mark-text role-title-subtitle" role="graphics-symbol" aria-roledescription="subtitle" aria-label="Subtitle text 'Native remains the only sub-second path. Balanced is the main analysis tier and deep roughly doubles that tax.'" pointer-events="none"><text text-anchor="start" transform="translate(8,31)" font-family="Mona Sans, DejaVu Sans, Arial, sans-serif" font-size="13px" fill="#475569" opacity="1">Native remains the only sub-second path. Balanced is the main analysis tier and deep roughly doubles that tax.</text></g></g><path class="foreground" aria-hidden="true" d="" pointer-events="none" display="none"/></g></g></g><path class="foreground" aria-hidden="true" d="" display="none"/></g></g></g><defs><clipPath id="clip1"><path d="M0,0L3.1740000000000004,0C4.925778287743956,0,6.348000000000001,1.4222217122560443,6.348000000000001,3.1740000000000004L6.348000000000001,24.826C6.348000000000001,26.577778287743957,4.925778287743956,28,3.1740000000000004,28L0,28C0,28,0,28,0,28L0,0C0,0,0,0,0,0Z"/></clipPath><clipPath id="clip2"><path d="M0,0L108.442,0C112.857320195952,0,116.442,3.584679804048,116.442,8L116.442,20C116.442,24.415320195952,112.857320195952,28,108.442,28L0,28C0,28,0,28,0,28L0,0C0,0,0,0,0,0Z"/></clipPath><clipPath id="clip3"><path d="M0,0L179.086,0C183.50132019595202,0,187.086,3.584679804048,187.086,8L187.086,20C187.086,24.415320195952,183.50132019595202,28,179.086,28L0,28C0,28,0,28,0,28L0,0C0,0,0,0,0,0Z"/></clipPath><clipPath id="clip4"><path d="M0,0L357.064,0C361.479320195952,0,365.064,3.584679804048,365.064,8L365.064,20C365.064,24.415320195952,361.479320195952,28,357.064,28L0,28C0,28,0,28,0,28L0,0C0,0,0,0,0,0Z"/></clipPath><clipPath id="clip5"><path d="M0,0L199.864,0C204.279320195952,0,207.864,3.584679804048,207.864,8L207.864,20C207.864,24.415320195952,204.279320195952,28,199.864,28L0,28C0,28,0,28,0,28L0,0C0,0,0,0,0,0Z"/></clipPath><clipPath id="clip6"><path d="M0,0L1.4849999999999999,0C2.3045938113735898,0,2.9699999999999998,0.66540618862641,2.9699999999999998,1.4849999999999999L2.9699999999999998,26.515C2.9699999999999998,27.33459381137359,2.3045938113735898,28,1.4849999999999999,28L0,28C0,28,0,28,0,28L0,0C0,0,0,0,0,0Z"/></clipPath><clipPath id="clip7"><path d="M0,0L89.176,0C93.59132019595201,0,97.176,3.584679804048,97.176,8L97.176,20C97.176,24.415320195952,93.59132019595201,28,89.176,28L0,28C0,28,0,28,0,28L0,0C0,0,0,0,0,0Z"/></clipPath><clipPath id="clip8"><path d="M0,0L156.052,0C160.467320195952,0,164.052,3.584679804048,164.052,8L164.052,20C164.052,24.415320195952,160.467320195952,28,156.052,28L0,28C0,28,0,28,0,28L0,0C0,0,0,0,0,0Z"/></clipPath><clipPath id="clip9"><path d="M0,0L310.27000000000004,0C314.68532019595204,0,318.27000000000004,3.584679804048,318.27000000000004,8L318.27000000000004,20C318.27000000000004,24.415320195952,314.68532019595204,28,310.27000000000004,28L0,28C0,28,0,28,0,28L0,0C0,0,0,0,0,0Z"/></clipPath><clipPath id="clip10"><path d="M0,0L169.672,0C174.087320195952,0,177.672,3.584679804048,177.672,8L177.672,20C177.672,24.415320195952,174.087320195952,28,169.672,28L0,28C0,28,0,28,0,28L0,0C0,0,0,0,0,0Z"/></clipPath></defs></svg>