<svg xmlns="http://www.w3.org/2000/svg" viewBox="0 0 1560 580" width="1560" height="580" role="img">
<rect x="0.0" y="0.0" width="1560.0" height="580.0" fill="#ffffff" />
<text x="40.0" y="44.0" font-family="Mona Sans, Inter, sans-serif" font-size="34" font-weight="800" fill="#0f172a" text-anchor="start">Most persistent repositories across the study</text><text x="40.0" y="72.0" font-family="Mona Sans, Inter, sans-serif" font-size="16" font-weight="400" fill="#334155" text-anchor="start">These repositories keep surfacing even as ranking strategy, depth, README enrichment, and filter slices change.</text><rect x="40.0" y="96.0" width="730.0" height="450.0" fill="#f8fafc" rx="24.0" stroke="#cbd5e1" stroke-width="1.0" /><text x="68.0" y="136.0" font-family="Mona Sans, Inter, sans-serif" font-size="26" font-weight="700" fill="#0f172a" text-anchor="start">api gateway</text><text x="68.0" y="164.0" font-family="Mona Sans, Inter, sans-serif" font-size="14" font-weight="400" fill="#475569" text-anchor="start">Repositories that persist across the most scenarios</text><line x1="300.0" y1="192.0" x2="300.0" y2="516.0" stroke="#cbd5e1" stroke-width="1.0" opacity="0.550" /><text x="300.0" y="182.0" font-family="Mona Sans, Inter, sans-serif" font-size="12" font-weight="400" fill="#64748b" text-anchor="middle">0</text><line x1="371.1" y1="192.0" x2="371.1" y2="516.0" stroke="#cbd5e1" stroke-width="1.0" opacity="0.550" /><text x="371.1" y="182.0" font-family="Mona Sans, Inter, sans-serif" font-size="12" font-weight="400" fill="#64748b" text-anchor="middle">5</text><line x1="442.1" y1="192.0" x2="442.1" y2="516.0" stroke="#cbd5e1" stroke-width="1.0" opacity="0.550" /><text x="442.1" y="182.0" font-family="Mona Sans, Inter, sans-serif" font-size="12" font-weight="400" fill="#64748b" text-anchor="middle">10</text><line x1="513.2" y1="192.0" x2="513.2" y2="516.0" stroke="#cbd5e1" stroke-width="1.0" opacity="0.550" /><text x="513.2" y="182.0" font-family="Mona Sans, Inter, sans-serif" font-size="12" font-weight="400" fill="#64748b" text-anchor="middle">15</text><line x1="584.3" y1="192.0" x2="584.3" y2="516.0" stroke="#cbd5e1" stroke-width="1.0" opacity="0.550" /><text x="584.3" y="182.0" font-family="Mona Sans, Inter, sans-serif" font-size="12" font-weight="400" fill="#64748b" text-anchor="middle">20</text><line x1="655.4" y1="192.0" x2="655.4" y2="516.0" stroke="#cbd5e1" stroke-width="1.0" opacity="0.550" /><text x="655.4" y="182.0" font-family="Mona Sans, Inter, sans-serif" font-size="12" font-weight="400" fill="#64748b" text-anchor="middle">25</text><text x="68.0" y="200.0" font-family="Mona Sans, Inter, sans-serif" font-size="14" font-weight="400" fill="#0f172a" text-anchor="start">apache/apisix</text><rect x="300.0" y="182.0" width="398.0" height="22.0" fill="#e2e8f0" rx="11.0" /><rect x="300.0" y="182.0" width="355.4" height="22.0" fill="#2563eb" rx="11.0" /><text x="744.0" y="200.0" font-family="Mona Sans, Inter, sans-serif" font-size="14" font-weight="400" fill="#0f172a" text-anchor="end">25</text><text x="68.0" y="256.0" font-family="Mona Sans, Inter, sans-serif" font-size="14" font-weight="400" fill="#0f172a" text-anchor="start">kgateway-dev/kgateway</text><rect x="300.0" y="238.0" width="398.0" height="22.0" fill="#e2e8f0" rx="11.0" /><rect x="300.0" y="238.0" width="298.5" height="22.0" fill="#2563eb" rx="11.0" /><text x="744.0" y="256.0" font-family="Mona Sans, Inter, sans-serif" font-size="14" font-weight="400" fill="#0f172a" text-anchor="end">21</text><text x="68.0" y="312.0" font-family="Mona Sans, Inter, sans-serif" font-size="14" font-weight="400" fill="#0f172a" text-anchor="start">kubernetes-sigs/gateway-api</text><rect x="300.0" y="294.0" width="398.0" height="22.0" fill="#e2e8f0" rx="11.0" /><rect x="300.0" y="294.0" width="284.3" height="22.0" fill="#2563eb" rx="11.0" /><text x="744.0" y="312.0" font-family="Mona Sans, Inter, sans-serif" font-size="14" font-weight="400" fill="#0f172a" text-anchor="end">20</text><text x="68.0" y="368.0" font-family="Mona Sans, Inter, sans-serif" font-size="14" font-weight="400" fill="#0f172a" text-anchor="start">spring-cloud/spring-cloud-gateway</text><rect x="300.0" y="350.0" width="398.0" height="22.0" fill="#e2e8f0" rx="11.0" /><rect x="300.0" y="350.0" width="270.1" height="22.0" fill="#0f766e" rx="11.0" /><text x="744.0" y="368.0" font-family="Mona Sans, Inter, sans-serif" font-size="14" font-weight="400" fill="#0f172a" text-anchor="end">19</text><text x="68.0" y="424.0" font-family="Mona Sans, Inter, sans-serif" font-size="14" font-weight="400" fill="#0f172a" text-anchor="start">alibaba/higress</text><rect x="300.0" y="406.0" width="398.0" height="22.0" fill="#e2e8f0" rx="11.0" /><rect x="300.0" y="406.0" width="227.4" height="22.0" fill="#0f766e" rx="11.0" /><text x="744.0" y="424.0" font-family="Mona Sans, Inter, sans-serif" font-size="14" font-weight="400" fill="#0f172a" text-anchor="end">16</text><text x="68.0" y="480.0" font-family="Mona Sans, Inter, sans-serif" font-size="14" font-weight="400" fill="#0f172a" text-anchor="start">QuantumNous/new-api</text><rect x="300.0" y="462.0" width="398.0" height="22.0" fill="#e2e8f0" rx="11.0" /><rect x="300.0" y="462.0" width="213.2" height="22.0" fill="#0f766e" rx="11.0" /><text x="744.0" y="480.0" font-family="Mona Sans, Inter, sans-serif" font-size="14" font-weight="400" fill="#0f172a" text-anchor="end">15</text><rect x="800.0" y="96.0" width="730.0" height="450.0" fill="#f8fafc" rx="24.0" stroke="#cbd5e1" stroke-width="1.0" /><text x="828.0" y="136.0" font-family="Mona Sans, Inter, sans-serif" font-size="26" font-weight="700" fill="#0f172a" text-anchor="start">terminal ui</text><text x="828.0" y="164.0" font-family="Mona Sans, Inter, sans-serif" font-size="14" font-weight="400" fill="#475569" text-anchor="start">Repositories that persist across the most scenarios</text><line x1="1060.0" y1="192.0" x2="1060.0" y2="516.0" stroke="#cbd5e1" stroke-width="1.0" opacity="0.550" /><text x="1060.0" y="182.0" font-family="Mona Sans, Inter, sans-serif" font-size="12" font-weight="400" fill="#64748b" text-anchor="middle">0</text><line x1="1131.1" y1="192.0" x2="1131.1" y2="516.0" stroke="#cbd5e1" stroke-width="1.0" opacity="0.550" /><text x="1131.1" y="182.0" font-family="Mona Sans, Inter, sans-serif" font-size="12" font-weight="400" fill="#64748b" text-anchor="middle">5</text><line x1="1202.1" y1="192.0" x2="1202.1" y2="516.0" stroke="#cbd5e1" stroke-width="1.0" opacity="0.550" /><text x="1202.1" y="182.0" font-family="Mona Sans, Inter, sans-serif" font-size="12" font-weight="400" fill="#64748b" text-anchor="middle">10</text><line x1="1273.2" y1="192.0" x2="1273.2" y2="516.0" stroke="#cbd5e1" stroke-width="1.0" opacity="0.550" /><text x="1273.2" y="182.0" font-family="Mona Sans, Inter, sans-serif" font-size="12" font-weight="400" fill="#64748b" text-anchor="middle">15</text><line x1="1344.3" y1="192.0" x2="1344.3" y2="516.0" stroke="#cbd5e1" stroke-width="1.0" opacity="0.550" /><text x="1344.3" y="182.0" font-family="Mona Sans, Inter, sans-serif" font-size="12" font-weight="400" fill="#64748b" text-anchor="middle">20</text><line x1="1415.4" y1="192.0" x2="1415.4" y2="516.0" stroke="#cbd5e1" stroke-width="1.0" opacity="0.550" /><text x="1415.4" y="182.0" font-family="Mona Sans, Inter, sans-serif" font-size="12" font-weight="400" fill="#64748b" text-anchor="middle">25</text><text x="828.0" y="200.0" font-family="Mona Sans, Inter, sans-serif" font-size="14" font-weight="400" fill="#0f172a" text-anchor="start">gitui-org/gitui</text><rect x="1060.0" y="182.0" width="398.0" height="22.0" fill="#e2e8f0" rx="11.0" /><rect x="1060.0" y="182.0" width="383.8" height="22.0" fill="#2563eb" rx="11.0" /><text x="1504.0" y="200.0" font-family="Mona Sans, Inter, sans-serif" font-size="14" font-weight="400" fill="#0f172a" text-anchor="end">27</text><text x="828.0" y="256.0" font-family="Mona Sans, Inter, sans-serif" font-size="14" font-weight="400" fill="#0f172a" text-anchor="start">gui-cs/Terminal.Gui</text><rect x="1060.0" y="238.0" width="398.0" height="22.0" fill="#e2e8f0" rx="11.0" /><rect x="1060.0" y="238.0" width="312.7" height="22.0" fill="#2563eb" rx="11.0" /><text x="1504.0" y="256.0" font-family="Mona Sans, Inter, sans-serif" font-size="14" font-weight="400" fill="#0f172a" text-anchor="end">22</text><text x="828.0" y="312.0" font-family="Mona Sans, Inter, sans-serif" font-size="14" font-weight="400" fill="#0f172a" text-anchor="start">jesseduffield/lazygit</text><rect x="1060.0" y="294.0" width="398.0" height="22.0" fill="#e2e8f0" rx="11.0" /><rect x="1060.0" y="294.0" width="284.3" height="22.0" fill="#2563eb" rx="11.0" /><text x="1504.0" y="312.0" font-family="Mona Sans, Inter, sans-serif" font-size="14" font-weight="400" fill="#0f172a" text-anchor="end">20</text><text x="828.0" y="368.0" font-family="Mona Sans, Inter, sans-serif" font-size="14" font-weight="400" fill="#0f172a" text-anchor="start">containers/podman-tui</text><rect x="1060.0" y="350.0" width="398.0" height="22.0" fill="#e2e8f0" rx="11.0" /><rect x="1060.0" y="350.0" width="255.9" height="22.0" fill="#0f766e" rx="11.0" /><text x="1504.0" y="368.0" font-family="Mona Sans, Inter, sans-serif" font-size="14" font-weight="400" fill="#0f172a" text-anchor="end">18</text><text x="828.0" y="424.0" font-family="Mona Sans, Inter, sans-serif" font-size="14" font-weight="400" fill="#0f172a" text-anchor="start">Gaurav-Gosain/tuios</text><rect x="1060.0" y="406.0" width="398.0" height="22.0" fill="#e2e8f0" rx="11.0" /><rect x="1060.0" y="406.0" width="213.2" height="22.0" fill="#0f766e" rx="11.0" /><text x="1504.0" y="424.0" font-family="Mona Sans, Inter, sans-serif" font-size="14" font-weight="400" fill="#0f172a" text-anchor="end">15</text><text x="828.0" y="480.0" font-family="Mona Sans, Inter, sans-serif" font-size="14" font-weight="400" fill="#0f172a" text-anchor="start">dlvhdr/gh-dash</text><rect x="1060.0" y="462.0" width="398.0" height="22.0" fill="#e2e8f0" rx="11.0" /><rect x="1060.0" y="462.0" width="199.0" height="22.0" fill="#0f766e" rx="11.0" /><text x="1504.0" y="480.0" font-family="Mona Sans, Inter, sans-serif" font-size="14" font-weight="400" fill="#0f172a" text-anchor="end">14</text>
</svg>
