<svg xmlns="http://www.w3.org/2000/svg" xmlns:xlink="http://www.w3.org/1999/xlink" version="1.1" class="marks" width="712" height="348" viewBox="0 0 712 348"><rect width="712" height="348" fill="#f6f7fb"/><g fill="none" stroke-miterlimit="10" transform="translate(44,75)"><g class="mark-group role-frame root" role="graphics-object" aria-roledescription="group mark container"><g transform="translate(0,0)"><path class="background" aria-hidden="true" d="M0,0h0v0h0Z"/><g><g class="mark-group role-row-header row_header" role="graphics-object" aria-roledescription="group mark container"><g transform="translate(-1,0)"><path class="background" aria-hidden="true" d="M0,0h0v210h0Z"/><g><g class="mark-group role-axis" role="graphics-symbol" aria-roledescription="axis" aria-label="Y-axis titled 'README overhead (seconds)' for a linear scale with values from 0 to 5"><g transform="translate(0.5,0.5)"><path class="background" aria-hidden="true" d="M0,0h0v0h0Z" pointer-events="none"/><g><g class="mark-rule role-axis-tick" pointer-events="none"><line transform="translate(0,210)" x2="-5" y2="0" stroke="#c7d2e0" stroke-width="1" opacity="1"/><line transform="translate(0,168)" x2="-5" y2="0" stroke="#c7d2e0" stroke-width="1" opacity="1"/><line transform="translate(0,126)" x2="-5" y2="0" stroke="#c7d2e0" stroke-width="1" opacity="1"/><line transform="translate(0,84)" x2="-5" y2="0" stroke="#c7d2e0" stroke-width="1" opacity="1"/><line transform="translate(0,42)" x2="-5" y2="0" stroke="#c7d2e0" stroke-width="1" opacity="1"/><line transform="translate(0,0)" x2="-5" y2="0" stroke="#c7d2e0" stroke-width="1" opacity="1"/></g><g class="mark-text role-axis-label" pointer-events="none"><text text-anchor="end" transform="translate(-7,214)" font-family="Mona Sans, DejaVu Sans, Arial, sans-serif" font-size="12px" fill="#475569" opacity="1">0</text><text text-anchor="end" transform="translate(-7,172)" font-family="Mona Sans, DejaVu Sans, Arial, sans-serif" font-size="12px" fill="#475569" opacity="1">1</text><text text-anchor="end" transform="translate(-7,130)" font-family="Mona Sans, DejaVu Sans, Arial, sans-serif" font-size="12px" fill="#475569" opacity="1">2</text><text text-anchor="end" transform="translate(-7,88)" font-family="Mona Sans, DejaVu Sans, Arial, sans-serif" font-size="12px" fill="#475569" opacity="1">3</text><text text-anchor="end" transform="translate(-7,45.99999999999999)" font-family="Mona Sans, DejaVu Sans, Arial, sans-serif" font-size="12px" fill="#475569" opacity="1">4</text><text text-anchor="end" transform="translate(-7,4)" font-family="Mona Sans, DejaVu Sans, Arial, sans-serif" font-size="12px" fill="#475569" opacity="1">5</text></g><g class="mark-rule role-axis-domain" pointer-events="none"><line transform="translate(0,210)" x2="0" y2="-210" stroke="#c7d2e0" stroke-width="1" opacity="1"/></g><g class="mark-text role-axis-title" pointer-events="none"><text text-anchor="middle" transform="translate(-24.634765625,105) rotate(-90) translate(0,-3)" font-family="Mona Sans, DejaVu Sans, Arial, sans-serif" font-size="12px" font-weight="bold" fill="#475569" opacity="1">README overhead (seconds)</text></g></g><path class="foreground" aria-hidden="true" d="" pointer-events="none" display="none"/></g></g></g><path class="foreground" aria-hidden="true" d="" display="none"/></g></g><g class="mark-group role-column-header column_header" role="graphics-object" aria-roledescription="group mark container"><g transform="translate(0,-1)"><path class="background" aria-hidden="true" d="M0,0h320v0h-320Z"/><g><g class="mark-group role-title"><g transform="translate(160,-21)"><path class="background" aria-hidden="true" d="M0,0h0v0h0Z" pointer-events="none"/><g><g class="mark-text role-title-text" role="graphics-symbol" aria-roledescription="title" aria-label="Title text 'Api Gateway'" pointer-events="none"><text text-anchor="middle" transform="translate(0,10)" font-family="Mona Sans, DejaVu Sans, Arial, sans-serif" font-size="13px" fill="#475569" opacity="1">Api Gateway</text></g></g><path class="foreground" aria-hidden="true" d="" pointer-events="none" display="none"/></g></g></g><path class="foreground" aria-hidden="true" d="" display="none"/></g><g transform="translate(342,-1)"><path class="background" aria-hidden="true" d="M0,0h320v0h-320Z"/><g><g class="mark-group role-title"><g transform="translate(160,-21)"><path class="background" aria-hidden="true" d="M0,0h0v0h0Z" pointer-events="none"/><g><g class="mark-text role-title-text" role="graphics-symbol" aria-roledescription="title" aria-label="Title text 'Terminal Ui'" pointer-events="none"><text text-anchor="middle" transform="translate(0,10)" font-family="Mona Sans, DejaVu Sans, Arial, sans-serif" font-size="13px" fill="#475569" opacity="1">Terminal Ui</text></g></g><path class="foreground" aria-hidden="true" d="" pointer-events="none" display="none"/></g></g></g><path class="foreground" aria-hidden="true" d="" display="none"/></g></g><g class="mark-group role-column-footer column_footer" role="graphics-object" aria-roledescription="group mark container"><g transform="translate(0,211)"><path class="background" aria-hidden="true" d="M0,0h320v0h-320Z"/><g><g class="mark-group role-axis" role="graphics-symbol" aria-roledescription="axis" aria-label="X-axis for a discrete scale with 3 values: Query, Quality, Blended"><g transform="translate(0.5,0.5)"><path class="background" aria-hidden="true" d="M0,0h0v0h0Z" pointer-events="none"/><g><g class="mark-rule role-axis-tick" pointer-events="none"><line transform="translate(53,0)" x2="0" y2="5" stroke="#c7d2e0" stroke-width="1" opacity="1"/><line transform="translate(160,0)" x2="0" y2="5" stroke="#c7d2e0" stroke-width="1" opacity="1"/><line transform="translate(266,0)" x2="0" y2="5" stroke="#c7d2e0" stroke-width="1" opacity="1"/></g><g class="mark-text role-axis-label" pointer-events="none"><text text-anchor="end" transform="translate(52.83333333333334,7) rotate(270) translate(0,4)" font-family="Mona Sans, DejaVu Sans, Arial, sans-serif" font-size="12px" fill="#475569" opacity="1">Query</text><text text-anchor="end" transform="translate(159.5,7) rotate(270) translate(0,4)" font-family="Mona Sans, DejaVu Sans, Arial, sans-serif" font-size="12px" fill="#475569" opacity="1">Quality</text><text text-anchor="end" transform="translate(266.1666666666667,7) rotate(270) translate(0,4)" font-family="Mona Sans, DejaVu Sans, Arial, sans-serif" font-size="12px" fill="#475569" opacity="1">Blended</text></g><g class="mark-rule role-axis-domain" pointer-events="none"><line transform="translate(0,0)" x2="320" y2="0" stroke="#c7d2e0" stroke-width="1" opacity="1"/></g></g><path class="foreground" aria-hidden="true" d="" pointer-events="none" display="none"/></g></g></g><path class="foreground" aria-hidden="true" d="" display="none"/></g><g transform="translate(342,211)"><path class="background" aria-hidden="true" d="M0,0h320v0h-320Z"/><g><g class="mark-group role-axis" role="graphics-symbol" aria-roledescription="axis" aria-label="X-axis for a discrete scale with 3 values: Query, Quality, Blended"><g transform="translate(0.5,0.5)"><path class="background" aria-hidden="true" d="M0,0h0v0h0Z" pointer-events="none"/><g><g class="mark-rule role-axis-tick" pointer-events="none"><line transform="translate(53,0)" x2="0" y2="5" stroke="#c7d2e0" stroke-width="1" opacity="1"/><line transform="translate(160,0)" x2="0" y2="5" stroke="#c7d2e0" stroke-width="1" opacity="1"/><line transform="translate(266,0)" x2="0" y2="5" stroke="#c7d2e0" stroke-width="1" opacity="1"/></g><g class="mark-text role-axis-label" pointer-events="none"><text text-anchor="end" transform="translate(52.83333333333334,7) rotate(270) translate(0,4)" font-family="Mona Sans, DejaVu Sans, Arial, sans-serif" font-size="12px" fill="#475569" opacity="1">Query</text><text text-anchor="end" transform="translate(159.5,7) rotate(270) translate(0,4)" font-family="Mona Sans, DejaVu Sans, Arial, sans-serif" font-size="12px" fill="#475569" opacity="1">Quality</text><text text-anchor="end" transform="translate(266.1666666666667,7) rotate(270) translate(0,4)" font-family="Mona Sans, DejaVu Sans, Arial, sans-serif" font-size="12px" fill="#475569" opacity="1">Blended</text></g><g class="mark-rule role-axis-domain" pointer-events="none"><line transform="translate(0,0)" x2="320" y2="0" stroke="#c7d2e0" stroke-width="1" opacity="1"/></g></g><path class="foreground" aria-hidden="true" d="" pointer-events="none" display="none"/></g></g></g><path class="foreground" aria-hidden="true" d="" display="none"/></g></g><g class="mark-group role-scope cell" role="graphics-object" aria-roledescription="group mark container"><g transform="translate(0,0)"><path class="background" aria-hidden="true" d="M0.5,0.5h320v210h-320Z" stroke="#ddd"/><g><g class="mark-group role-axis" aria-hidden="true"><g transform="translate(0.5,0.5)"><path class="background" aria-hidden="true" d="M0,0h0v0h0Z" pointer-events="none"/><g><g class="mark-rule role-axis-grid" pointer-events="none"><line transform="translate(0,210)" x2="320" y2="0" stroke="#d7dee8" stroke-opacity="0.75" stroke-width="1" opacity="1"/><line transform="translate(0,168)" x2="320" y2="0" stroke="#d7dee8" stroke-opacity="0.75" stroke-width="1" opacity="1"/><line transform="translate(0,126)" x2="320" y2="0" stroke="#d7dee8" stroke-opacity="0.75" stroke-width="1" opacity="1"/><line transform="translate(0,84)" x2="320" y2="0" stroke="#d7dee8" stroke-opacity="0.75" stroke-width="1" opacity="1"/><line transform="translate(0,42)" x2="320" y2="0" stroke="#d7dee8" stroke-opacity="0.75" stroke-width="1" opacity="1"/><line transform="translate(0,0)" x2="320" y2="0" stroke="#d7dee8" stroke-opacity="0.75" stroke-width="1" opacity="1"/></g></g><path class="foreground" aria-hidden="true" d="" pointer-events="none" display="none"/></g></g><g class="mark-group role-scope" role="graphics-object" aria-roledescription="group mark container"><g transform="translate(29.333333333333343,18.438)"><path class="background" aria-hidden="true" d="M8,0L40,0C44.415320195952,0,48,3.584679804048,48,8L48,191.562C48,191.562,48,191.562,48,191.562L0,191.562C0,191.562,0,191.562,0,191.562L0,8C0,3.584679804048,3.584679804048,0,8,0Z"/><g clip-path="url(#clip21)"><g class="mark-group role-scope" role="graphics-object" aria-roledescription="group mark container"><g transform="translate(0,-18.438)"><path class="background" aria-hidden="true" d="M0,0h48v0h-48Z"/><g><g class="mark-rect role-mark child_layer_0_marks" role="graphics-object" aria-roledescription="rect mark container"><path aria-label="rank_mode: Query; README overhead (seconds): 4.561; Query: Api Gateway; Base rank: Query; Added seconds: 4.56" role="graphics-symbol" aria-roledescription="bar" d="M0,18.438h48v191.562h-48Z" fill="#ea580c"/></g></g><path class="foreground" aria-hidden="true" d="" display="none"/></g></g></g><path class="foreground" aria-hidden="true" d="" display="none"/></g><g transform="translate(136,63.882000000000005)"><path class="background" aria-hidden="true" d="M8,0L40,0C44.415320195952,0,48,3.584679804048,48,8L48,146.118C48,146.118,48,146.118,48,146.118L0,146.118C0,146.118,0,146.118,0,146.118L0,8C0,3.584679804048,3.584679804048,0,8,0Z"/><g clip-path="url(#clip22)"><g class="mark-group role-scope" role="graphics-object" aria-roledescription="group mark container"><g transform="translate(0,-63.882000000000005)"><path class="background" aria-hidden="true" d="M0,0h48v0h-48Z"/><g><g class="mark-rect role-mark child_layer_0_marks" role="graphics-object" aria-roledescription="rect mark container"><path aria-label="rank_mode: Quality; README overhead (seconds): 3.479; Query: Api Gateway; Base rank: Quality; Added seconds: 3.48" role="graphics-symbol" aria-roledescription="bar" d="M0,63.882000000000005h48v146.118h-48Z" fill="#2563eb"/></g></g><path class="foreground" aria-hidden="true" d="" display="none"/></g></g></g><path class="foreground" aria-hidden="true" d="" display="none"/></g><g transform="translate(242.66666666666669,24.86399999999999)"><path class="background" aria-hidden="true" d="M8,0L40,0C44.415320195952,0,48,3.584679804048,48,8L48,185.13600000000002C48,185.13600000000002,48,185.13600000000002,48,185.13600000000002L0,185.13600000000002C0,185.13600000000002,0,185.13600000000002,0,185.13600000000002L0,8C0,3.584679804048,3.584679804048,0,8,0Z"/><g clip-path="url(#clip23)"><g class="mark-group role-scope" role="graphics-object" aria-roledescription="group mark container"><g transform="translate(0,-24.86399999999999)"><path class="background" aria-hidden="true" d="M0,0h48v0h-48Z"/><g><g class="mark-rect role-mark child_layer_0_marks" role="graphics-object" aria-roledescription="rect mark container"><path aria-label="rank_mode: Blended; README overhead (seconds): 4.408; Query: Api Gateway; Base rank: Blended; Added seconds: 4.41" role="graphics-symbol" aria-roledescription="bar" d="M0,24.86399999999999h48v185.13600000000002h-48Z" fill="#475569"/></g></g><path class="foreground" aria-hidden="true" d="" display="none"/></g></g></g><path class="foreground" aria-hidden="true" d="" display="none"/></g></g><g class="mark-text role-mark child_layer_1_marks" role="graphics-object" aria-roledescription="text mark container"><text aria-label="rank_mode: Query; added_s: 4.561; value_label: +4.6s" role="graphics-symbol" aria-roledescription="text mark" text-anchor="middle" transform="translate(53.33333333333334,12.437999999999999)" font-family="Mona Sans, DejaVu Sans, Arial, sans-serif" font-size="12px" font-weight="600" fill="#0f172a">+4.6s</text><text aria-label="rank_mode: Quality; added_s: 3.479; value_label: +3.5s" role="graphics-symbol" aria-roledescription="text mark" text-anchor="middle" transform="translate(160,57.882000000000005)" font-family="Mona Sans, DejaVu Sans, Arial, sans-serif" font-size="12px" font-weight="600" fill="#0f172a">+3.5s</text><text aria-label="rank_mode: Blended; added_s: 4.408; value_label: +4.4s" role="graphics-symbol" aria-roledescription="text mark" text-anchor="middle" transform="translate(266.6666666666667,18.86399999999999)" font-family="Mona Sans, DejaVu Sans, Arial, sans-serif" font-size="12px" font-weight="600" fill="#0f172a">+4.4s</text></g></g><path class="foreground" aria-hidden="true" d="" display="none"/></g><g transform="translate(342,0)"><path class="background" aria-hidden="true" d="M0.5,0.5h320v210h-320Z" stroke="#ddd"/><g><g class="mark-group role-axis" aria-hidden="true"><g transform="translate(0.5,0.5)"><path class="background" aria-hidden="true" d="M0,0h0v0h0Z" pointer-events="none"/><g><g class="mark-rule role-axis-grid" pointer-events="none"><line transform="translate(0,210)" x2="320" y2="0" stroke="#d7dee8" stroke-opacity="0.75" stroke-width="1" opacity="1"/><line transform="translate(0,168)" x2="320" y2="0" stroke="#d7dee8" stroke-opacity="0.75" stroke-width="1" opacity="1"/><line transform="translate(0,126)" x2="320" y2="0" stroke="#d7dee8" stroke-opacity="0.75" stroke-width="1" opacity="1"/><line transform="translate(0,84)" x2="320" y2="0" stroke="#d7dee8" stroke-opacity="0.75" stroke-width="1" opacity="1"/><line transform="translate(0,42)" x2="320" y2="0" stroke="#d7dee8" stroke-opacity="0.75" stroke-width="1" opacity="1"/><line transform="translate(0,0)" x2="320" y2="0" stroke="#d7dee8" stroke-opacity="0.75" stroke-width="1" opacity="1"/></g></g><path class="foreground" aria-hidden="true" d="" pointer-events="none" display="none"/></g></g><g class="mark-group role-scope" role="graphics-object" aria-roledescription="group mark container"><g transform="translate(29.333333333333343,87.06599999999999)"><path class="background" aria-hidden="true" d="M8,0L40,0C44.415320195952,0,48,3.584679804048,48,8L48,122.93400000000001C48,122.93400000000001,48,122.93400000000001,48,122.93400000000001L0,122.93400000000001C0,122.93400000000001,0,122.93400000000001,0,122.93400000000001L0,8C0,3.584679804048,3.584679804048,0,8,0Z"/><g clip-path="url(#clip24)"><g class="mark-group role-scope" role="graphics-object" aria-roledescription="group mark container"><g transform="translate(0,-87.06599999999999)"><path class="background" aria-hidden="true" d="M0,0h48v0h-48Z"/><g><g class="mark-rect role-mark child_layer_0_marks" role="graphics-object" aria-roledescription="rect mark container"><path aria-label="rank_mode: Query; README overhead (seconds): 2.927; Query: Terminal Ui; Base rank: Query; Added seconds: 2.93" role="graphics-symbol" aria-roledescription="bar" d="M0,87.06599999999999h48v122.93400000000001h-48Z" fill="#ea580c"/></g></g><path class="foreground" aria-hidden="true" d="" display="none"/></g></g></g><path class="foreground" aria-hidden="true" d="" display="none"/></g><g transform="translate(136,76.77599999999998)"><path class="background" aria-hidden="true" d="M8,0L40,0C44.415320195952,0,48,3.584679804048,48,8L48,133.22400000000002C48,133.22400000000002,48,133.22400000000002,48,133.22400000000002L0,133.22400000000002C0,133.22400000000002,0,133.22400000000002,0,133.22400000000002L0,8C0,3.584679804048,3.584679804048,0,8,0Z"/><g clip-path="url(#clip25)"><g class="mark-group role-scope" role="graphics-object" aria-roledescription="group mark container"><g transform="translate(0,-76.77599999999998)"><path class="background" aria-hidden="true" d="M0,0h48v0h-48Z"/><g><g class="mark-rect role-mark child_layer_0_marks" role="graphics-object" aria-roledescription="rect mark container"><path aria-label="rank_mode: Quality; README overhead (seconds): 3.172; Query: Terminal Ui; Base rank: Quality; Added seconds: 3.17" role="graphics-symbol" aria-roledescription="bar" d="M0,76.77599999999998h48v133.22400000000002h-48Z" fill="#2563eb"/></g></g><path class="foreground" aria-hidden="true" d="" display="none"/></g></g></g><path class="foreground" aria-hidden="true" d="" display="none"/></g><g transform="translate(242.66666666666669,48.173999999999985)"><path class="background" aria-hidden="true" d="M8,0L40,0C44.415320195952,0,48,3.584679804048,48,8L48,161.82600000000002C48,161.82600000000002,48,161.82600000000002,48,161.82600000000002L0,161.82600000000002C0,161.82600000000002,0,161.82600000000002,0,161.82600000000002L0,8C0,3.584679804048,3.584679804048,0,8,0Z"/><g clip-path="url(#clip26)"><g class="mark-group role-scope" role="graphics-object" aria-roledescription="group mark container"><g transform="translate(0,-48.173999999999985)"><path class="background" aria-hidden="true" d="M0,0h48v0h-48Z"/><g><g class="mark-rect role-mark child_layer_0_marks" role="graphics-object" aria-roledescription="rect mark container"><path aria-label="rank_mode: Blended; README overhead (seconds): 3.853; Query: Terminal Ui; Base rank: Blended; Added seconds: 3.85" role="graphics-symbol" aria-roledescription="bar" d="M0,48.173999999999985h48v161.82600000000002h-48Z" fill="#475569"/></g></g><path class="foreground" aria-hidden="true" d="" display="none"/></g></g></g><path class="foreground" aria-hidden="true" d="" display="none"/></g></g><g class="mark-text role-mark child_layer_1_marks" role="graphics-object" aria-roledescription="text mark container"><text aria-label="rank_mode: Query; added_s: 2.927; value_label: +2.9s" role="graphics-symbol" aria-roledescription="text mark" text-anchor="middle" transform="translate(53.33333333333334,81.06599999999999)" font-family="Mona Sans, DejaVu Sans, Arial, sans-serif" font-size="12px" font-weight="600" fill="#0f172a">+2.9s</text><text aria-label="rank_mode: Quality; added_s: 3.172; value_label: +3.2s" role="graphics-symbol" aria-roledescription="text mark" text-anchor="middle" transform="translate(160,70.77599999999998)" font-family="Mona Sans, DejaVu Sans, Arial, sans-serif" font-size="12px" font-weight="600" fill="#0f172a">+3.2s</text><text aria-label="rank_mode: Blended; added_s: 3.853; value_label: +3.9s" role="graphics-symbol" aria-roledescription="text mark" text-anchor="middle" transform="translate(266.6666666666667,42.173999999999985)" font-family="Mona Sans, DejaVu Sans, Arial, sans-serif" font-size="12px" font-weight="600" fill="#0f172a">+3.9s</text></g></g><path class="foreground" aria-hidden="true" d="" display="none"/></g></g><g class="mark-group role-title"><g transform="translate(-38.634765625,-65)"><path class="background" aria-hidden="true" d="M0,0h0v0h0Z" pointer-events="none"/><g><g class="mark-text role-title-text" role="graphics-symbol" aria-roledescription="title" aria-label="Title text 'README enrichment tax'" pointer-events="none"><text text-anchor="start" transform="translate(8,13)" font-family="Monaspace Neon, Mona Sans, DejaVu Sans Mono, monospace" font-size="22px" font-weight="bold" fill="#0f172a" opacity="1">README enrichment tax</text></g><g class="mark-text role-title-subtitle" role="graphics-symbol" aria-roledescription="subtitle" aria-label="Subtitle text 'README evidence costs another 3 to 5 seconds in this run and did not improve top-10 overlap.'" pointer-events="none"><text text-anchor="start" transform="translate(8,31)" font-family="Mona Sans, DejaVu Sans, Arial, sans-serif" font-size="13px" fill="#475569" opacity="1">README evidence costs another 3 to 5 seconds in this run and did not improve top-10 overlap.</text></g></g><path class="foreground" aria-hidden="true" d="" pointer-events="none" display="none"/></g></g></g><path class="foreground" aria-hidden="true" d="" display="none"/></g></g></g><defs><clipPath id="clip21"><path d="M8,0L40,0C44.415320195952,0,48,3.584679804048,48,8L48,191.562C48,191.562,48,191.562,48,191.562L0,191.562C0,191.562,0,191.562,0,191.562L0,8C0,3.584679804048,3.584679804048,0,8,0Z"/></clipPath><clipPath id="clip22"><path d="M8,0L40,0C44.415320195952,0,48,3.584679804048,48,8L48,146.118C48,146.118,48,146.118,48,146.118L0,146.118C0,146.118,0,146.118,0,146.118L0,8C0,3.584679804048,3.584679804048,0,8,0Z"/></clipPath><clipPath id="clip23"><path d="M8,0L40,0C44.415320195952,0,48,3.584679804048,48,8L48,185.13600000000002C48,185.13600000000002,48,185.13600000000002,48,185.13600000000002L0,185.13600000000002C0,185.13600000000002,0,185.13600000000002,0,185.13600000000002L0,8C0,3.584679804048,3.584679804048,0,8,0Z"/></clipPath><clipPath id="clip24"><path d="M8,0L40,0C44.415320195952,0,48,3.584679804048,48,8L48,122.93400000000001C48,122.93400000000001,48,122.93400000000001,48,122.93400000000001L0,122.93400000000001C0,122.93400000000001,0,122.93400000000001,0,122.93400000000001L0,8C0,3.584679804048,3.584679804048,0,8,0Z"/></clipPath><clipPath id="clip25"><path d="M8,0L40,0C44.415320195952,0,48,3.584679804048,48,8L48,133.22400000000002C48,133.22400000000002,48,133.22400000000002,48,133.22400000000002L0,133.22400000000002C0,133.22400000000002,0,133.22400000000002,0,133.22400000000002L0,8C0,3.584679804048,3.584679804048,0,8,0Z"/></clipPath><clipPath id="clip26"><path d="M8,0L40,0C44.415320195952,0,48,3.584679804048,48,8L48,161.82600000000002C48,161.82600000000002,48,161.82600000000002,48,161.82600000000002L0,161.82600000000002C0,161.82600000000002,0,161.82600000000002,0,161.82600000000002L0,8C0,3.584679804048,3.584679804048,0,8,0Z"/></clipPath></defs></svg>