<svg xmlns="http://www.w3.org/2000/svg" viewBox="0 0 1560 640" width="1560" height="640" role="img">
<rect x="0.0" y="0.0" width="1560.0" height="640.0" fill="#ffffff" />
<text x="40.0" y="44.0" font-family="Mona Sans, Inter, sans-serif" font-size="34" font-weight="800" fill="#0f172a" text-anchor="start">Balanced-mode surface attribution mix</text><text x="40.0" y="72.0" font-family="Mona Sans, Inter, sans-serif" font-size="16" font-weight="400" fill="#334155" text-anchor="start">These shares show what each ranking mode is actually leaning on inside the explain payload. Quality shifts weight away from repo names and toward richer descriptive evidence.</text><rect x="40.0" y="92.0" width="18.0" height="18.0" fill="#ea580c" rx="4.0" /><text x="68.0" y="106.0" font-family="Mona Sans, Inter, sans-serif" font-size="13" font-weight="400" fill="#334155" text-anchor="start">name</text><rect x="180.0" y="92.0" width="18.0" height="18.0" fill="#2563eb" rx="4.0" /><text x="208.0" y="106.0" font-family="Mona Sans, Inter, sans-serif" font-size="13" font-weight="400" fill="#334155" text-anchor="start">description</text><rect x="320.0" y="92.0" width="18.0" height="18.0" fill="#0f766e" rx="4.0" /><text x="348.0" y="106.0" font-family="Mona Sans, Inter, sans-serif" font-size="13" font-weight="400" fill="#334155" text-anchor="start">topics</text><rect x="460.0" y="92.0" width="18.0" height="18.0" fill="#64748b" rx="4.0" /><text x="488.0" y="106.0" font-family="Mona Sans, Inter, sans-serif" font-size="13" font-weight="400" fill="#334155" text-anchor="start">readme</text><rect x="40.0" y="140.0" width="730.0" height="470.0" fill="#f8fafc" rx="24.0" stroke="#cbd5e1" stroke-width="1.0" /><text x="68.0" y="180.0" font-family="Mona Sans, Inter, sans-serif" font-size="26" font-weight="700" fill="#0f172a" text-anchor="start">api gateway</text><text x="68.0" y="208.0" font-family="Mona Sans, Inter, sans-serif" font-size="14" font-weight="400" fill="#475569" text-anchor="start">Share of matched surfaces across the balanced focus set</text><line x1="240.0" y1="250.0" x2="240.0" y2="532.0" stroke="#cbd5e1" stroke-width="1.0" opacity="0.550" /><text x="240.0" y="242.0" font-family="Mona Sans, Inter, sans-serif" font-size="12" font-weight="400" fill="#64748b" text-anchor="middle">0%</text><line x1="357.5" y1="250.0" x2="357.5" y2="532.0" stroke="#cbd5e1" stroke-width="1.0" opacity="0.550" /><text x="357.5" y="242.0" font-family="Mona Sans, Inter, sans-serif" font-size="12" font-weight="400" fill="#64748b" text-anchor="middle">25%</text><line x1="475.0" y1="250.0" x2="475.0" y2="532.0" stroke="#cbd5e1" stroke-width="1.0" opacity="0.550" /><text x="475.0" y="242.0" font-family="Mona Sans, Inter, sans-serif" font-size="12" font-weight="400" fill="#64748b" text-anchor="middle">50%</text><line x1="592.5" y1="250.0" x2="592.5" y2="532.0" stroke="#cbd5e1" stroke-width="1.0" opacity="0.550" /><text x="592.5" y="242.0" font-family="Mona Sans, Inter, sans-serif" font-size="12" font-weight="400" fill="#64748b" text-anchor="middle">75%</text><line x1="710.0" y1="250.0" x2="710.0" y2="532.0" stroke="#cbd5e1" stroke-width="1.0" opacity="0.550" /><text x="710.0" y="242.0" font-family="Mona Sans, Inter, sans-serif" font-size="12" font-weight="400" fill="#64748b" text-anchor="middle">100%</text><text x="68.0" y="260.0" font-family="Mona Sans, Inter, sans-serif" font-size="14" font-weight="400" fill="#0f172a" text-anchor="start">query</text><rect x="240.0" y="242.0" width="470.0" height="24.0" fill="#e2e8f0" rx="12.0" /><rect x="240.0" y="242.0" width="156.7" height="24.0" fill="#ea580c" rx="12.0" /><rect x="396.7" y="242.0" width="156.7" height="24.0" fill="#2563eb" /><rect x="553.3" y="242.0" width="156.7" height="24.0" fill="#0f766e" /><text x="728.0" y="260.0" font-family="Mona Sans, Inter, sans-serif" font-size="13" font-weight="400" fill="#334155" text-anchor="start">3 surfaces</text><text x="68.0" y="318.0" font-family="Mona Sans, Inter, sans-serif" font-size="14" font-weight="400" fill="#0f172a" text-anchor="start">activity</text><rect x="240.0" y="300.0" width="470.0" height="24.0" fill="#e2e8f0" rx="12.0" /><rect x="240.0" y="300.0" width="156.7" height="24.0" fill="#ea580c" rx="12.0" /><rect x="396.7" y="300.0" width="174.1" height="24.0" fill="#2563eb" /><rect x="570.7" y="300.0" width="139.3" height="24.0" fill="#0f766e" /><text x="728.0" y="318.0" font-family="Mona Sans, Inter, sans-serif" font-size="13" font-weight="400" fill="#334155" text-anchor="start">3 surfaces</text><text x="68.0" y="376.0" font-family="Mona Sans, Inter, sans-serif" font-size="14" font-weight="400" fill="#0f172a" text-anchor="start">quality</text><rect x="240.0" y="358.0" width="470.0" height="24.0" fill="#e2e8f0" rx="12.0" /><rect x="240.0" y="358.0" width="78.3" height="24.0" fill="#ea580c" rx="12.0" /><rect x="318.3" y="358.0" width="195.8" height="24.0" fill="#2563eb" /><rect x="514.2" y="358.0" width="195.8" height="24.0" fill="#0f766e" /><text x="728.0" y="376.0" font-family="Mona Sans, Inter, sans-serif" font-size="13" font-weight="400" fill="#334155" text-anchor="start">3 surfaces</text><text x="68.0" y="434.0" font-family="Mona Sans, Inter, sans-serif" font-size="14" font-weight="400" fill="#0f172a" text-anchor="start">blended</text><rect x="240.0" y="416.0" width="470.0" height="24.0" fill="#e2e8f0" rx="12.0" /><rect x="240.0" y="416.0" width="162.1" height="24.0" fill="#ea580c" rx="12.0" /><rect x="402.1" y="416.0" width="162.1" height="24.0" fill="#2563eb" /><rect x="564.1" y="416.0" width="145.8" height="24.0" fill="#0f766e" /><text x="728.0" y="434.0" font-family="Mona Sans, Inter, sans-serif" font-size="13" font-weight="400" fill="#334155" text-anchor="start">3 surfaces</text><text x="68.0" y="492.0" font-family="Mona Sans, Inter, sans-serif" font-size="14" font-weight="400" fill="#0f172a" text-anchor="start">qual-heavy</text><rect x="240.0" y="474.0" width="470.0" height="24.0" fill="#e2e8f0" rx="12.0" /><rect x="240.0" y="474.0" width="108.5" height="24.0" fill="#ea580c" rx="12.0" /><rect x="348.5" y="474.0" width="180.8" height="24.0" fill="#2563eb" /><rect x="529.2" y="474.0" width="180.8" height="24.0" fill="#0f766e" /><text x="728.0" y="492.0" font-family="Mona Sans, Inter, sans-serif" font-size="13" font-weight="400" fill="#334155" text-anchor="start">3 surfaces</text><rect x="800.0" y="140.0" width="730.0" height="470.0" fill="#f8fafc" rx="24.0" stroke="#cbd5e1" stroke-width="1.0" /><text x="828.0" y="180.0" font-family="Mona Sans, Inter, sans-serif" font-size="26" font-weight="700" fill="#0f172a" text-anchor="start">terminal ui</text><text x="828.0" y="208.0" font-family="Mona Sans, Inter, sans-serif" font-size="14" font-weight="400" fill="#475569" text-anchor="start">Share of matched surfaces across the balanced focus set</text><line x1="1000.0" y1="250.0" x2="1000.0" y2="532.0" stroke="#cbd5e1" stroke-width="1.0" opacity="0.550" /><text x="1000.0" y="242.0" font-family="Mona Sans, Inter, sans-serif" font-size="12" font-weight="400" fill="#64748b" text-anchor="middle">0%</text><line x1="1117.5" y1="250.0" x2="1117.5" y2="532.0" stroke="#cbd5e1" stroke-width="1.0" opacity="0.550" /><text x="1117.5" y="242.0" font-family="Mona Sans, Inter, sans-serif" font-size="12" font-weight="400" fill="#64748b" text-anchor="middle">25%</text><line x1="1235.0" y1="250.0" x2="1235.0" y2="532.0" stroke="#cbd5e1" stroke-width="1.0" opacity="0.550" /><text x="1235.0" y="242.0" font-family="Mona Sans, Inter, sans-serif" font-size="12" font-weight="400" fill="#64748b" text-anchor="middle">50%</text><line x1="1352.5" y1="250.0" x2="1352.5" y2="532.0" stroke="#cbd5e1" stroke-width="1.0" opacity="0.550" /><text x="1352.5" y="242.0" font-family="Mona Sans, Inter, sans-serif" font-size="12" font-weight="400" fill="#64748b" text-anchor="middle">75%</text><line x1="1470.0" y1="250.0" x2="1470.0" y2="532.0" stroke="#cbd5e1" stroke-width="1.0" opacity="0.550" /><text x="1470.0" y="242.0" font-family="Mona Sans, Inter, sans-serif" font-size="12" font-weight="400" fill="#64748b" text-anchor="middle">100%</text><text x="828.0" y="260.0" font-family="Mona Sans, Inter, sans-serif" font-size="14" font-weight="400" fill="#0f172a" text-anchor="start">query</text><rect x="1000.0" y="242.0" width="470.0" height="24.0" fill="#e2e8f0" rx="12.0" /><rect x="1000.0" y="242.0" width="156.7" height="24.0" fill="#ea580c" rx="12.0" /><rect x="1156.7" y="242.0" width="156.7" height="24.0" fill="#2563eb" /><rect x="1313.3" y="242.0" width="156.7" height="24.0" fill="#0f766e" /><text x="1488.0" y="260.0" font-family="Mona Sans, Inter, sans-serif" font-size="13" font-weight="400" fill="#334155" text-anchor="start">3 surfaces</text><text x="828.0" y="318.0" font-family="Mona Sans, Inter, sans-serif" font-size="14" font-weight="400" fill="#0f172a" text-anchor="start">activity</text><rect x="1000.0" y="300.0" width="470.0" height="24.0" fill="#e2e8f0" rx="12.0" /><rect x="1000.0" y="300.0" width="122.6" height="24.0" fill="#ea580c" rx="12.0" /><rect x="1122.6" y="300.0" width="204.4" height="24.0" fill="#2563eb" /><rect x="1327.0" y="300.0" width="143.0" height="24.0" fill="#0f766e" /><text x="1488.0" y="318.0" font-family="Mona Sans, Inter, sans-serif" font-size="13" font-weight="400" fill="#334155" text-anchor="start">3 surfaces</text><text x="828.0" y="376.0" font-family="Mona Sans, Inter, sans-serif" font-size="14" font-weight="400" fill="#0f172a" text-anchor="start">quality</text><rect x="1000.0" y="358.0" width="470.0" height="24.0" fill="#e2e8f0" rx="12.0" /><rect x="1000.0" y="358.0" width="81.7" height="24.0" fill="#ea580c" rx="12.0" /><rect x="1081.7" y="358.0" width="204.4" height="24.0" fill="#2563eb" /><rect x="1286.1" y="358.0" width="183.9" height="24.0" fill="#0f766e" /><text x="1488.0" y="376.0" font-family="Mona Sans, Inter, sans-serif" font-size="13" font-weight="400" fill="#334155" text-anchor="start">3 surfaces</text><text x="828.0" y="434.0" font-family="Mona Sans, Inter, sans-serif" font-size="14" font-weight="400" fill="#0f172a" text-anchor="start">blended</text><rect x="1000.0" y="416.0" width="470.0" height="24.0" fill="#e2e8f0" rx="12.0" /><rect x="1000.0" y="416.0" width="134.3" height="24.0" fill="#ea580c" rx="12.0" /><rect x="1134.3" y="416.0" width="167.8" height="24.0" fill="#2563eb" /><rect x="1302.1" y="416.0" width="167.8" height="24.0" fill="#0f766e" /><text x="1488.0" y="434.0" font-family="Mona Sans, Inter, sans-serif" font-size="13" font-weight="400" fill="#334155" text-anchor="start">3 surfaces</text><text x="828.0" y="492.0" font-family="Mona Sans, Inter, sans-serif" font-size="14" font-weight="400" fill="#0f172a" text-anchor="start">qual-heavy</text><rect x="1000.0" y="474.0" width="470.0" height="24.0" fill="#e2e8f0" rx="12.0" /><rect x="1000.0" y="474.0" width="97.9" height="24.0" fill="#ea580c" rx="12.0" /><rect x="1097.9" y="474.0" width="195.8" height="24.0" fill="#2563eb" /><rect x="1293.8" y="474.0" width="176.2" height="24.0" fill="#0f766e" /><text x="1488.0" y="492.0" font-family="Mona Sans, Inter, sans-serif" font-size="13" font-weight="400" fill="#334155" text-anchor="start">3 surfaces</text>
</svg>
