<svg xmlns="http://www.w3.org/2000/svg" xmlns:xlink="http://www.w3.org/1999/xlink" version="1.1" class="marks" width="942" height="362" viewBox="0 0 942 362"><rect width="942" height="362" fill="#f6f7fb"/><g fill="none" stroke-miterlimit="10" transform="translate(134,107)"><g class="mark-group role-frame root" role="graphics-object" aria-roledescription="group mark container"><g transform="translate(0,0)"><path class="background" aria-hidden="true" d="M0,0h0v0h0Z"/><g><g class="mark-group role-row-header row_header" role="graphics-object" aria-roledescription="group mark container"><g transform="translate(-1,0)"><path class="background" aria-hidden="true" d="M0,0h0v210h0Z"/><g><g class="mark-group role-axis" role="graphics-symbol" aria-roledescription="axis" aria-label="Y-axis for a discrete scale with 5 values: Balanced query, Balanced activity, Balanced quality, Balanced blended, Quality-heavy blend"><g transform="translate(0.5,0.5)"><path class="background" aria-hidden="true" d="M0,0h0v0h0Z" pointer-events="none"/><g><g class="mark-rule role-axis-tick" pointer-events="none"><line transform="translate(0,20)" x2="-5" y2="0" stroke="#c7d2e0" stroke-width="1" opacity="1"/><line transform="translate(0,63)" x2="-5" y2="0" stroke="#c7d2e0" stroke-width="1" opacity="1"/><line transform="translate(0,105)" x2="-5" y2="0" stroke="#c7d2e0" stroke-width="1" opacity="1"/><line transform="translate(0,147)" x2="-5" y2="0" stroke="#c7d2e0" stroke-width="1" opacity="1"/><line transform="translate(0,189)" x2="-5" y2="0" stroke="#c7d2e0" stroke-width="1" opacity="1"/></g><g class="mark-text role-axis-label" pointer-events="none"><text text-anchor="end" transform="translate(-7,24.499999999999996)" font-family="Mona Sans, DejaVu Sans, Arial, sans-serif" font-size="12px" fill="#475569" opacity="1">Balanced query</text><text text-anchor="end" transform="translate(-7,66.5)" font-family="Mona Sans, DejaVu Sans, Arial, sans-serif" font-size="12px" fill="#475569" opacity="1">Balanced activity</text><text text-anchor="end" transform="translate(-7,108.5)" font-family="Mona Sans, DejaVu Sans, Arial, sans-serif" font-size="12px" fill="#475569" opacity="1">Balanced quality</text><text text-anchor="end" transform="translate(-7,150.5)" font-family="Mona Sans, DejaVu Sans, Arial, sans-serif" font-size="12px" fill="#475569" opacity="1">Balanced blended</text><text text-anchor="end" transform="translate(-7,192.5)" font-family="Mona Sans, DejaVu Sans, Arial, sans-serif" font-size="12px" fill="#475569" opacity="1">Quality-heavy blend</text></g><g class="mark-rule role-axis-domain" pointer-events="none"><line transform="translate(0,0)" x2="0" y2="210" stroke="#c7d2e0" stroke-width="1" opacity="1"/></g></g><path class="foreground" aria-hidden="true" d="" pointer-events="none" display="none"/></g></g></g><path class="foreground" aria-hidden="true" d="" display="none"/></g></g><g class="mark-group role-column-header column_header" role="graphics-object" aria-roledescription="group mark container"><g transform="translate(0,-1)"><path class="background" aria-hidden="true" d="M0,0h390v0h-390Z"/><g><g class="mark-group role-title"><g transform="translate(195,-21)"><path class="background" aria-hidden="true" d="M0,0h0v0h0Z" pointer-events="none"/><g><g class="mark-text role-title-text" role="graphics-symbol" aria-roledescription="title" aria-label="Title text 'Api Gateway'" pointer-events="none"><text text-anchor="middle" transform="translate(0,10)" font-family="Mona Sans, DejaVu Sans, Arial, sans-serif" font-size="13px" fill="#475569" opacity="1">Api Gateway</text></g></g><path class="foreground" aria-hidden="true" d="" pointer-events="none" display="none"/></g></g></g><path class="foreground" aria-hidden="true" d="" display="none"/></g><g transform="translate(412,-1)"><path class="background" aria-hidden="true" d="M0,0h390v0h-390Z"/><g><g class="mark-group role-title"><g transform="translate(195,-21)"><path class="background" aria-hidden="true" d="M0,0h0v0h0Z" pointer-events="none"/><g><g class="mark-text role-title-text" role="graphics-symbol" aria-roledescription="title" aria-label="Title text 'Terminal Ui'" pointer-events="none"><text text-anchor="middle" transform="translate(0,10)" font-family="Mona Sans, DejaVu Sans, Arial, sans-serif" font-size="13px" fill="#475569" opacity="1">Terminal Ui</text></g></g><path class="foreground" aria-hidden="true" d="" pointer-events="none" display="none"/></g></g></g><path class="foreground" aria-hidden="true" d="" display="none"/></g></g><g class="mark-group role-column-footer column_footer" role="graphics-object" aria-roledescription="group mark container"><g transform="translate(0,211)"><path class="background" aria-hidden="true" d="M0,0h390v0h-390Z"/><g><g class="mark-group role-axis" role="graphics-symbol" aria-roledescription="axis" aria-label="X-axis titled 'Share of matched surfaces' for a linear scale with values from 0% to 100%"><g transform="translate(0.5,0.5)"><path class="background" aria-hidden="true" d="M0,0h0v0h0Z" pointer-events="none"/><g><g class="mark-rule role-axis-tick" pointer-events="none"><line transform="translate(0,0)" x2="0" y2="5" stroke="#c7d2e0" stroke-width="1" opacity="1"/><line transform="translate(39,0)" x2="0" y2="5" stroke="#c7d2e0" stroke-width="1" opacity="1"/><line transform="translate(78,0)" x2="0" y2="5" stroke="#c7d2e0" stroke-width="1" opacity="1"/><line transform="translate(117,0)" x2="0" y2="5" stroke="#c7d2e0" stroke-width="1" opacity="1"/><line transform="translate(156,0)" x2="0" y2="5" stroke="#c7d2e0" stroke-width="1" opacity="1"/><line transform="translate(195,0)" x2="0" y2="5" stroke="#c7d2e0" stroke-width="1" opacity="1"/><line transform="translate(234,0)" x2="0" y2="5" stroke="#c7d2e0" stroke-width="1" opacity="1"/><line transform="translate(273,0)" x2="0" y2="5" stroke="#c7d2e0" stroke-width="1" opacity="1"/><line transform="translate(312,0)" x2="0" y2="5" stroke="#c7d2e0" stroke-width="1" opacity="1"/><line transform="translate(351,0)" x2="0" y2="5" stroke="#c7d2e0" stroke-width="1" opacity="1"/><line transform="translate(390,0)" x2="0" y2="5" stroke="#c7d2e0" stroke-width="1" opacity="1"/></g><g class="mark-text role-axis-label" pointer-events="none"><text text-anchor="start" transform="translate(0,16)" font-family="Mona Sans, DejaVu Sans, Arial, sans-serif" font-size="12px" fill="#475569" opacity="1">0%</text><text text-anchor="middle" transform="translate(39,16)" font-family="Mona Sans, DejaVu Sans, Arial, sans-serif" font-size="12px" fill="#475569" opacity="0">10%</text><text text-anchor="middle" transform="translate(78,16)" font-family="Mona Sans, DejaVu Sans, Arial, sans-serif" font-size="12px" fill="#475569" opacity="1">20%</text><text text-anchor="middle" transform="translate(117,16)" font-family="Mona Sans, DejaVu Sans, Arial, sans-serif" font-size="12px" fill="#475569" opacity="0">30%</text><text text-anchor="middle" transform="translate(156,16)" font-family="Mona Sans, DejaVu Sans, Arial, sans-serif" font-size="12px" fill="#475569" opacity="1">40%</text><text text-anchor="middle" transform="translate(195,16)" font-family="Mona Sans, DejaVu Sans, Arial, sans-serif" font-size="12px" fill="#475569" opacity="0">50%</text><text text-anchor="middle" transform="translate(234,16)" font-family="Mona Sans, DejaVu Sans, Arial, sans-serif" font-size="12px" fill="#475569" opacity="1">60%</text><text text-anchor="middle" transform="translate(273,16)" font-family="Mona Sans, DejaVu Sans, Arial, sans-serif" font-size="12px" fill="#475569" opacity="0">70%</text><text text-anchor="middle" transform="translate(312,16)" font-family="Mona Sans, DejaVu Sans, Arial, sans-serif" font-size="12px" fill="#475569" opacity="1">80%</text><text text-anchor="middle" transform="translate(351,16)" font-family="Mona Sans, DejaVu Sans, Arial, sans-serif" font-size="12px" fill="#475569" opacity="0">90%</text><text text-anchor="end" transform="translate(390,16)" font-family="Mona Sans, DejaVu Sans, Arial, sans-serif" font-size="12px" fill="#475569" opacity="1">100%</text></g><g class="mark-rule role-axis-domain" pointer-events="none"><line transform="translate(0,0)" x2="390" y2="0" stroke="#c7d2e0" stroke-width="1" opacity="1"/></g><g class="mark-text role-axis-title" pointer-events="none"><text text-anchor="middle" transform="translate(195,37)" font-family="Mona Sans, DejaVu Sans, Arial, sans-serif" font-size="12px" font-weight="bold" fill="#475569" opacity="1">Share of matched surfaces</text></g></g><path class="foreground" aria-hidden="true" d="" pointer-events="none" display="none"/></g></g></g><path class="foreground" aria-hidden="true" d="" display="none"/></g><g transform="translate(412,211)"><path class="background" aria-hidden="true" d="M0,0h390v0h-390Z"/><g><g class="mark-group role-axis" role="graphics-symbol" aria-roledescription="axis" aria-label="X-axis titled 'Share of matched surfaces' for a linear scale with values from 0% to 100%"><g transform="translate(0.5,0.5)"><path class="background" aria-hidden="true" d="M0,0h0v0h0Z" pointer-events="none"/><g><g class="mark-rule role-axis-tick" pointer-events="none"><line transform="translate(0,0)" x2="0" y2="5" stroke="#c7d2e0" stroke-width="1" opacity="1"/><line transform="translate(39,0)" x2="0" y2="5" stroke="#c7d2e0" stroke-width="1" opacity="1"/><line transform="translate(78,0)" x2="0" y2="5" stroke="#c7d2e0" stroke-width="1" opacity="1"/><line transform="translate(117,0)" x2="0" y2="5" stroke="#c7d2e0" stroke-width="1" opacity="1"/><line transform="translate(156,0)" x2="0" y2="5" stroke="#c7d2e0" stroke-width="1" opacity="1"/><line transform="translate(195,0)" x2="0" y2="5" stroke="#c7d2e0" stroke-width="1" opacity="1"/><line transform="translate(234,0)" x2="0" y2="5" stroke="#c7d2e0" stroke-width="1" opacity="1"/><line transform="translate(273,0)" x2="0" y2="5" stroke="#c7d2e0" stroke-width="1" opacity="1"/><line transform="translate(312,0)" x2="0" y2="5" stroke="#c7d2e0" stroke-width="1" opacity="1"/><line transform="translate(351,0)" x2="0" y2="5" stroke="#c7d2e0" stroke-width="1" opacity="1"/><line transform="translate(390,0)" x2="0" y2="5" stroke="#c7d2e0" stroke-width="1" opacity="1"/></g><g class="mark-text role-axis-label" pointer-events="none"><text text-anchor="start" transform="translate(0,16)" font-family="Mona Sans, DejaVu Sans, Arial, sans-serif" font-size="12px" fill="#475569" opacity="1">0%</text><text text-anchor="middle" transform="translate(39,16)" font-family="Mona Sans, DejaVu Sans, Arial, sans-serif" font-size="12px" fill="#475569" opacity="0">10%</text><text text-anchor="middle" transform="translate(78,16)" font-family="Mona Sans, DejaVu Sans, Arial, sans-serif" font-size="12px" fill="#475569" opacity="1">20%</text><text text-anchor="middle" transform="translate(117,16)" font-family="Mona Sans, DejaVu Sans, Arial, sans-serif" font-size="12px" fill="#475569" opacity="0">30%</text><text text-anchor="middle" transform="translate(156,16)" font-family="Mona Sans, DejaVu Sans, Arial, sans-serif" font-size="12px" fill="#475569" opacity="1">40%</text><text text-anchor="middle" transform="translate(195,16)" font-family="Mona Sans, DejaVu Sans, Arial, sans-serif" font-size="12px" fill="#475569" opacity="0">50%</text><text text-anchor="middle" transform="translate(234,16)" font-family="Mona Sans, DejaVu Sans, Arial, sans-serif" font-size="12px" fill="#475569" opacity="1">60%</text><text text-anchor="middle" transform="translate(273,16)" font-family="Mona Sans, DejaVu Sans, Arial, sans-serif" font-size="12px" fill="#475569" opacity="0">70%</text><text text-anchor="middle" transform="translate(312,16)" font-family="Mona Sans, DejaVu Sans, Arial, sans-serif" font-size="12px" fill="#475569" opacity="1">80%</text><text text-anchor="middle" transform="translate(351,16)" font-family="Mona Sans, DejaVu Sans, Arial, sans-serif" font-size="12px" fill="#475569" opacity="0">90%</text><text text-anchor="end" transform="translate(390,16)" font-family="Mona Sans, DejaVu Sans, Arial, sans-serif" font-size="12px" fill="#475569" opacity="1">100%</text></g><g class="mark-rule role-axis-domain" pointer-events="none"><line transform="translate(0,0)" x2="390" y2="0" stroke="#c7d2e0" stroke-width="1" opacity="1"/></g><g class="mark-text role-axis-title" pointer-events="none"><text text-anchor="middle" transform="translate(195,37)" font-family="Mona Sans, DejaVu Sans, Arial, sans-serif" font-size="12px" font-weight="bold" fill="#475569" opacity="1">Share of matched surfaces</text></g></g><path class="foreground" aria-hidden="true" d="" pointer-events="none" display="none"/></g></g></g><path class="foreground" aria-hidden="true" d="" display="none"/></g></g><g class="mark-group role-scope cell" role="graphics-object" aria-roledescription="group mark container"><g transform="translate(0,0)"><path class="background" aria-hidden="true" d="M0.5,0.5h390v210h-390Z" stroke="#ddd"/><g><g class="mark-group role-axis" aria-hidden="true"><g transform="translate(0.5,210.5)"><path class="background" aria-hidden="true" d="M0,0h0v0h0Z" pointer-events="none"/><g><g class="mark-rule role-axis-grid" pointer-events="none"><line transform="translate(0,0)" x2="0" y2="-210" stroke="#d7dee8" stroke-opacity="0.75" stroke-width="1" opacity="1"/><line transform="translate(39,0)" x2="0" y2="-210" stroke="#d7dee8" stroke-opacity="0.75" stroke-width="1" opacity="1"/><line transform="translate(78,0)" x2="0" y2="-210" stroke="#d7dee8" stroke-opacity="0.75" stroke-width="1" opacity="1"/><line transform="translate(117,0)" x2="0" y2="-210" stroke="#d7dee8" stroke-opacity="0.75" stroke-width="1" opacity="1"/><line transform="translate(156,0)" x2="0" y2="-210" stroke="#d7dee8" stroke-opacity="0.75" stroke-width="1" opacity="1"/><line transform="translate(195,0)" x2="0" y2="-210" stroke="#d7dee8" stroke-opacity="0.75" stroke-width="1" opacity="1"/><line transform="translate(234,0)" x2="0" y2="-210" stroke="#d7dee8" stroke-opacity="0.75" stroke-width="1" opacity="1"/><line transform="translate(273,0)" x2="0" y2="-210" stroke="#d7dee8" stroke-opacity="0.75" stroke-width="1" opacity="1"/><line transform="translate(312,0)" x2="0" y2="-210" stroke="#d7dee8" stroke-opacity="0.75" stroke-width="1" opacity="1"/><line transform="translate(351,0)" x2="0" y2="-210" stroke="#d7dee8" stroke-opacity="0.75" stroke-width="1" opacity="1"/><line transform="translate(390,0)" x2="0" y2="-210" stroke="#d7dee8" stroke-opacity="0.75" stroke-width="1" opacity="1"/></g></g><path class="foreground" aria-hidden="true" d="" pointer-events="none" display="none"/></g></g><g class="mark-group role-scope" role="graphics-object" aria-roledescription="group mark container"><g transform="translate(0,2.0999999999999943)"><path class="background" aria-hidden="true" d="M0,0L383.99999999999994,0C387.31149014696393,0,389.99999999999994,2.688509853036,389.99999999999994,6L389.99999999999994,31.800000000000004C389.99999999999994,35.111490146964,387.31149014696393,37.800000000000004,383.99999999999994,37.800000000000004L0,37.800000000000004C0,37.800000000000004,0,37.800000000000004,0,37.800000000000004L0,0C0,0,0,0,0,0Z"/><g clip-path="url(#clip33)"><g class="mark-group role-scope" role="graphics-object" aria-roledescription="group mark container"><g transform="translate(0,0)"><path class="background" aria-hidden="true" d="M0,0h0v37.800000000000004h0Z"/><g><g class="mark-rect role-mark child_marks" role="graphics-object" aria-roledescription="rect mark container"><path aria-label="Share of matched surfaces: 33.333333%; scenario_label: Balanced query; surface: name; Query: Api Gateway; Scenario: Balanced query; Surface: name; Share: 33.33%" role="graphics-symbol" aria-roledescription="bar" d="M130,0h130v37.800000000000004h-130Z" fill="#94a3b8"/><path aria-label="Share of matched surfaces: 33.333333%; scenario_label: Balanced query; surface: description; Query: Api Gateway; Scenario: Balanced query; Surface: description; Share: 33.33%" role="graphics-symbol" aria-roledescription="bar" d="M0,0h130v37.800000000000004h-130Z" fill="#2563eb"/><path aria-label="Share of matched surfaces: 33.333333%; scenario_label: Balanced query; surface: topics; Query: Api Gateway; Scenario: Balanced query; Surface: topics; Share: 33.33%" role="graphics-symbol" aria-roledescription="bar" d="M260,0h129.99999999999994v37.800000000000004h-129.99999999999994Z" fill="#0f766e"/><path aria-label="Share of matched surfaces: 0.000000%; scenario_label: Balanced query; surface: readme; Query: Api Gateway; Scenario: Balanced query; Surface: readme; Share: 0.00%" role="graphics-symbol" aria-roledescription="bar" d="M260,0h0v37.800000000000004h0Z" fill="#dc2626"/></g></g><path class="foreground" aria-hidden="true" d="" display="none"/></g></g></g><path class="foreground" aria-hidden="true" d="" display="none"/></g><g transform="translate(0,44.099999999999994)"><path class="background" aria-hidden="true" d="M0,0L384,0C387.311490146964,0,390,2.688509853036,390,6L390,31.800000000000004C390,35.111490146964,387.311490146964,37.800000000000004,384,37.800000000000004L0,37.800000000000004C0,37.800000000000004,0,37.800000000000004,0,37.800000000000004L0,0C0,0,0,0,0,0Z"/><g clip-path="url(#clip34)"><g class="mark-group role-scope" role="graphics-object" aria-roledescription="group mark container"><g transform="translate(0,0)"><path class="background" aria-hidden="true" d="M0,0h0v37.800000000000004h0Z"/><g><g class="mark-rect role-mark child_marks" role="graphics-object" aria-roledescription="rect mark container"><path aria-label="Share of matched surfaces: 33.330000%; scenario_label: Balanced activity; surface: name; Query: Api Gateway; Scenario: Balanced activity; Surface: name; Share: 33.33%" role="graphics-symbol" aria-roledescription="bar" d="M144.456,0h129.987v37.800000000000004h-129.987Z" fill="#94a3b8"/><path aria-label="Share of matched surfaces: 37.040000%; scenario_label: Balanced activity; surface: description; Query: Api Gateway; Scenario: Balanced activity; Surface: description; Share: 37.04%" role="graphics-symbol" aria-roledescription="bar" d="M0,0h144.456v37.800000000000004h-144.456Z" fill="#2563eb"/><path aria-label="Share of matched surfaces: 29.630000%; scenario_label: Balanced activity; surface: topics; Query: Api Gateway; Scenario: Balanced activity; Surface: topics; Share: 29.63%" role="graphics-symbol" aria-roledescription="bar" d="M274.443,0h115.55700000000002v37.800000000000004h-115.55700000000002Z" fill="#0f766e"/><path aria-label="Share of matched surfaces: 0.000000%; scenario_label: Balanced activity; surface: readme; Query: Api Gateway; Scenario: Balanced activity; Surface: readme; Share: 0.00%" role="graphics-symbol" aria-roledescription="bar" d="M274.443,0h0v37.800000000000004h0Z" fill="#dc2626"/></g></g><path class="foreground" aria-hidden="true" d="" display="none"/></g></g></g><path class="foreground" aria-hidden="true" d="" display="none"/></g><g transform="translate(0,86.1)"><path class="background" aria-hidden="true" d="M0,0L384,0C387.311490146964,0,390,2.688509853036,390,6L390,31.800000000000004C390,35.111490146964,387.311490146964,37.800000000000004,384,37.800000000000004L0,37.800000000000004C0,37.800000000000004,0,37.800000000000004,0,37.800000000000004L0,0C0,0,0,0,0,0Z"/><g clip-path="url(#clip35)"><g class="mark-group role-scope" role="graphics-object" aria-roledescription="group mark container"><g transform="translate(0,0)"><path class="background" aria-hidden="true" d="M0,0h0v37.800000000000004h0Z"/><g><g class="mark-rect role-mark child_marks" role="graphics-object" aria-roledescription="rect mark container"><path aria-label="Share of matched surfaces: 16.668333%; scenario_label: Balanced quality; surface: name; Query: Api Gateway; Scenario: Balanced quality; Surface: name; Share: 16.67%" role="graphics-symbol" aria-roledescription="bar" d="M162.4967503249675,0h65.00649935006501v37.800000000000004h-65.00649935006501Z" fill="#94a3b8"/><path aria-label="Share of matched surfaces: 41.665833%; scenario_label: Balanced quality; surface: description; Query: Api Gateway; Scenario: Balanced quality; Surface: description; Share: 41.67%" role="graphics-symbol" aria-roledescription="bar" d="M0,0h162.4967503249675v37.800000000000004h-162.4967503249675Z" fill="#2563eb"/><path aria-label="Share of matched surfaces: 41.665833%; scenario_label: Balanced quality; surface: topics; Query: Api Gateway; Scenario: Balanced quality; Surface: topics; Share: 41.67%" role="graphics-symbol" aria-roledescription="bar" d="M227.50324967503252,0h162.49675032496748v37.800000000000004h-162.49675032496748Z" fill="#0f766e"/><path aria-label="Share of matched surfaces: 0.000000%; scenario_label: Balanced quality; surface: readme; Query: Api Gateway; Scenario: Balanced quality; Surface: readme; Share: 0.00%" role="graphics-symbol" aria-roledescription="bar" d="M227.50324967503252,0h0v37.800000000000004h0Z" fill="#dc2626"/></g></g><path class="foreground" aria-hidden="true" d="" display="none"/></g></g></g><path class="foreground" aria-hidden="true" d="" display="none"/></g><g transform="translate(0,128.1)"><path class="background" aria-hidden="true" d="M0,0L383.99999999999994,0C387.31149014696393,0,389.99999999999994,2.688509853036,389.99999999999994,6L389.99999999999994,31.800000000000004C389.99999999999994,35.111490146964,387.31149014696393,37.800000000000004,383.99999999999994,37.800000000000004L0,37.800000000000004C0,37.800000000000004,0,37.800000000000004,0,37.800000000000004L0,0C0,0,0,0,0,0Z"/><g clip-path="url(#clip36)"><g class="mark-group role-scope" role="graphics-object" aria-roledescription="group mark container"><g transform="translate(0,0)"><path class="background" aria-hidden="true" d="M0,0h0v37.800000000000004h0Z"/><g><g class="mark-rect role-mark child_marks" role="graphics-object" aria-roledescription="rect mark container"><path aria-label="Share of matched surfaces: 34.483448%; scenario_label: Balanced blended; surface: name; Query: Api Gateway; Scenario: Balanced blended; Surface: name; Share: 34.48%" role="graphics-symbol" aria-roledescription="bar" d="M134.48544854485445,0h134.48544854485445v37.800000000000004h-134.48544854485445Z" fill="#94a3b8"/><path aria-label="Share of matched surfaces: 34.483448%; scenario_label: Balanced blended; surface: description; Query: Api Gateway; Scenario: Balanced blended; Surface: description; Share: 34.48%" role="graphics-symbol" aria-roledescription="bar" d="M0,0h134.48544854485445v37.800000000000004h-134.48544854485445Z" fill="#2563eb"/><path aria-label="Share of matched surfaces: 31.033103%; scenario_label: Balanced blended; surface: topics; Query: Api Gateway; Scenario: Balanced blended; Surface: topics; Share: 31.03%" role="graphics-symbol" aria-roledescription="bar" d="M268.9708970897089,0h121.02910291029104v37.800000000000004h-121.02910291029104Z" fill="#0f766e"/><path aria-label="Share of matched surfaces: 0.000000%; scenario_label: Balanced blended; surface: readme; Query: Api Gateway; Scenario: Balanced blended; Surface: readme; Share: 0.00%" role="graphics-symbol" aria-roledescription="bar" d="M268.9708970897089,0h0v37.800000000000004h0Z" fill="#dc2626"/></g></g><path class="foreground" aria-hidden="true" d="" display="none"/></g></g></g><path class="foreground" aria-hidden="true" d="" display="none"/></g><g transform="translate(0,170.1)"><path class="background" aria-hidden="true" d="M0,0L384,0C387.311490146964,0,390,2.688509853036,390,6L390,31.800000000000004C390,35.111490146964,387.311490146964,37.800000000000004,384,37.800000000000004L0,37.800000000000004C0,37.800000000000004,0,37.800000000000004,0,37.800000000000004L0,0C0,0,0,0,0,0Z"/><g clip-path="url(#clip37)"><g class="mark-group role-scope" role="graphics-object" aria-roledescription="group mark container"><g transform="translate(0,0)"><path class="background" aria-hidden="true" d="M0,0h0v37.800000000000004h0Z"/><g><g class="mark-rect role-mark child_marks" role="graphics-object" aria-roledescription="rect mark container"><path aria-label="Share of matched surfaces: 23.080000%; scenario_label: Quality-heavy blend; surface: name; Query: Api Gateway; Scenario: Quality-heavy blend; Surface: name; Share: 23.08%" role="graphics-symbol" aria-roledescription="bar" d="M149.994,0h90.01199999999997v37.800000000000004h-90.01199999999997Z" fill="#94a3b8"/><path aria-label="Share of matched surfaces: 38.460000%; scenario_label: Quality-heavy blend; surface: description; Query: Api Gateway; Scenario: Quality-heavy blend; Surface: description; Share: 38.46%" role="graphics-symbol" aria-roledescription="bar" d="M0,0h149.994v37.800000000000004h-149.994Z" fill="#2563eb"/><path aria-label="Share of matched surfaces: 38.460000%; scenario_label: Quality-heavy blend; surface: topics; Query: Api Gateway; Scenario: Quality-heavy blend; Surface: topics; Share: 38.46%" role="graphics-symbol" aria-roledescription="bar" d="M240.00599999999997,0h149.99400000000003v37.800000000000004h-149.99400000000003Z" fill="#0f766e"/><path aria-label="Share of matched surfaces: 0.000000%; scenario_label: Quality-heavy blend; surface: readme; Query: Api Gateway; Scenario: Quality-heavy blend; Surface: readme; Share: 0.00%" role="graphics-symbol" aria-roledescription="bar" d="M240.00599999999997,0h0v37.800000000000004h0Z" fill="#dc2626"/></g></g><path class="foreground" aria-hidden="true" d="" display="none"/></g></g></g><path class="foreground" aria-hidden="true" d="" display="none"/></g></g></g><path class="foreground" aria-hidden="true" d="" display="none"/></g><g transform="translate(412,0)"><path class="background" aria-hidden="true" d="M0.5,0.5h390v210h-390Z" stroke="#ddd"/><g><g class="mark-group role-axis" aria-hidden="true"><g transform="translate(0.5,210.5)"><path class="background" aria-hidden="true" d="M0,0h0v0h0Z" pointer-events="none"/><g><g class="mark-rule role-axis-grid" pointer-events="none"><line transform="translate(0,0)" x2="0" y2="-210" stroke="#d7dee8" stroke-opacity="0.75" stroke-width="1" opacity="1"/><line transform="translate(39,0)" x2="0" y2="-210" stroke="#d7dee8" stroke-opacity="0.75" stroke-width="1" opacity="1"/><line transform="translate(78,0)" x2="0" y2="-210" stroke="#d7dee8" stroke-opacity="0.75" stroke-width="1" opacity="1"/><line transform="translate(117,0)" x2="0" y2="-210" stroke="#d7dee8" stroke-opacity="0.75" stroke-width="1" opacity="1"/><line transform="translate(156,0)" x2="0" y2="-210" stroke="#d7dee8" stroke-opacity="0.75" stroke-width="1" opacity="1"/><line transform="translate(195,0)" x2="0" y2="-210" stroke="#d7dee8" stroke-opacity="0.75" stroke-width="1" opacity="1"/><line transform="translate(234,0)" x2="0" y2="-210" stroke="#d7dee8" stroke-opacity="0.75" stroke-width="1" opacity="1"/><line transform="translate(273,0)" x2="0" y2="-210" stroke="#d7dee8" stroke-opacity="0.75" stroke-width="1" opacity="1"/><line transform="translate(312,0)" x2="0" y2="-210" stroke="#d7dee8" stroke-opacity="0.75" stroke-width="1" opacity="1"/><line transform="translate(351,0)" x2="0" y2="-210" stroke="#d7dee8" stroke-opacity="0.75" stroke-width="1" opacity="1"/><line transform="translate(390,0)" x2="0" y2="-210" stroke="#d7dee8" stroke-opacity="0.75" stroke-width="1" opacity="1"/></g></g><path class="foreground" aria-hidden="true" d="" pointer-events="none" display="none"/></g></g><g class="mark-group role-scope" role="graphics-object" aria-roledescription="group mark container"><g transform="translate(0,2.0999999999999943)"><path class="background" aria-hidden="true" d="M0,0L383.99999999999994,0C387.31149014696393,0,389.99999999999994,2.688509853036,389.99999999999994,6L389.99999999999994,31.800000000000004C389.99999999999994,35.111490146964,387.31149014696393,37.800000000000004,383.99999999999994,37.800000000000004L0,37.800000000000004C0,37.800000000000004,0,37.800000000000004,0,37.800000000000004L0,0C0,0,0,0,0,0Z"/><g clip-path="url(#clip38)"><g class="mark-group role-scope" role="graphics-object" aria-roledescription="group mark container"><g transform="translate(0,0)"><path class="background" aria-hidden="true" d="M0,0h0v37.800000000000004h0Z"/><g><g class="mark-rect role-mark child_marks" role="graphics-object" aria-roledescription="rect mark container"><path aria-label="Share of matched surfaces: 33.333333%; scenario_label: Balanced query; surface: name; Query: Terminal Ui; Scenario: Balanced query; Surface: name; Share: 33.33%" role="graphics-symbol" aria-roledescription="bar" d="M130,0h130v37.800000000000004h-130Z" fill="#94a3b8"/><path aria-label="Share of matched surfaces: 33.333333%; scenario_label: Balanced query; surface: description; Query: Terminal Ui; Scenario: Balanced query; Surface: description; Share: 33.33%" role="graphics-symbol" aria-roledescription="bar" d="M0,0h130v37.800000000000004h-130Z" fill="#2563eb"/><path aria-label="Share of matched surfaces: 33.333333%; scenario_label: Balanced query; surface: topics; Query: Terminal Ui; Scenario: Balanced query; Surface: topics; Share: 33.33%" role="graphics-symbol" aria-roledescription="bar" d="M260,0h129.99999999999994v37.800000000000004h-129.99999999999994Z" fill="#0f766e"/><path aria-label="Share of matched surfaces: 0.000000%; scenario_label: Balanced query; surface: readme; Query: Terminal Ui; Scenario: Balanced query; Surface: readme; Share: 0.00%" role="graphics-symbol" aria-roledescription="bar" d="M260,0h0v37.800000000000004h0Z" fill="#dc2626"/></g></g><path class="foreground" aria-hidden="true" d="" display="none"/></g></g></g><path class="foreground" aria-hidden="true" d="" display="none"/></g><g transform="translate(0,44.099999999999994)"><path class="background" aria-hidden="true" d="M0,0L384,0C387.311490146964,0,390,2.688509853036,390,6L390,31.800000000000004C390,35.111490146964,387.311490146964,37.800000000000004,384,37.800000000000004L0,37.800000000000004C0,37.800000000000004,0,37.800000000000004,0,37.800000000000004L0,0C0,0,0,0,0,0Z"/><g clip-path="url(#clip39)"><g class="mark-group role-scope" role="graphics-object" aria-roledescription="group mark container"><g transform="translate(0,0)"><path class="background" aria-hidden="true" d="M0,0h0v37.800000000000004h0Z"/><g><g class="mark-rect role-mark child_marks" role="graphics-object" aria-roledescription="rect mark container"><path aria-label="Share of matched surfaces: 26.090000%; scenario_label: Balanced activity; surface: name; Query: Terminal Ui; Scenario: Balanced activity; Surface: name; Share: 26.09%" role="graphics-symbol" aria-roledescription="bar" d="M169.572,0h101.75099999999998v37.800000000000004h-101.75099999999998Z" fill="#94a3b8"/><path aria-label="Share of matched surfaces: 43.480000%; scenario_label: Balanced activity; surface: description; Query: Terminal Ui; Scenario: Balanced activity; Surface: description; Share: 43.48%" role="graphics-symbol" aria-roledescription="bar" d="M0,0h169.572v37.800000000000004h-169.572Z" fill="#2563eb"/><path aria-label="Share of matched surfaces: 30.430000%; scenario_label: Balanced activity; surface: topics; Query: Terminal Ui; Scenario: Balanced activity; Surface: topics; Share: 30.43%" role="graphics-symbol" aria-roledescription="bar" d="M271.323,0h118.67700000000002v37.800000000000004h-118.67700000000002Z" fill="#0f766e"/><path aria-label="Share of matched surfaces: 0.000000%; scenario_label: Balanced activity; surface: readme; Query: Terminal Ui; Scenario: Balanced activity; Surface: readme; Share: 0.00%" role="graphics-symbol" aria-roledescription="bar" d="M271.323,0h0v37.800000000000004h0Z" fill="#dc2626"/></g></g><path class="foreground" aria-hidden="true" d="" display="none"/></g></g></g><path class="foreground" aria-hidden="true" d="" display="none"/></g><g transform="translate(0,86.1)"><path class="background" aria-hidden="true" d="M0,0L384,0C387.311490146964,0,390,2.688509853036,390,6L390,31.800000000000004C390,35.111490146964,387.311490146964,37.800000000000004,384,37.800000000000004L0,37.800000000000004C0,37.800000000000004,0,37.800000000000004,0,37.800000000000004L0,0C0,0,0,0,0,0Z"/><g clip-path="url(#clip40)"><g class="mark-group role-scope" role="graphics-object" aria-roledescription="group mark container"><g transform="translate(0,0)"><path class="background" aria-hidden="true" d="M0,0h0v37.800000000000004h0Z"/><g><g class="mark-rect role-mark child_marks" role="graphics-object" aria-roledescription="rect mark container"><path aria-label="Share of matched surfaces: 17.390000%; scenario_label: Balanced quality; surface: name; Query: Terminal Ui; Scenario: Balanced quality; Surface: name; Share: 17.39%" role="graphics-symbol" aria-roledescription="bar" d="M169.572,0h67.821v37.800000000000004h-67.821Z" fill="#94a3b8"/><path aria-label="Share of matched surfaces: 43.480000%; scenario_label: Balanced quality; surface: description; Query: Terminal Ui; Scenario: Balanced quality; Surface: description; Share: 43.48%" role="graphics-symbol" aria-roledescription="bar" d="M0,0h169.572v37.800000000000004h-169.572Z" fill="#2563eb"/><path aria-label="Share of matched surfaces: 39.130000%; scenario_label: Balanced quality; surface: topics; Query: Terminal Ui; Scenario: Balanced quality; Surface: topics; Share: 39.13%" role="graphics-symbol" aria-roledescription="bar" d="M237.393,0h152.607v37.800000000000004h-152.607Z" fill="#0f766e"/><path aria-label="Share of matched surfaces: 0.000000%; scenario_label: Balanced quality; surface: readme; Query: Terminal Ui; Scenario: Balanced quality; Surface: readme; Share: 0.00%" role="graphics-symbol" aria-roledescription="bar" d="M237.393,0h0v37.800000000000004h0Z" fill="#dc2626"/></g></g><path class="foreground" aria-hidden="true" d="" display="none"/></g></g></g><path class="foreground" aria-hidden="true" d="" display="none"/></g><g transform="translate(0,128.1)"><path class="background" aria-hidden="true" d="M0,0L383.99999999999994,0C387.31149014696393,0,389.99999999999994,2.688509853036,389.99999999999994,6L389.99999999999994,31.800000000000004C389.99999999999994,35.111490146964,387.31149014696393,37.800000000000004,383.99999999999994,37.800000000000004L0,37.800000000000004C0,37.800000000000004,0,37.800000000000004,0,37.800000000000004L0,0C0,0,0,0,0,0Z"/><g clip-path="url(#clip41)"><g class="mark-group role-scope" role="graphics-object" aria-roledescription="group mark container"><g transform="translate(0,0)"><path class="background" aria-hidden="true" d="M0,0h0v37.800000000000004h0Z"/><g><g class="mark-rect role-mark child_marks" role="graphics-object" aria-roledescription="rect mark container"><path aria-label="Share of matched surfaces: 28.572857%; scenario_label: Balanced blended; surface: name; Query: Terminal Ui; Scenario: Balanced blended; Surface: name; Share: 28.57%" role="graphics-symbol" aria-roledescription="bar" d="M139.28292829282927,0h111.43414341434143v37.800000000000004h-111.43414341434143Z" fill="#94a3b8"/><path aria-label="Share of matched surfaces: 35.713571%; scenario_label: Balanced blended; surface: description; Query: Terminal Ui; Scenario: Balanced blended; Surface: description; Share: 35.71%" role="graphics-symbol" aria-roledescription="bar" d="M0,0h139.28292829282927v37.800000000000004h-139.28292829282927Z" fill="#2563eb"/><path aria-label="Share of matched surfaces: 35.713571%; scenario_label: Balanced blended; surface: topics; Query: Terminal Ui; Scenario: Balanced blended; Surface: topics; Share: 35.71%" role="graphics-symbol" aria-roledescription="bar" d="M250.7170717071707,0h139.28292829282924v37.800000000000004h-139.28292829282924Z" fill="#0f766e"/><path aria-label="Share of matched surfaces: 0.000000%; scenario_label: Balanced blended; surface: readme; Query: Terminal Ui; Scenario: Balanced blended; Surface: readme; Share: 0.00%" role="graphics-symbol" aria-roledescription="bar" d="M250.7170717071707,0h0v37.800000000000004h0Z" fill="#dc2626"/></g></g><path class="foreground" aria-hidden="true" d="" display="none"/></g></g></g><path class="foreground" aria-hidden="true" d="" display="none"/></g><g transform="translate(0,170.1)"><path class="background" aria-hidden="true" d="M0,0L384,0C387.311490146964,0,390,2.688509853036,390,6L390,31.800000000000004C390,35.111490146964,387.311490146964,37.800000000000004,384,37.800000000000004L0,37.800000000000004C0,37.800000000000004,0,37.800000000000004,0,37.800000000000004L0,0C0,0,0,0,0,0Z"/><g clip-path="url(#clip42)"><g class="mark-group role-scope" role="graphics-object" aria-roledescription="group mark container"><g transform="translate(0,0)"><path class="background" aria-hidden="true" d="M0,0h0v37.800000000000004h0Z"/><g><g class="mark-rect role-mark child_marks" role="graphics-object" aria-roledescription="rect mark container"><path aria-label="Share of matched surfaces: 20.830000%; scenario_label: Quality-heavy blend; surface: name; Query: Terminal Ui; Scenario: Quality-heavy blend; Surface: name; Share: 20.83%" role="graphics-symbol" aria-roledescription="bar" d="M162.513,0h81.237v37.800000000000004h-81.237Z" fill="#94a3b8"/><path aria-label="Share of matched surfaces: 41.670000%; scenario_label: Quality-heavy blend; surface: description; Query: Terminal Ui; Scenario: Quality-heavy blend; Surface: description; Share: 41.67%" role="graphics-symbol" aria-roledescription="bar" d="M0,0h162.513v37.800000000000004h-162.513Z" fill="#2563eb"/><path aria-label="Share of matched surfaces: 37.500000%; scenario_label: Quality-heavy blend; surface: topics; Query: Terminal Ui; Scenario: Quality-heavy blend; Surface: topics; Share: 37.50%" role="graphics-symbol" aria-roledescription="bar" d="M243.75,0h146.25v37.800000000000004h-146.25Z" fill="#0f766e"/><path aria-label="Share of matched surfaces: 0.000000%; scenario_label: Quality-heavy blend; surface: readme; Query: Terminal Ui; Scenario: Quality-heavy blend; Surface: readme; Share: 0.00%" role="graphics-symbol" aria-roledescription="bar" d="M243.75,0h0v37.800000000000004h0Z" fill="#dc2626"/></g></g><path class="foreground" aria-hidden="true" d="" display="none"/></g></g></g><path class="foreground" aria-hidden="true" d="" display="none"/></g></g></g><path class="foreground" aria-hidden="true" d="" display="none"/></g></g><g class="mark-group role-legend" role="graphics-symbol" aria-roledescription="legend" aria-label="Symbol legend for fill color with 4 values: name, description, topics, readme"><g transform="translate(0,-54)"><path class="background" aria-hidden="true" d="M0,0h264v24h-264Z" pointer-events="none"/><g><g class="mark-group role-legend-entry"><g transform="translate(6,6)"><path class="background" aria-hidden="true" d="M0,0h0v0h0Z" pointer-events="none"/><g><g class="mark-group role-scope" role="graphics-object" aria-roledescription="group mark container"><g transform="translate(0,0.011387212474168962)"><path class="background" aria-hidden="true" d="M0,0h45.359375v11.977225575051662h-45.359375Z" pointer-events="none" opacity="1"/><g><g class="mark-symbol role-legend-symbol" pointer-events="none"><path transform="translate(6.5,6.5)" d="M5.477,0A5.477,5.477,0,1,1,-5.477,0A5.477,5.477,0,1,1,5.477,0" fill="#94a3b8" stroke-width="1.5" opacity="1"/></g><g class="mark-text role-legend-label" pointer-events="none"><text text-anchor="start" transform="translate(17,9.5)" font-family="Mona Sans, DejaVu Sans, Arial, sans-serif" font-size="10px" fill="#475569" opacity="1">name</text></g></g><path class="foreground" aria-hidden="true" d="" pointer-events="none" display="none"/></g><g transform="translate(56,0.011387212474168962)"><path class="background" aria-hidden="true" d="M0,0h72.6005859375v11.977225575051662h-72.6005859375Z" pointer-events="none" opacity="1"/><g><g class="mark-symbol role-legend-symbol" pointer-events="none"><path transform="translate(6.5,6.5)" d="M5.477,0A5.477,5.477,0,1,1,-5.477,0A5.477,5.477,0,1,1,5.477,0" fill="#2563eb" stroke-width="1.5" opacity="1"/></g><g class="mark-text role-legend-label" pointer-events="none"><text text-anchor="start" transform="translate(17,9.5)" font-family="Mona Sans, DejaVu Sans, Arial, sans-serif" font-size="10px" fill="#475569" opacity="1">description</text></g></g><path class="foreground" aria-hidden="true" d="" pointer-events="none" display="none"/></g><g transform="translate(139,0.011387212474168962)"><path class="background" aria-hidden="true" d="M0,0h46.873046875v11.977225575051662h-46.873046875Z" pointer-events="none" opacity="1"/><g><g class="mark-symbol role-legend-symbol" pointer-events="none"><path transform="translate(6.5,6.5)" d="M5.477,0A5.477,5.477,0,1,1,-5.477,0A5.477,5.477,0,1,1,5.477,0" fill="#0f766e" stroke-width="1.5" opacity="1"/></g><g class="mark-text role-legend-label" pointer-events="none"><text text-anchor="start" transform="translate(17,9.5)" font-family="Mona Sans, DejaVu Sans, Arial, sans-serif" font-size="10px" fill="#475569" opacity="1">topics</text></g></g><path class="foreground" aria-hidden="true" d="" pointer-events="none" display="none"/></g><g transform="translate(196,0.011387212474168962)"><path class="background" aria-hidden="true" d="M0,0h55.4130859375v11.977225575051662h-55.4130859375Z" pointer-events="none" opacity="1"/><g><g class="mark-symbol role-legend-symbol" pointer-events="none"><path transform="translate(6.5,6.5)" d="M5.477,0A5.477,5.477,0,1,1,-5.477,0A5.477,5.477,0,1,1,5.477,0" fill="#dc2626" stroke-width="1.5" opacity="1"/></g><g class="mark-text role-legend-label" pointer-events="none"><text text-anchor="start" transform="translate(17,9.5)" font-family="Mona Sans, DejaVu Sans, Arial, sans-serif" font-size="10px" fill="#475569" opacity="1">readme</text></g></g><path class="foreground" aria-hidden="true" d="" pointer-events="none" display="none"/></g></g></g><path class="foreground" aria-hidden="true" d="" pointer-events="none" display="none"/></g></g></g><path class="foreground" aria-hidden="true" d="" pointer-events="none" display="none"/></g></g><g class="mark-group role-title"><g transform="translate(-128.9140625,-97)"><path class="background" aria-hidden="true" d="M0,0h0v0h0Z" pointer-events="none"/><g><g class="mark-text role-title-text" role="graphics-symbol" aria-roledescription="title" aria-label="Title text 'Surface attribution mix'" pointer-events="none"><text text-anchor="start" transform="translate(8,13)" font-family="Monaspace Neon, Mona Sans, DejaVu Sans Mono, monospace" font-size="22px" font-weight="bold" fill="#0f172a" opacity="1">Surface attribution mix</text></g><g class="mark-text role-title-subtitle" role="graphics-symbol" aria-roledescription="subtitle" aria-label="Subtitle text 'Quality leans less on repository names and more on descriptions and topics, which helps explain its safer curation profile.'" pointer-events="none"><text text-anchor="start" transform="translate(8,31)" font-family="Mona Sans, DejaVu Sans, Arial, sans-serif" font-size="13px" fill="#475569" opacity="1">Quality leans less on repository names and more on descriptions and topics, which helps explain its safer curation profile.</text></g></g><path class="foreground" aria-hidden="true" d="" pointer-events="none" display="none"/></g></g></g><path class="foreground" aria-hidden="true" d="" display="none"/></g></g></g><defs><clipPath id="clip33"><path d="M0,0L383.99999999999994,0C387.31149014696393,0,389.99999999999994,2.688509853036,389.99999999999994,6L389.99999999999994,31.800000000000004C389.99999999999994,35.111490146964,387.31149014696393,37.800000000000004,383.99999999999994,37.800000000000004L0,37.800000000000004C0,37.800000000000004,0,37.800000000000004,0,37.800000000000004L0,0C0,0,0,0,0,0Z"/></clipPath><clipPath id="clip34"><path d="M0,0L384,0C387.311490146964,0,390,2.688509853036,390,6L390,31.800000000000004C390,35.111490146964,387.311490146964,37.800000000000004,384,37.800000000000004L0,37.800000000000004C0,37.800000000000004,0,37.800000000000004,0,37.800000000000004L0,0C0,0,0,0,0,0Z"/></clipPath><clipPath id="clip35"><path d="M0,0L384,0C387.311490146964,0,390,2.688509853036,390,6L390,31.800000000000004C390,35.111490146964,387.311490146964,37.800000000000004,384,37.800000000000004L0,37.800000000000004C0,37.800000000000004,0,37.800000000000004,0,37.800000000000004L0,0C0,0,0,0,0,0Z"/></clipPath><clipPath id="clip36"><path d="M0,0L383.99999999999994,0C387.31149014696393,0,389.99999999999994,2.688509853036,389.99999999999994,6L389.99999999999994,31.800000000000004C389.99999999999994,35.111490146964,387.31149014696393,37.800000000000004,383.99999999999994,37.800000000000004L0,37.800000000000004C0,37.800000000000004,0,37.800000000000004,0,37.800000000000004L0,0C0,0,0,0,0,0Z"/></clipPath><clipPath id="clip37"><path d="M0,0L384,0C387.311490146964,0,390,2.688509853036,390,6L390,31.800000000000004C390,35.111490146964,387.311490146964,37.800000000000004,384,37.800000000000004L0,37.800000000000004C0,37.800000000000004,0,37.800000000000004,0,37.800000000000004L0,0C0,0,0,0,0,0Z"/></clipPath><clipPath id="clip38"><path d="M0,0L383.99999999999994,0C387.31149014696393,0,389.99999999999994,2.688509853036,389.99999999999994,6L389.99999999999994,31.800000000000004C389.99999999999994,35.111490146964,387.31149014696393,37.800000000000004,383.99999999999994,37.800000000000004L0,37.800000000000004C0,37.800000000000004,0,37.800000000000004,0,37.800000000000004L0,0C0,0,0,0,0,0Z"/></clipPath><clipPath id="clip39"><path d="M0,0L384,0C387.311490146964,0,390,2.688509853036,390,6L390,31.800000000000004C390,35.111490146964,387.311490146964,37.800000000000004,384,37.800000000000004L0,37.800000000000004C0,37.800000000000004,0,37.800000000000004,0,37.800000000000004L0,0C0,0,0,0,0,0Z"/></clipPath><clipPath id="clip40"><path d="M0,0L384,0C387.311490146964,0,390,2.688509853036,390,6L390,31.800000000000004C390,35.111490146964,387.311490146964,37.800000000000004,384,37.800000000000004L0,37.800000000000004C0,37.800000000000004,0,37.800000000000004,0,37.800000000000004L0,0C0,0,0,0,0,0Z"/></clipPath><clipPath id="clip41"><path d="M0,0L383.99999999999994,0C387.31149014696393,0,389.99999999999994,2.688509853036,389.99999999999994,6L389.99999999999994,31.800000000000004C389.99999999999994,35.111490146964,387.31149014696393,37.800000000000004,383.99999999999994,37.800000000000004L0,37.800000000000004C0,37.800000000000004,0,37.800000000000004,0,37.800000000000004L0,0C0,0,0,0,0,0Z"/></clipPath><clipPath id="clip42"><path d="M0,0L384,0C387.311490146964,0,390,2.688509853036,390,6L390,31.800000000000004C390,35.111490146964,387.311490146964,37.800000000000004,384,37.800000000000004L0,37.800000000000004C0,37.800000000000004,0,37.800000000000004,0,37.800000000000004L0,0C0,0,0,0,0,0Z"/></clipPath></defs></svg>