<svg xmlns="http://www.w3.org/2000/svg" width="1435pt" height="559pt" version="1.1" viewBox="0 0 1435 559"><g id="#181818ff"><path fill="#181818" d="M 191.45 22.64 C 196.25 21.51 201.22 22.70 205.81 24.20 C 220.19 29.16 233.61 36.92 245.16 46.83 C 250.57 51.41 255.36 56.67 260.40 61.64 C 261.93 61.39 263.47 61.13 265.01 60.93 C 269.99 60.53 275.00 60.54 279.98 60.90 C 282.12 61.13 284.26 61.38 286.40 61.57 C 293.30 64.14 300.11 67.37 305.61 72.36 C 314.26 80.16 320.02 90.82 322.95 102.01 C 318.26 95.65 314.68 88.50 309.52 82.48 C 303.30 75.10 295.43 68.79 286.14 65.84 C 278.66 63.51 270.69 64.14 263.02 64.94 C 272.71 77.89 282.16 91.87 285.15 108.07 C 286.30 113.07 283.60 117.78 280.36 121.35 C 270.23 132.58 257.07 141.12 242.58 145.52 C 229.00 149.82 214.44 150.35 200.38 148.53 C 183.80 146.33 167.99 140.68 152.00 136.04 C 151.32 137.51 150.61 138.96 149.88 140.40 C 161.28 144.13 172.67 148.01 184.45 150.41 C 215.25 156.65 246.21 162.13 277.33 166.55 C 286.33 167.73 295.27 169.51 304.36 169.88 C 305.07 155.16 311.73 140.57 323.25 131.21 C 334.88 121.84 350.26 117.23 365.12 118.96 C 369.56 119.68 373.95 120.82 378.18 122.36 C 391.66 127.64 402.36 139.81 404.79 154.22 C 406.63 162.19 404.23 170.18 401.96 177.77 C 412.78 180.64 423.65 183.36 434.23 187.04 C 433.28 174.30 429.10 162.00 423.47 150.60 C 410.72 124.40 390.86 101.10 364.99 87.17 C 368.25 91.71 371.22 96.49 373.34 101.68 C 375.48 106.98 378.23 112.30 378.25 118.16 C 374.51 109.42 370.78 100.56 365.16 92.83 C 359.74 85.03 352.91 78.21 345.06 72.87 C 349.75 74.99 354.41 77.19 358.85 79.81 C 372.87 69.99 389.43 64.51 406.05 60.99 C 407.52 61.66 409.19 61.28 410.22 60.01 L 410.88 59.97 C 412.65 60.65 414.63 60.38 416.06 59.08 C 422.77 58.74 429.82 57.49 436.32 59.77 C 440.88 62.42 441.89 68.26 443.16 72.97 C 444.98 84.95 444.22 97.12 444.24 109.19 C 443.18 119.99 440.18 130.61 435.36 140.34 C 433.97 143.52 431.52 147.08 433.41 150.58 C 437.55 159.59 440.84 169.04 442.17 178.90 C 441.36 180.65 441.65 182.67 443.02 184.05 C 443.15 187.52 442.84 191.08 443.68 194.48 C 446.75 198.36 451.53 200.56 454.32 204.72 C 457.09 208.44 457.94 214.09 454.90 217.91 C 451.21 222.58 445.10 223.96 439.93 226.34 C 437.42 227.32 438.96 230.32 440.08 231.82 L 440.13 232.60 C 440.65 242.82 440.36 253.07 439.21 263.23 C 439.16 263.65 439.05 264.47 439.00 264.88 C 437.71 265.86 437.32 267.52 437.95 269.00 C 436.90 273.64 435.93 278.31 435.06 282.99 C 443.16 283.89 451.34 283.63 459.42 284.78 C 476.47 287.07 493.29 290.98 509.64 296.30 C 515.42 298.23 521.55 299.80 526.30 303.84 C 520.13 302.83 514.39 300.28 508.45 298.47 C 500.40 295.99 492.24 293.84 484.04 291.93 C 482.97 290.72 481.33 290.36 479.85 290.97 L 479.13 290.94 C 478.03 289.70 476.33 289.37 474.84 290.04 L 474.17 289.87 C 472.64 288.65 470.63 288.36 468.81 289.03 L 468.19 288.88 C 466.27 287.63 463.96 287.35 461.78 288.01 L 461.19 287.89 C 459.00 286.57 456.43 286.34 454.01 287.06 C 447.38 286.36 440.72 286.08 434.06 285.98 C 432.22 290.44 430.52 294.95 429.05 299.55 C 452.57 302.98 475.90 308.33 498.11 316.87 C 504.13 319.39 510.67 321.27 515.54 325.85 C 508.34 324.08 501.74 320.57 494.72 318.26 C 483.41 314.02 471.77 310.75 460.02 307.97 C 458.97 306.75 457.34 306.36 455.85 306.93 L 455.14 306.99 C 454.07 305.73 452.38 305.38 450.89 306.03 L 450.19 305.89 C 449.05 304.72 447.38 304.41 445.92 305.11 C 443.60 304.72 441.29 304.33 438.99 303.94 C 437.52 302.66 435.54 302.33 433.72 302.95 L 433.08 302.76 C 431.35 301.82 428.49 300.65 427.32 302.99 C 423.44 309.18 420.05 315.73 415.38 321.40 C 408.60 329.65 400.49 336.97 390.99 341.97 C 375.28 350.41 357.61 354.41 340.02 356.57 C 343.34 365.13 346.82 373.98 353.30 380.70 C 359.21 386.94 368.00 389.03 374.50 394.50 C 378.50 397.59 381.26 401.90 383.60 406.31 C 380.31 407.85 376.69 408.85 373.04 408.24 C 366.77 407.44 360.66 405.72 354.40 404.86 C 347.52 404.00 341.28 400.63 334.41 399.67 C 329.96 398.98 325.53 398.15 321.12 397.22 C 317.02 391.17 312.34 385.52 308.61 379.21 C 305.34 383.46 305.21 388.81 305.87 393.91 C 307.25 394.34 308.64 394.78 310.04 395.18 C 298.36 393.24 286.73 390.51 274.85 390.20 C 286.56 399.17 302.12 396.75 315.65 400.10 C 321.63 401.40 325.65 407.18 326.29 413.03 C 326.43 416.73 324.48 420.10 322.48 423.07 C 320.01 424.60 317.44 425.96 314.81 427.18 C 311.92 427.86 312.54 431.09 313.66 433.05 C 313.79 433.73 314.05 435.08 314.18 435.76 C 313.44 437.58 313.67 439.63 314.88 441.21 C 314.92 441.60 315.00 442.38 315.05 442.78 C 314.39 444.26 314.70 445.93 315.87 447.07 C 317.36 454.78 319.43 463.04 325.58 468.43 C 331.19 473.67 339.40 473.59 345.91 477.10 C 349.02 478.62 350.65 483.22 347.84 485.81 C 343.65 489.82 337.64 491.15 332.06 491.81 C 319.73 492.84 306.54 491.06 296.25 483.72 C 289.68 479.06 285.97 471.41 284.26 463.72 C 282.39 455.22 281.11 446.62 279.86 438.02 C 280.65 435.97 280.47 433.71 279.18 431.92 C 278.93 430.33 278.68 428.75 278.44 427.17 C 276.02 426.52 273.60 425.89 271.16 425.33 L 270.47 425.17 C 270.26 425.78 269.85 427.02 269.64 427.64 L 269.64 428.61 C 269.20 440.47 268.90 452.38 269.78 464.22 C 270.79 472.51 272.26 481.09 276.64 488.34 C 279.36 492.99 284.45 495.23 288.48 498.51 C 291.21 500.46 291.73 504.92 289.24 507.28 C 286.04 510.39 281.25 510.72 277.02 510.81 C 266.31 511.04 255.34 506.94 248.13 498.86 C 240.80 491.13 238.31 480.28 236.93 470.05 C 235.93 451.14 237.57 432.15 235.46 413.28 C 234.97 413.27 233.98 413.23 233.49 413.22 C 233.43 415.60 233.37 417.98 233.25 420.36 C 233.15 421.55 233.05 422.75 232.96 423.95 C 231.58 425.70 231.33 427.97 232.16 430.03 C 230.28 445.31 228.46 460.78 223.39 475.39 C 219.29 485.90 213.66 496.65 203.85 502.87 C 193.79 509.23 181.13 513.12 169.38 509.55 C 165.77 508.64 163.11 504.05 165.85 500.89 C 169.84 496.75 175.84 495.07 179.40 490.40 C 190.13 477.08 193.12 459.62 195.15 443.11 C 196.37 441.64 196.59 439.65 195.83 437.92 C 195.98 436.37 196.13 434.82 196.24 433.28 C 196.59 429.72 196.60 426.15 196.41 422.59 C 196.22 423.16 195.84 424.30 195.65 424.87 C 191.63 435.94 189.12 447.54 184.27 458.32 C 180.42 466.87 176.31 475.80 168.85 481.84 C 162.72 486.96 154.72 488.76 147.07 490.24 C 145.04 489.66 142.90 489.68 140.89 490.33 C 137.24 489.52 133.23 489.20 130.16 486.86 C 128.13 485.42 127.31 482.12 129.25 480.27 C 131.64 477.87 134.77 476.42 137.49 474.45 C 141.82 471.48 145.24 467.32 147.69 462.70 C 154.05 450.98 156.77 437.80 160.02 425.00 C 160.33 423.51 160.67 422.03 161.00 420.55 C 158.60 420.45 156.21 420.36 153.83 420.17 C 137.04 417.53 123.51 405.47 114.07 391.96 C 106.20 381.16 102.05 367.23 90.59 359.39 C 83.67 354.09 74.38 353.53 66.15 355.49 C 60.95 356.65 54.28 358.00 50.70 352.85 C 51.28 350.67 51.24 348.38 50.71 346.20 C 54.96 337.78 63.84 332.61 72.86 330.82 C 77.96 330.51 83.08 330.51 88.19 330.78 C 96.55 332.09 104.57 335.58 111.31 340.68 C 124.79 350.52 132.13 366.66 146.28 375.74 C 152.59 380.04 161.09 381.41 168.17 378.26 C 170.36 377.36 171.12 374.94 172.00 372.96 C 175.68 362.98 180.23 353.18 186.71 344.70 C 190.50 339.66 195.43 335.67 200.36 331.81 C 193.03 327.81 185.41 324.28 178.53 319.50 C 160.73 307.66 145.71 291.34 136.76 271.81 C 127.49 271.17 118.22 272.03 108.96 272.54 C 83.16 273.75 57.58 278.19 32.58 284.54 C 23.81 286.67 15.33 289.92 6.41 291.41 C 9.54 289.30 12.97 287.66 16.59 286.57 C 36.27 280.31 56.43 275.43 76.94 272.88 C 79.00 273.66 81.24 273.44 83.05 272.16 C 91.63 271.20 100.20 270.14 108.83 269.75 C 113.28 269.67 117.74 269.58 122.18 269.30 C 126.44 269.12 130.69 268.86 134.94 268.63 C 133.71 265.01 132.38 261.42 130.98 257.87 C 125.94 257.42 120.93 256.71 115.87 256.43 C 84.35 255.88 52.64 255.81 21.39 260.57 C 14.28 261.85 7.23 263.55 0.00 264.01 L 0.00 263.12 C 5.79 260.99 11.91 260.03 17.95 258.90 C 19.74 259.62 21.75 259.31 23.24 258.07 L 23.84 257.93 C 26.02 258.62 28.35 258.34 30.25 257.05 L 30.84 256.95 C 33.29 257.67 35.88 257.40 38.02 255.98 L 38.81 255.90 C 41.87 255.64 44.93 255.39 47.98 255.06 L 48.84 254.98 C 53.62 254.70 58.40 254.61 63.17 254.21 C 69.11 253.83 75.05 253.49 81.00 253.56 C 91.94 253.68 102.90 253.27 113.82 254.21 C 118.59 254.69 123.38 254.75 128.16 254.66 C 128.61 254.67 129.50 254.67 129.95 254.68 C 128.36 246.43 126.37 238.23 125.63 229.85 C 124.86 218.70 124.97 207.40 127.13 196.40 C 128.90 185.44 131.23 174.52 135.35 164.17 C 136.80 161.29 135.15 158.37 133.81 155.83 C 134.55 153.98 134.53 151.88 133.66 150.09 C 135.34 147.10 137.03 143.97 139.78 141.80 C 142.89 139.27 146.66 137.33 148.72 133.73 C 152.16 127.99 156.06 122.52 160.71 117.70 C 164.09 113.99 168.72 111.05 170.18 105.96 C 171.20 103.95 169.99 101.82 169.03 100.05 C 167.98 89.25 168.91 78.37 170.47 67.66 C 172.49 55.04 176.12 42.54 182.33 31.32 C 184.47 27.70 187.21 23.86 191.45 22.64 M 365.44 132.70 C 351.78 135.60 340.88 148.83 341.96 163.00 C 341.08 176.86 353.36 189.32 367.01 189.73 C 377.75 190.07 388.54 183.86 393.10 174.03 C 398.60 163.27 396.86 149.28 388.54 140.44 C 382.77 134.17 373.85 131.01 365.44 132.70 M 145.47 143.45 C 142.09 145.02 138.49 148.47 139.37 152.55 C 141.40 155.42 144.93 156.58 147.98 158.02 C 165.63 165.10 183.72 171.07 202.11 175.89 C 238.00 185.77 274.29 194.17 310.58 202.44 C 348.17 210.49 386.46 216.31 424.99 215.89 C 432.02 215.68 439.21 216.00 446.06 214.13 C 447.75 213.53 450.20 213.14 450.39 210.93 C 451.19 206.27 447.08 202.84 443.94 200.10 C 438.56 196.01 433.50 191.08 426.89 189.07 C 417.95 186.33 408.79 183.45 399.38 183.33 C 396.22 185.84 394.07 189.38 390.98 191.98 C 385.16 197.00 377.77 199.96 370.25 201.27 C 361.46 202.81 352.63 199.37 345.39 194.59 C 337.95 189.42 328.54 187.51 321.96 181.05 C 319.78 179.19 318.11 176.35 315.11 175.81 C 305.97 173.93 296.65 173.11 287.46 171.58 C 256.33 166.29 225.04 161.90 194.10 155.61 C 179.68 151.99 164.92 149.40 151.01 143.99 C 149.24 143.46 147.27 142.50 145.47 143.45 M 228.41 202.64 C 212.55 205.96 198.07 215.80 189.63 229.70 C 183.57 239.98 179.91 251.96 180.83 263.97 C 182.19 281.83 190.93 298.94 204.46 310.66 C 219.99 324.76 240.31 332.01 260.42 336.71 C 274.03 340.30 288.00 342.21 301.96 343.80 C 315.65 344.61 329.50 344.74 343.07 342.51 C 355.70 340.82 368.09 336.69 378.89 329.86 C 392.40 321.16 401.87 307.26 407.43 292.38 C 411.52 280.62 413.39 267.90 411.52 255.52 C 409.88 244.98 403.58 234.94 394.03 229.90 C 384.85 225.72 374.54 225.95 364.68 225.19 C 344.02 223.09 323.39 220.13 303.33 214.67 C 290.57 210.80 277.73 207.16 264.72 204.20 C 252.89 201.27 240.43 200.54 228.41 202.64 M 66.46 339.42 C 63.42 339.97 62.52 344.22 64.63 346.27 C 66.46 348.52 70.33 348.07 71.66 345.51 C 73.98 342.39 69.78 338.17 66.46 339.42 M 84.45 341.28 C 81.75 342.80 81.92 347.14 84.47 348.72 C 87.05 350.56 90.96 348.77 91.64 345.81 C 92.19 342.17 87.50 339.19 84.45 341.28 M 100.34 349.04 C 98.54 349.84 97.52 351.89 98.11 353.81 C 98.82 357.99 105.96 357.92 106.67 353.76 C 107.45 350.43 103.29 347.42 100.34 349.04 M 112.34 362.08 C 108.99 363.37 109.06 368.53 112.40 369.78 C 115.05 371.40 118.62 368.99 118.49 366.00 C 118.65 362.93 115.05 360.59 112.34 362.08 M 123.55 376.58 C 121.35 377.53 119.80 380.40 121.12 382.64 C 122.56 386.14 128.41 386.27 129.67 382.55 C 131.24 378.94 127.12 375.03 123.55 376.58 M 138.37 389.35 C 135.78 389.91 133.75 393.12 135.25 395.57 C 136.88 399.47 143.87 399.55 144.47 394.92 C 145.39 391.39 141.78 388.11 138.37 389.35 Z" opacity="1"/><path fill="#181818" d="M 666.34 177.29 C 675.13 174.63 685.87 179.03 689.08 187.92 C 692.89 196.69 687.51 207.60 678.58 210.56 C 668.85 214.44 656.12 208.47 654.01 197.93 C 651.85 189.16 657.34 179.27 666.34 177.29 Z" opacity="1"/><path fill="#181818" d="M 719.42 194.55 C 724.25 193.96 729.14 194.46 734.00 194.33 C 738.10 194.40 742.27 193.93 746.34 194.68 C 747.86 195.57 747.47 197.51 747.66 198.99 C 747.77 206.34 747.49 213.69 747.60 221.04 C 747.81 222.46 747.38 224.27 748.52 225.38 C 756.51 226.72 764.69 224.94 772.69 226.17 C 773.99 227.80 773.59 230.01 773.73 231.94 C 773.57 237.17 773.98 242.42 773.48 247.63 C 773.42 249.42 771.29 249.60 769.94 249.62 C 762.57 249.84 755.20 249.34 747.84 249.82 C 747.33 263.87 747.83 277.94 747.58 291.99 C 747.46 296.76 747.67 302.13 751.31 305.69 C 756.00 310.83 763.69 310.07 769.89 308.89 C 772.07 308.58 775.66 307.38 776.28 310.51 C 777.15 317.29 777.82 324.11 778.08 330.95 C 776.26 331.28 774.45 331.65 772.61 331.80 C 771.35 331.79 770.13 332.05 768.99 332.54 C 768.43 332.60 767.31 332.74 766.75 332.81 C 764.91 332.85 763.08 333.06 761.29 333.44 C 753.68 334.55 745.80 333.69 738.45 331.51 C 731.02 329.13 724.54 323.83 721.17 316.75 C 717.81 310.03 716.96 302.41 716.97 294.99 C 716.96 279.94 716.98 264.89 717.02 249.84 C 712.50 249.51 707.96 249.90 703.46 249.40 C 701.01 248.98 701.51 245.87 701.34 244.05 C 701.51 238.27 700.92 232.43 701.72 226.68 C 706.56 224.60 712.36 227.06 717.01 224.80 C 717.87 215.62 716.71 206.36 717.40 197.17 C 717.38 195.96 718.01 194.54 719.42 194.55 Z" opacity="1"/><path fill="#181818" d="M 546.81 231.77 C 559.79 222.76 576.66 222.01 591.78 224.63 C 601.40 226.63 611.26 225.52 621.00 225.81 C 626.15 226.00 631.43 225.19 636.48 226.47 C 637.34 231.83 637.13 237.35 636.62 242.73 C 636.62 244.14 634.93 244.53 633.83 244.58 C 629.52 244.84 625.20 244.66 620.91 245.10 C 623.14 249.82 626.33 254.19 627.37 259.39 C 628.85 267.35 628.06 275.90 624.04 283.03 C 618.60 293.72 607.48 300.31 596.12 303.01 C 586.87 304.96 577.35 304.35 567.98 304.12 C 567.24 305.96 565.63 308.00 566.89 310.00 C 568.87 313.90 573.73 314.65 577.63 315.27 C 590.07 316.35 602.63 314.74 615.05 316.22 C 624.07 317.51 633.34 321.71 638.20 329.78 C 643.34 338.52 643.81 350.00 639.01 359.00 C 634.29 368.14 625.45 374.56 615.88 377.89 C 598.38 384.24 579.28 384.06 561.05 381.60 C 551.78 379.83 542.09 376.63 535.63 369.37 C 529.72 362.67 528.85 352.60 532.60 344.64 C 535.16 337.98 541.13 333.71 546.84 329.90 C 543.24 326.55 539.25 323.08 537.89 318.15 C 536.47 312.85 536.99 306.77 540.25 302.22 C 542.12 299.59 544.52 297.42 546.83 295.19 C 542.72 291.27 538.35 287.41 535.67 282.32 C 526.59 265.79 531.16 242.70 546.81 231.77 M 576.31 246.36 C 570.65 247.23 565.29 250.65 562.75 255.87 C 558.60 263.52 560.80 274.02 567.80 279.24 C 576.01 285.01 588.79 284.31 595.49 276.49 C 601.17 270.29 602.03 259.96 596.75 253.26 C 592.05 247.14 583.65 245.11 576.31 246.36 M 570.35 338.51 C 566.32 339.36 562.01 341.16 559.88 344.91 C 557.36 349.31 558.60 355.31 562.56 358.44 C 567.97 362.82 575.27 363.61 582.00 363.82 C 589.52 363.79 597.36 363.47 604.28 360.22 C 608.63 358.18 612.31 354.00 612.36 349.00 C 612.59 345.24 609.99 341.89 606.75 340.27 C 601.29 337.48 594.97 337.59 589.00 337.59 C 582.78 337.67 576.50 337.37 570.35 338.51 Z" opacity="1"/><path fill="#181818" d="M 829.43 223.73 C 842.09 221.96 855.55 222.93 867.01 229.00 C 883.11 237.11 893.78 254.20 895.22 272.03 C 896.06 282.08 894.83 292.44 890.71 301.71 C 889.83 303.95 888.59 306.14 888.44 308.59 C 890.50 311.48 893.33 313.69 895.86 316.16 C 905.71 325.63 915.59 335.07 925.65 344.33 C 927.37 346.14 930.03 348.09 929.33 350.96 C 927.93 357.02 923.46 361.99 918.45 365.45 C 914.52 368.22 908.79 368.20 905.27 364.75 C 895.85 356.19 886.95 347.06 877.84 338.15 C 874.17 334.84 871.24 330.58 866.95 328.04 C 862.29 329.16 857.96 331.37 853.23 332.22 C 837.45 335.21 820.21 332.44 807.05 322.94 C 795.51 315.15 787.89 302.32 785.34 288.75 C 781.97 272.03 786.40 253.66 797.85 240.88 C 805.95 231.64 817.40 225.79 829.43 223.73 M 816.94 252.90 C 808.47 260.60 805.05 272.92 807.13 284.02 C 809.70 297.44 821.86 309.21 835.75 309.75 L 836.43 310.16 C 854.08 313.07 871.81 298.59 873.25 280.94 C 873.43 276.08 874.07 270.44 871.13 266.26 C 869.24 257.72 862.50 251.01 854.97 247.05 C 842.70 240.74 826.84 243.44 816.94 252.90 M 875.89 318.95 C 879.31 322.73 882.90 326.36 886.90 329.53 C 888.39 328.59 889.89 327.65 891.40 326.71 C 888.42 322.02 883.99 318.62 879.93 314.94 C 878.60 316.30 877.26 317.64 875.89 318.95 Z" opacity="1"/><path fill="#181818" d="M 1040.30 231.29 C 1055.17 223.41 1072.63 221.83 1089.13 223.90 C 1098.39 225.27 1107.82 228.67 1114.36 235.64 C 1122.63 244.13 1125.24 256.46 1125.63 267.93 C 1125.64 288.26 1125.65 308.61 1125.63 328.94 C 1125.98 331.64 1123.34 332.95 1121.02 332.63 C 1114.28 332.40 1107.45 333.19 1100.78 332.21 C 1098.25 329.54 1098.26 325.31 1097.06 321.93 C 1092.62 324.94 1088.34 328.28 1083.39 330.42 C 1074.36 334.52 1064.04 335.14 1054.36 333.55 C 1044.15 331.80 1034.61 325.43 1030.09 315.97 C 1025.85 306.51 1025.46 295.20 1029.69 285.68 C 1032.82 278.53 1039.31 273.36 1046.41 270.47 C 1062.08 264.66 1079.09 267.03 1095.40 267.16 C 1096.21 259.46 1091.91 251.32 1084.56 248.47 C 1075.33 245.09 1065.12 246.85 1056.08 250.03 C 1052.00 251.32 1048.30 253.67 1044.12 254.62 C 1041.84 254.79 1041.12 252.25 1040.36 250.62 C 1038.75 246.32 1036.77 242.15 1035.52 237.73 C 1034.46 234.52 1038.06 232.68 1040.30 231.29 M 1058.94 293.98 C 1055.19 299.08 1057.21 307.32 1063.04 309.95 C 1072.40 314.47 1084.55 312.17 1091.95 304.97 C 1096.36 300.59 1096.49 293.95 1096.15 288.15 C 1088.44 287.48 1080.66 287.46 1072.94 287.99 C 1067.85 288.42 1062.26 289.78 1058.94 293.98 Z" opacity="1"/><path fill="#181818" d="M 1189.26 229.23 C 1195.58 226.15 1202.79 224.03 1209.86 225.12 C 1212.88 225.33 1212.65 228.72 1212.71 230.95 C 1212.64 238.54 1212.66 246.13 1212.65 253.72 C 1205.16 253.69 1197.20 252.72 1190.28 256.26 C 1182.28 259.82 1177.15 268.35 1177.11 277.02 C 1176.89 291.35 1177.05 305.68 1177.04 320.00 C 1176.88 324.19 1177.87 328.80 1175.44 332.53 C 1166.27 332.07 1157.09 332.45 1147.92 332.22 L 1146.90 332.21 C 1146.28 322.48 1146.75 312.74 1146.61 303.00 C 1146.60 278.99 1146.64 254.98 1146.59 230.96 C 1146.68 229.12 1146.41 225.98 1149.09 226.03 C 1154.72 225.54 1160.38 225.91 1166.03 225.77 C 1168.07 225.93 1170.44 225.57 1172.23 226.80 C 1173.81 230.82 1174.07 235.20 1175.11 239.37 C 1180.04 236.28 1183.94 231.73 1189.26 229.23 Z" opacity="1"/><path fill="#181818" d="M 1267.62 231.63 C 1274.12 227.10 1282.10 224.47 1290.06 224.92 C 1292.04 225.02 1294.89 225.58 1294.98 228.08 C 1295.48 236.63 1295.50 245.24 1294.98 253.80 C 1287.49 253.45 1279.55 253.06 1272.73 256.72 C 1264.18 260.90 1259.00 270.57 1259.34 279.96 C 1259.46 295.65 1259.33 311.35 1259.44 327.04 C 1259.35 329.03 1259.55 332.44 1256.76 332.53 C 1248.59 332.70 1240.39 332.72 1232.23 332.53 C 1229.68 332.77 1229.09 329.98 1229.23 328.03 C 1229.30 298.69 1229.26 269.34 1229.27 240.00 C 1229.34 235.56 1228.82 231.05 1229.71 226.66 C 1235.29 224.96 1241.25 226.10 1247.00 225.77 C 1249.58 226.03 1252.76 225.23 1254.87 227.11 C 1256.27 231.02 1256.45 235.24 1257.36 239.28 C 1261.41 237.65 1264.07 234.03 1267.62 231.63 Z" opacity="1"/><path fill="#181818" d="M 657.26 226.20 C 661.79 225.45 666.42 225.94 671.00 225.83 C 675.57 225.93 680.20 225.39 684.73 226.23 C 686.57 226.49 686.70 228.49 686.65 229.96 C 686.57 259.31 686.63 288.66 686.62 318.00 C 686.53 322.17 687.01 326.38 686.38 330.52 C 685.83 332.91 682.89 332.54 681.05 332.67 C 674.02 332.56 667.00 332.63 659.98 332.65 C 658.53 332.54 656.29 332.71 655.99 330.80 C 655.27 326.91 655.69 322.93 655.63 319.00 C 655.66 292.67 655.65 266.33 655.63 240.00 C 655.69 235.76 655.26 231.47 656.00 227.27 C 656.31 227.00 656.94 226.47 657.26 226.20 Z" opacity="1"/><path fill="#181818" d="M 911.02 227.28 C 912.29 225.30 914.99 226.05 916.98 225.78 C 924.24 226.02 931.55 225.35 938.78 226.15 C 939.09 226.43 939.71 226.97 940.02 227.25 C 940.70 231.12 940.34 235.08 940.38 239.00 C 940.36 256.02 940.40 273.05 940.34 290.07 C 940.02 296.70 943.61 303.43 949.63 306.39 C 958.94 310.71 970.84 308.22 978.11 301.10 C 981.13 298.26 980.82 293.80 980.87 290.01 C 980.58 271.00 981.00 251.98 980.71 232.97 C 980.72 230.79 980.67 228.55 981.43 226.47 C 983.87 225.71 986.46 225.80 989.00 225.78 C 996.00 225.90 1003.02 225.57 1010.02 226.11 C 1010.78 240.39 1010.16 254.71 1010.35 269.00 C 1010.36 288.35 1010.32 307.70 1010.40 327.05 C 1010.26 329.00 1010.53 332.43 1007.78 332.53 C 1001.84 332.85 995.88 332.54 989.94 332.68 C 988.40 332.49 986.49 332.89 985.30 331.73 C 983.76 328.77 983.18 325.43 982.19 322.27 C 977.48 325.20 973.11 328.75 967.98 330.94 C 959.98 334.52 950.90 334.89 942.35 333.58 C 932.82 332.06 923.55 327.07 918.28 318.79 C 912.11 309.11 910.40 297.30 910.61 286.01 C 910.65 268.33 910.71 250.66 910.59 232.98 C 910.61 231.07 910.60 229.15 911.02 227.28 Z" opacity="1"/><path fill="#181818" d="M 1307.20 226.14 C 1312.09 225.40 1317.06 225.98 1322.00 225.82 C 1326.12 225.95 1330.41 225.31 1334.42 226.57 C 1336.70 229.99 1337.57 234.10 1339.10 237.88 C 1343.79 249.96 1348.00 262.22 1352.70 274.30 C 1355.04 280.09 1356.79 286.13 1359.83 291.62 C 1363.28 284.10 1365.61 276.15 1368.41 268.38 C 1372.35 257.59 1375.95 246.67 1379.76 235.84 C 1380.92 232.70 1381.53 229.25 1383.53 226.50 C 1387.20 225.30 1391.18 225.95 1395.00 225.81 C 1400.73 226.08 1406.67 224.95 1412.20 226.97 C 1410.17 234.69 1407.06 242.05 1404.53 249.60 C 1390.93 287.95 1377.28 326.29 1363.65 364.63 C 1362.00 369.03 1360.89 373.64 1358.88 377.90 C 1357.59 380.96 1353.64 380.03 1351.01 380.32 C 1344.10 379.99 1337.12 380.83 1330.27 379.83 C 1327.95 378.95 1329.05 376.32 1329.52 374.60 C 1334.25 361.34 1339.18 348.15 1344.02 334.93 C 1346.24 330.05 1342.75 325.33 1341.18 320.84 C 1329.73 291.28 1318.41 261.68 1306.86 232.16 C 1306.31 230.27 1304.71 227.32 1307.20 226.14 Z" opacity="1"/><path fill="#181818" d="M 408.44 355.54 C 414.67 353.99 420.89 356.76 426.17 359.87 C 439.46 367.74 451.00 378.30 460.88 390.13 C 463.64 393.36 465.65 397.23 468.77 400.15 C 472.02 401.97 476.05 401.80 479.23 403.81 C 482.08 405.95 483.15 409.58 484.12 412.86 C 485.46 418.14 486.63 423.58 486.36 429.06 C 486.21 433.75 481.98 436.78 480.66 441.02 C 480.22 444.19 479.95 447.39 479.59 450.58 C 478.88 447.64 478.37 444.67 478.10 441.66 C 477.83 441.39 477.30 440.85 477.04 440.58 C 477.22 443.74 477.59 447.16 475.33 449.73 C 475.25 447.39 475.13 445.06 475.04 442.73 C 473.79 442.96 472.54 443.20 471.30 443.43 C 470.51 443.41 468.94 443.38 468.15 443.36 C 468.35 441.60 468.56 439.86 468.78 438.12 C 471.05 437.39 473.27 436.51 475.42 435.48 C 479.13 433.48 481.61 429.39 480.92 425.11 C 480.06 419.42 479.33 413.38 476.39 408.35 C 473.79 406.75 470.53 408.23 467.76 408.65 C 459.77 410.92 451.39 410.89 443.34 412.84 C 441.68 412.43 440.04 412.01 438.40 411.57 C 442.39 410.55 446.45 409.80 450.57 409.59 C 450.28 408.40 449.99 407.22 449.71 406.04 C 452.17 405.62 454.63 405.20 457.06 404.64 C 458.92 404.10 460.75 403.49 462.60 402.90 C 455.59 391.16 445.94 381.23 435.39 372.63 C 429.94 368.32 424.28 364.12 417.85 361.36 C 416.02 360.61 414.13 359.92 412.15 359.79 C 410.66 360.47 409.51 361.68 408.26 362.71 C 413.79 370.74 420.65 377.76 425.96 385.94 C 429.77 391.78 433.19 397.92 435.37 404.57 C 432.50 402.43 430.75 399.21 428.29 396.66 C 428.99 399.99 430.54 403.22 430.48 406.67 C 429.61 409.38 427.60 411.52 425.96 413.79 C 425.77 413.16 425.39 411.90 425.20 411.27 C 426.29 409.47 427.39 407.68 428.52 405.89 C 424.21 395.40 417.88 385.91 411.21 376.80 C 408.47 372.81 405.09 369.16 403.24 364.65 C 401.59 360.82 404.60 356.41 408.44 355.54 Z" opacity="1"/><path fill="#181818" d="M 345.91 425.20 C 352.94 425.28 357.15 418.21 363.99 417.70 C 369.70 417.06 376.15 418.46 379.98 423.05 C 381.65 424.91 381.65 427.54 382.06 429.88 C 379.82 431.83 377.68 434.10 374.82 435.10 C 372.46 435.48 370.12 434.63 367.82 434.21 C 366.59 432.90 364.46 431.95 362.92 433.35 C 361.53 432.53 360.13 431.73 358.76 430.88 C 357.42 429.74 355.39 429.24 353.93 430.46 C 351.04 429.07 348.25 427.41 345.91 425.20 Z" opacity="1"/></g><g id="#4f4e4efe"><path fill="#4f4e4e" d="M 410.88 59.97 C 412.34 58.77 414.27 58.43 416.06 59.08 C 414.63 60.38 412.65 60.65 410.88 59.97 Z" opacity="1"/><path fill="#4f4e4e" d="M 265.01 60.93 C 269.96 60.10 275.02 60.17 279.98 60.90 C 275.00 60.54 269.99 60.53 265.01 60.93 Z" opacity="1"/><path fill="#4f4e4e" d="M 406.05 60.99 C 407.11 59.81 408.73 59.44 410.22 60.01 C 409.19 61.28 407.52 61.66 406.05 60.99 Z" opacity="1"/><path fill="#4f4e4e" d="M 443.16 72.97 C 444.23 77.56 444.77 82.28 444.76 87.00 C 444.73 94.40 444.97 101.82 444.24 109.19 C 444.22 97.12 444.98 84.95 443.16 72.97 Z" opacity="1"/><path fill="#4f4e4e" d="M 169.03 100.05 C 169.99 101.82 171.20 103.95 170.18 105.96 C 168.51 104.44 168.72 102.07 169.03 100.05 Z" opacity="1"/><path fill="#4f4e4e" d="M 133.81 155.83 C 132.58 154.12 132.27 151.81 133.66 150.09 C 134.53 151.88 134.55 153.98 133.81 155.83 Z" opacity="1"/><path fill="#4f4e4e" d="M 442.17 178.90 C 443.27 180.39 443.59 182.28 443.02 184.05 C 441.65 182.67 441.36 180.65 442.17 178.90 Z" opacity="1"/><path fill="#4f4e4e" d="M 440.08 231.82 C 438.96 230.32 437.42 227.32 439.93 226.34 C 440.43 228.13 440.21 229.99 440.08 231.82 Z" opacity="1"/><path fill="#4f4e4e" d="M 440.13 232.60 C 441.10 242.80 441.03 253.13 439.21 263.23 C 440.36 253.07 440.65 242.82 440.13 232.60 Z" opacity="1"/><path fill="#4f4e4e" d="M 48.84 254.98 C 53.60 254.40 58.39 254.33 63.17 254.21 C 58.40 254.61 53.62 254.70 48.84 254.98 Z" opacity="1"/><path fill="#4f4e4e" d="M 113.82 254.21 C 118.60 254.38 123.38 254.49 128.16 254.66 C 123.38 254.75 118.59 254.69 113.82 254.21 Z" opacity="1"/><path fill="#4f4e4e" d="M 38.81 255.90 C 41.86 255.55 44.92 255.32 47.98 255.06 C 44.93 255.39 41.87 255.64 38.81 255.90 Z" opacity="1"/><path fill="#4f4e4e" d="M 30.84 256.95 C 33.04 255.70 35.57 255.45 38.02 255.98 C 35.88 257.40 33.29 257.67 30.84 256.95 Z" opacity="1"/><path fill="#4f4e4e" d="M 23.84 257.93 C 25.78 256.74 28.07 256.45 30.25 257.05 C 28.35 258.34 26.02 258.62 23.84 257.93 Z" opacity="1"/><path fill="#4f4e4e" d="M 17.95 258.90 C 19.47 257.73 21.43 257.43 23.24 258.07 C 21.75 259.31 19.74 259.62 17.95 258.90 Z" opacity="1"/><path fill="#4f4e4e" d="M 437.95 269.00 C 437.32 267.52 437.71 265.86 439.00 264.88 C 439.57 266.36 439.17 267.97 437.95 269.00 Z" opacity="1"/><path fill="#4f4e4e" d="M 108.83 269.75 C 113.28 269.46 117.73 269.36 122.18 269.30 C 117.74 269.58 113.28 269.67 108.83 269.75 Z" opacity="1"/><path fill="#4f4e4e" d="M 76.94 272.88 C 78.77 271.69 80.98 271.44 83.05 272.16 C 81.24 273.44 79.00 273.66 76.94 272.88 Z" opacity="1"/><path fill="#4f4e4e" d="M 454.01 287.06 C 456.43 286.34 459.00 286.57 461.19 287.89 C 458.75 288.54 456.21 288.30 454.01 287.06 Z" opacity="1"/><path fill="#4f4e4e" d="M 461.78 288.01 C 463.96 287.35 466.27 287.63 468.19 288.88 C 466.00 289.53 463.70 289.23 461.78 288.01 Z" opacity="1"/><path fill="#4f4e4e" d="M 468.81 289.03 C 470.63 288.36 472.64 288.65 474.17 289.87 C 472.33 290.53 470.34 290.20 468.81 289.03 Z" opacity="1"/><path fill="#4f4e4e" d="M 474.84 290.04 C 476.33 289.37 478.03 289.70 479.13 290.94 C 477.62 291.53 475.98 291.18 474.84 290.04 Z" opacity="1"/><path fill="#4f4e4e" d="M 479.85 290.97 C 481.33 290.36 482.97 290.72 484.04 291.93 C 482.55 292.57 480.89 292.19 479.85 290.97 Z" opacity="1"/><path fill="#4f4e4e" d="M 427.32 302.99 C 428.49 300.65 431.35 301.82 433.08 302.76 C 431.18 303.10 429.22 303.47 427.32 302.99 Z" opacity="1"/><path fill="#4f4e4e" d="M 433.72 302.95 C 435.54 302.33 437.52 302.66 438.99 303.94 C 437.16 304.56 435.19 304.18 433.72 302.95 Z" opacity="1"/><path fill="#4f4e4e" d="M 445.92 305.11 C 447.38 304.41 449.05 304.72 450.19 305.89 C 448.71 306.56 447.04 306.27 445.92 305.11 Z" opacity="1"/><path fill="#4f4e4e" d="M 450.89 306.03 C 452.38 305.38 454.07 305.73 455.14 306.99 C 453.63 307.57 451.99 307.19 450.89 306.03 Z" opacity="1"/><path fill="#4f4e4e" d="M 455.85 306.93 C 457.34 306.36 458.97 306.75 460.02 307.97 C 458.52 308.59 456.86 308.19 455.85 306.93 Z" opacity="1"/><path fill="#4f4e4e" d="M 72.86 330.82 C 77.93 330.01 83.11 330.06 88.19 330.78 C 83.08 330.51 77.96 330.51 72.86 330.82 Z" opacity="1"/><path fill="#4f4e4e" d="M 768.99 332.54 C 770.13 332.05 771.35 331.79 772.61 331.80 C 772.78 333.60 769.63 334.10 768.99 332.54 Z" opacity="1"/><path fill="#4f4e4e" d="M 1147.92 332.22 C 1157.09 332.45 1166.27 332.07 1175.44 332.53 C 1166.27 332.47 1157.05 333.18 1147.92 332.22 Z" opacity="1"/><path fill="#4f4e4e" d="M 761.29 333.44 C 763.08 333.06 764.91 332.85 766.75 332.81 C 766.36 334.91 762.48 334.98 761.29 333.44 Z" opacity="1"/><path fill="#4f4e4e" d="M 50.70 352.85 C 48.94 351.06 49.40 348.12 50.71 346.20 C 51.24 348.38 51.28 350.67 50.70 352.85 Z" opacity="1"/><path fill="#4f4e4e" d="M 428.29 396.66 C 430.75 399.21 432.50 402.43 435.37 404.57 C 435.71 405.43 436.06 406.29 436.41 407.16 C 440.86 407.10 445.32 406.83 449.71 406.04 C 449.99 407.22 450.28 408.40 450.57 409.59 C 446.45 409.80 442.39 410.55 438.40 411.57 C 440.04 412.01 441.68 412.43 443.34 412.84 C 442.82 412.96 441.79 413.20 441.28 413.32 C 438.87 413.25 436.47 413.13 434.08 412.99 C 435.84 422.01 437.12 431.12 438.87 440.14 C 448.86 440.54 458.93 439.90 468.78 438.12 C 468.56 439.86 468.35 441.60 468.15 443.36 C 468.94 443.38 470.51 443.41 471.30 443.43 C 469.89 443.72 468.49 444.05 467.07 444.32 C 462.77 445.04 458.43 445.46 454.10 446.01 C 455.22 452.94 456.02 459.95 455.81 466.99 C 455.56 474.44 456.38 481.96 455.05 489.34 C 454.51 492.55 453.81 495.73 453.14 498.92 C 454.19 499.97 455.24 501.02 456.30 502.09 C 457.67 500.78 459.05 499.48 460.38 498.14 C 464.22 494.60 467.85 490.64 469.84 485.74 C 474.65 474.41 475.11 461.86 475.33 449.73 C 477.59 447.16 477.22 443.74 477.04 440.58 C 477.30 440.85 477.83 441.39 478.10 441.66 C 478.37 444.67 478.88 447.64 479.59 450.58 C 479.95 447.39 480.22 444.19 480.66 441.02 C 480.15 447.07 480.90 453.13 480.90 459.19 C 487.91 458.29 495.34 457.38 502.09 460.07 C 494.79 458.88 487.33 459.06 480.06 460.28 C 479.49 466.43 479.38 472.62 478.63 478.76 C 478.40 480.10 478.14 481.44 477.83 482.78 C 476.74 485.88 475.57 488.96 474.56 492.09 C 481.48 497.23 489.38 501.01 497.57 503.66 C 501.47 505.19 503.84 500.53 506.06 498.14 L 506.47 497.56 C 505.36 501.50 504.31 505.66 504.95 509.76 C 506.56 512.14 509.39 513.20 511.95 514.21 C 516.04 515.65 520.20 516.90 524.45 517.78 C 529.68 518.92 534.93 517.35 540.00 516.17 C 541.12 519.01 541.26 523.70 545.06 524.21 C 550.44 524.30 555.57 520.42 557.60 515.55 C 558.40 511.16 555.81 506.97 552.59 504.21 C 549.89 501.75 547.37 499.10 545.09 496.26 C 545.59 495.92 546.60 495.25 547.10 494.91 C 552.37 498.13 557.07 504.15 563.88 503.18 C 568.49 502.59 573.12 501.52 577.31 499.46 C 579.47 498.50 579.75 495.90 580.44 493.93 C 581.69 497.92 581.61 502.13 581.36 506.26 C 579.87 505.69 579.14 506.12 579.17 507.57 C 580.24 508.05 580.97 507.62 581.36 506.26 C 583.68 505.10 586.12 504.21 588.58 503.39 C 586.15 505.01 583.85 506.80 581.52 508.56 C 587.23 514.38 596.05 515.48 603.73 513.91 C 606.27 513.61 607.21 511.00 608.44 509.15 C 609.03 509.80 609.62 510.45 610.21 511.12 C 608.47 513.37 606.78 515.95 603.97 516.97 C 596.10 520.16 586.86 519.12 579.80 514.43 C 579.48 512.14 579.17 509.85 578.85 507.57 C 576.16 510.91 573.73 514.71 569.92 516.89 C 566.38 518.91 562.17 518.01 558.34 518.73 C 554.39 520.77 551.70 525.33 546.88 525.55 C 540.53 525.97 534.17 525.55 527.81 525.81 C 527.48 528.36 527.85 531.72 524.96 532.91 C 519.12 536.01 512.08 538.71 505.47 536.53 C 500.17 534.89 494.83 533.02 490.22 529.86 C 490.12 528.43 490.04 527.00 489.95 525.58 C 495.55 528.63 501.58 530.85 507.75 532.45 C 513.53 534.05 519.52 531.48 524.15 528.10 C 526.59 526.91 524.87 523.83 523.22 522.73 C 519.01 519.72 514.06 517.60 508.94 516.78 C 504.16 516.20 499.51 517.95 495.31 520.05 C 492.34 521.52 489.47 523.21 486.59 524.83 C 486.27 525.01 485.64 525.36 485.33 525.53 C 482.96 525.18 480.59 524.86 478.25 524.39 C 476.92 523.95 475.62 523.46 474.36 522.89 C 469.48 519.88 464.09 516.57 458.08 517.74 C 457.97 516.94 457.75 515.33 457.63 514.53 C 453.58 515.26 449.62 516.38 445.64 517.41 C 440.95 518.68 435.95 517.59 431.33 519.21 C 422.09 522.45 411.54 520.52 403.20 515.72 C 399.73 513.63 395.65 509.39 398.10 505.11 C 400.82 501.31 405.96 500.73 410.04 499.13 C 411.53 495.35 412.80 490.72 416.92 489.00 C 427.13 484.77 438.16 483.06 449.08 481.87 C 449.72 469.91 449.43 457.74 445.67 446.26 C 441.95 445.83 437.91 446.23 434.49 444.51 C 432.23 442.17 431.79 438.75 431.04 435.73 C 429.51 428.38 428.01 421.01 425.96 413.79 C 427.60 411.52 429.61 409.38 430.48 406.67 C 430.54 403.22 428.99 399.99 428.29 396.66 M 427.09 495.58 L 426.62 494.93 C 426.72 497.55 426.76 500.17 426.80 502.80 C 430.60 505.46 433.55 509.17 437.44 511.69 C 443.00 513.83 448.74 510.91 453.46 508.07 C 454.41 509.89 455.36 511.71 456.32 513.53 C 460.73 514.63 465.11 515.91 469.24 517.85 C 473.51 519.72 478.08 521.79 482.86 521.19 C 486.16 519.33 488.05 512.87 484.25 511.08 C 481.85 506.85 478.65 503.06 475.08 499.79 C 470.02 496.52 465.32 502.30 461.28 504.72 C 457.89 503.55 454.12 504.87 450.60 504.88 C 445.82 499.94 440.43 495.11 433.79 492.91 C 431.13 491.80 429.10 494.30 427.09 495.58 M 409.17 502.16 C 405.80 504.05 409.19 507.46 411.31 508.76 C 416.45 512.84 423.28 512.85 429.48 511.99 C 427.86 503.35 417.00 496.83 409.17 502.16 Z" opacity="1"/><path fill="#4f4e4e" d="M 153.83 420.17 C 156.21 420.36 158.60 420.45 161.00 420.55 C 160.67 422.03 160.33 423.51 160.02 425.00 C 160.14 423.73 160.25 422.45 160.33 421.19 C 158.16 420.85 155.99 420.52 153.83 420.17 Z" opacity="1"/><path fill="#4f4e4e" d="M 232.16 430.03 C 231.33 427.97 231.58 425.70 232.96 423.95 C 233.59 426.02 233.29 428.19 232.16 430.03 Z" opacity="1"/><path fill="#4f4e4e" d="M 270.47 425.17 L 271.16 425.33 C 271.51 426.71 271.00 427.48 269.64 427.64 C 269.85 427.02 270.26 425.78 270.47 425.17 Z" opacity="1"/><path fill="#4f4e4e" d="M 313.66 433.05 C 312.54 431.09 311.92 427.86 314.81 427.18 C 314.67 429.17 314.18 431.12 313.66 433.05 Z" opacity="1"/><path fill="#4f4e4e" d="M 269.78 464.22 C 268.90 452.38 269.20 440.47 269.64 428.61 C 269.95 440.48 269.20 452.36 269.78 464.22 Z" opacity="1"/><path fill="#4f4e4e" d="M 353.93 430.46 C 355.39 429.24 357.42 429.74 358.76 430.88 C 357.21 431.72 355.34 431.42 353.93 430.46 Z" opacity="1"/><path fill="#4f4e4e" d="M 508.15 429.94 L 508.81 430.32 C 512.80 432.49 516.76 435.28 521.42 435.61 C 524.90 435.26 527.62 432.70 530.59 431.08 C 528.56 435.84 524.83 440.15 519.76 441.68 C 515.91 442.35 512.36 439.84 509.80 437.23 C 507.74 435.37 508.38 432.40 508.15 429.94 Z" opacity="1"/><path fill="#4f4e4e" d="M 279.18 431.92 C 280.47 433.71 280.65 435.97 279.86 438.02 C 278.70 436.17 278.44 433.97 279.18 431.92 Z" opacity="1"/><path fill="#4f4e4e" d="M 362.92 433.35 C 364.46 431.95 366.59 432.90 367.82 434.21 C 366.14 434.38 364.32 434.46 362.92 433.35 Z" opacity="1"/><path fill="#4f4e4e" d="M 556.78 443.66 C 552.22 444.24 547.46 439.76 548.88 435.09 C 550.61 436.77 552.08 438.91 554.35 439.92 C 557.57 440.82 560.92 439.83 564.13 439.32 C 561.90 441.07 559.69 443.19 556.78 443.66 Z" opacity="1"/><path fill="#4f4e4e" d="M 314.18 435.76 C 315.29 437.36 315.52 439.37 314.88 441.21 C 313.67 439.63 313.44 437.58 314.18 435.76 Z" opacity="1"/><path fill="#4f4e4e" d="M 195.15 443.11 C 194.43 441.36 194.66 439.41 195.83 437.92 C 196.59 439.65 196.37 441.64 195.15 443.11 Z" opacity="1"/><path fill="#4f4e4e" d="M 315.05 442.78 C 316.21 443.91 316.53 445.58 315.87 447.07 C 314.70 445.93 314.39 444.26 315.05 442.78 Z" opacity="1"/><path fill="#4f4e4e" d="M 535.62 460.56 C 535.92 460.74 536.53 461.09 536.84 461.27 C 538.83 462.60 540.44 464.39 542.02 466.18 C 541.10 467.18 540.19 468.18 539.35 469.25 C 539.22 471.19 539.53 473.22 538.96 475.11 C 536.79 477.79 533.65 479.41 530.87 481.34 C 532.78 483.17 534.71 484.99 536.65 486.80 C 527.11 486.84 517.07 488.25 509.37 494.36 L 508.97 493.75 C 505.36 487.72 499.61 483.43 493.62 479.99 C 496.55 479.51 499.62 478.89 502.03 477.03 C 505.52 474.15 507.45 469.94 509.78 466.16 C 510.49 469.24 511.88 472.54 510.47 475.64 C 510.02 477.81 507.60 481.09 510.57 482.44 C 519.51 486.78 531.02 481.78 535.44 473.25 C 537.64 469.24 536.71 464.73 535.62 460.56 Z" opacity="1"/><path fill="#4f4e4e" d="M 369.39 520.50 C 370.76 519.37 372.38 518.61 373.96 517.80 C 373.16 518.98 372.42 520.19 371.67 521.41 C 374.67 523.00 377.72 524.75 381.16 525.17 C 385.31 525.72 389.48 525.02 393.60 524.52 C 389.23 528.40 383.31 530.86 377.43 529.39 C 373.32 528.56 367.73 525.55 369.39 520.50 Z" opacity="1"/><path fill="#4f4e4e" d="M 436.56 529.37 C 434.97 525.34 439.16 522.61 442.47 521.65 C 441.91 522.57 441.37 523.51 440.85 524.46 C 441.16 530.44 448.61 531.03 453.15 532.10 C 461.52 534.08 468.81 528.84 476.49 526.61 C 477.69 527.17 478.89 527.73 480.09 528.29 C 471.20 533.33 461.14 538.35 450.61 536.24 C 445.60 534.96 439.94 533.56 436.56 529.37 Z" opacity="1"/><path fill="#4f4e4e" d="M 554.41 529.57 C 553.63 526.76 556.92 525.35 558.50 523.63 C 558.35 525.36 558.21 527.10 558.07 528.84 C 564.81 530.00 573.22 532.82 578.80 527.31 C 579.10 527.59 579.70 528.14 580.01 528.42 C 578.71 533.26 573.08 534.10 568.85 534.65 C 563.76 534.90 557.49 534.15 554.41 529.57 Z" opacity="1"/></g><g id="#fec81dff"><path fill="#fec81d" d="M 286.40 61.57 C 295.50 58.29 305.46 58.82 314.86 60.20 C 320.85 66.59 329.57 69.17 335.97 75.03 C 349.19 86.80 360.96 101.43 365.12 118.96 C 350.26 117.23 334.88 121.84 323.25 131.21 C 311.73 140.57 305.07 155.16 304.36 169.88 C 295.27 169.51 286.33 167.73 277.33 166.55 C 246.21 162.13 215.25 156.65 184.45 150.41 C 172.67 148.01 161.28 144.13 149.88 140.40 C 150.61 138.96 151.32 137.51 152.00 136.04 C 167.99 140.68 183.80 146.33 200.38 148.53 C 214.44 150.35 229.00 149.82 242.58 145.52 C 257.07 141.12 270.23 132.58 280.36 121.35 C 283.60 117.78 286.30 113.07 285.15 108.07 C 282.16 91.87 272.71 77.89 263.02 64.94 C 270.69 64.14 278.66 63.51 286.14 65.84 C 295.43 68.79 303.30 75.10 309.52 82.48 C 314.68 88.50 318.26 95.65 322.95 102.01 C 320.02 90.82 314.26 80.16 305.61 72.36 C 300.11 67.37 293.30 64.14 286.40 61.57 Z" opacity="1"/><path fill="#fec81d" d="M 364.99 87.17 C 390.86 101.10 410.72 124.40 423.47 150.60 C 429.10 162.00 433.28 174.30 434.23 187.04 C 423.65 183.36 412.78 180.64 401.96 177.77 C 404.23 170.18 406.63 162.19 404.79 154.22 C 402.36 139.81 391.66 127.64 378.18 122.36 C 378.23 120.96 378.31 119.56 378.25 118.16 C 378.23 112.30 375.48 106.98 373.34 101.68 C 371.22 96.49 368.25 91.71 364.99 87.17 Z" opacity="1"/><path fill="#fec81d" d="M 145.47 143.45 C 147.27 142.50 149.24 143.46 151.01 143.99 C 164.92 149.40 179.68 151.99 194.10 155.61 C 225.04 161.90 256.33 166.29 287.46 171.58 C 296.65 173.11 305.97 173.93 315.11 175.81 C 318.11 176.35 319.78 179.19 321.96 181.05 C 328.54 187.51 337.95 189.42 345.39 194.59 C 352.63 199.37 361.46 202.81 370.25 201.27 C 377.77 199.96 385.16 197.00 390.98 191.98 C 394.07 189.38 396.22 185.84 399.38 183.33 C 408.79 183.45 417.95 186.33 426.89 189.07 C 433.50 191.08 438.56 196.01 443.94 200.10 C 447.08 202.84 451.19 206.27 450.39 210.93 C 450.20 213.14 447.75 213.53 446.06 214.13 C 439.21 216.00 432.02 215.68 424.99 215.89 C 386.46 216.31 348.17 210.49 310.58 202.44 C 274.29 194.17 238.00 185.77 202.11 175.89 C 183.72 171.07 165.63 165.10 147.98 158.02 C 144.93 156.58 141.40 155.42 139.37 152.55 C 138.49 148.47 142.09 145.02 145.47 143.45 Z" opacity="1"/></g><g id="#fee172ff"><path fill="#fee172" d="M 314.86 60.20 C 325.69 62.31 335.55 67.48 345.06 72.87 C 352.91 78.21 359.74 85.03 365.16 92.83 C 370.78 100.56 374.51 109.42 378.25 118.16 C 378.31 119.56 378.23 120.96 378.18 122.36 C 373.95 120.82 369.56 119.68 365.12 118.96 C 360.96 101.43 349.19 86.80 335.97 75.03 C 329.57 69.17 320.85 66.59 314.86 60.20 Z" opacity="1"/><path fill="#fee172" d="M 365.44 132.70 C 373.85 131.01 382.77 134.17 388.54 140.44 C 396.86 149.28 398.60 163.27 393.10 174.03 C 388.54 183.86 377.75 190.07 367.01 189.73 C 353.36 189.32 341.08 176.86 341.96 163.00 C 340.88 148.83 351.78 135.60 365.44 132.70 M 367.44 143.56 C 363.51 144.27 359.60 145.87 356.78 148.77 C 351.85 153.80 350.01 161.57 351.90 168.31 C 354.18 173.94 359.65 178.89 366.00 178.79 C 376.67 179.45 386.17 168.62 384.66 158.15 C 384.25 154.40 383.20 150.36 380.15 147.88 C 376.65 145.00 372.11 142.51 367.44 143.56 Z" opacity="1"/></g><g id="#fefefeff"><path fill="#fefefe" d="M 367.44 143.56 C 372.11 142.51 376.65 145.00 380.15 147.88 C 383.20 150.36 384.25 154.40 384.66 158.15 C 386.17 168.62 376.67 179.45 366.00 178.79 C 359.65 178.89 354.18 173.94 351.90 168.31 C 350.01 161.57 351.85 153.80 356.78 148.77 C 359.60 145.87 363.51 144.27 367.44 143.56 Z" opacity="1"/><path fill="#fefefe" d="M 246.26 221.06 C 260.49 218.63 274.16 229.30 278.85 242.28 C 283.07 255.63 280.29 270.84 272.29 282.24 C 269.00 287.20 265.02 291.97 259.55 294.60 C 247.54 301.65 230.60 299.02 221.59 288.32 C 214.32 279.26 213.36 266.83 215.53 255.79 C 217.45 246.65 221.94 238.11 228.05 231.08 C 232.75 225.78 239.28 222.22 246.26 221.06 M 253.36 239.35 C 243.65 242.35 237.39 251.83 235.26 261.37 C 233.83 268.81 233.76 277.27 238.28 283.73 C 241.18 288.35 246.50 291.39 252.01 291.05 C 259.43 290.71 265.56 285.45 269.63 279.61 C 276.28 269.78 278.65 255.73 271.52 245.52 C 267.71 239.71 259.90 237.22 253.36 239.35 Z" opacity="1"/><path fill="#fefefe" d="M 376.16 240.33 C 384.50 239.64 392.06 245.64 394.93 253.19 C 398.25 262.26 397.87 272.24 395.69 281.53 C 392.94 292.97 387.58 304.89 377.20 311.28 C 371.46 315.24 363.97 314.99 357.43 313.70 C 347.81 310.34 341.46 300.16 342.02 290.06 C 342.90 275.43 347.53 260.52 357.44 249.43 C 362.39 244.46 368.92 240.32 376.16 240.33 M 370.31 256.39 C 365.85 257.63 361.97 260.59 359.27 264.32 C 353.88 271.64 351.11 280.93 351.88 290.01 C 352.47 295.78 354.58 302.10 359.88 305.18 C 364.15 308.00 369.88 307.88 374.28 305.40 C 387.00 297.50 390.63 280.34 387.42 266.53 C 385.55 259.34 377.67 254.01 370.31 256.39 Z" opacity="1"/><path fill="#fefefe" d="M 816.94 252.90 C 826.84 243.44 842.70 240.74 854.97 247.05 C 862.50 251.01 869.24 257.72 871.13 266.26 C 867.81 263.15 864.73 259.56 860.58 257.54 C 856.93 255.77 852.83 256.66 849.00 257.02 C 845.11 257.50 841.11 257.35 837.33 258.49 C 827.48 261.73 820.10 271.54 820.13 281.97 C 819.68 290.12 823.25 298.23 829.15 303.79 C 831.28 305.85 833.48 307.84 835.75 309.75 C 821.86 309.21 809.70 297.44 807.13 284.02 C 805.05 272.92 808.47 260.60 816.94 252.90 Z" opacity="1"/><path fill="#fefefe" d="M 263.33 249.45 C 270.15 249.13 270.86 259.84 265.36 262.29 C 261.85 264.16 256.78 261.11 257.22 257.05 C 256.85 253.36 259.73 249.97 263.33 249.45 Z" opacity="1"/><path fill="#fefefe" d="M 374.47 266.38 C 377.69 264.88 381.66 267.64 381.73 271.09 C 382.09 275.35 378.02 280.31 373.48 278.59 C 368.56 276.11 369.36 268.19 374.47 266.38 Z" opacity="1"/><path fill="#fefefe" d="M 66.46 339.42 C 69.78 338.17 73.98 342.39 71.66 345.51 C 70.33 348.07 66.46 348.52 64.63 346.27 C 62.52 344.22 63.42 339.97 66.46 339.42 Z" opacity="1"/><path fill="#fefefe" d="M 84.45 341.28 C 87.50 339.19 92.19 342.17 91.64 345.81 C 90.96 348.77 87.05 350.56 84.47 348.72 C 81.92 347.14 81.75 342.80 84.45 341.28 Z" opacity="1"/><path fill="#fefefe" d="M 100.34 349.04 C 103.29 347.42 107.45 350.43 106.67 353.76 C 105.96 357.92 98.82 357.99 98.11 353.81 C 97.52 351.89 98.54 349.84 100.34 349.04 Z" opacity="1"/><path fill="#fefefe" d="M 112.34 362.08 C 115.05 360.59 118.65 362.93 118.49 366.00 C 118.62 368.99 115.05 371.40 112.40 369.78 C 109.06 368.53 108.99 363.37 112.34 362.08 Z" opacity="1"/><path fill="#fefefe" d="M 123.55 376.58 C 127.12 375.03 131.24 378.94 129.67 382.55 C 128.41 386.27 122.56 386.14 121.12 382.64 C 119.80 380.40 121.35 377.53 123.55 376.58 Z" opacity="1"/><path fill="#fefefe" d="M 138.37 389.35 C 141.78 388.11 145.39 391.39 144.47 394.92 C 143.87 399.55 136.88 399.47 135.25 395.57 C 133.75 393.12 135.78 389.91 138.37 389.35 Z" opacity="1"/></g><g id="#f8ceb2ff"><path fill="#f8ceb2" d="M 228.41 202.64 C 240.43 200.54 252.89 201.27 264.72 204.20 C 277.73 207.16 290.57 210.80 303.33 214.67 C 323.39 220.13 344.02 223.09 364.68 225.19 C 374.54 225.95 384.85 225.72 394.03 229.90 C 403.58 234.94 409.88 244.98 411.52 255.52 C 413.39 267.90 411.52 280.62 407.43 292.38 C 401.87 307.26 392.40 321.16 378.89 329.86 C 368.09 336.69 355.70 340.82 343.07 342.51 C 329.50 344.74 315.65 344.61 301.96 343.80 C 288.00 342.21 274.03 340.30 260.42 336.71 C 240.31 332.01 219.99 324.76 204.46 310.66 C 190.93 298.94 182.19 281.83 180.83 263.97 C 179.91 251.96 183.57 239.98 189.63 229.70 C 198.07 215.80 212.55 205.96 228.41 202.64 M 246.26 221.06 C 239.28 222.22 232.75 225.78 228.05 231.08 C 221.94 238.11 217.45 246.65 215.53 255.79 C 213.36 266.83 214.32 279.26 221.59 288.32 C 230.60 299.02 247.54 301.65 259.55 294.60 C 265.02 291.97 269.00 287.20 272.29 282.24 C 280.29 270.84 283.07 255.63 278.85 242.28 C 274.16 229.30 260.49 218.63 246.26 221.06 M 376.16 240.33 C 368.92 240.32 362.39 244.46 357.44 249.43 C 347.53 260.52 342.90 275.43 342.02 290.06 C 341.46 300.16 347.81 310.34 357.43 313.70 C 363.97 314.99 371.46 315.24 377.20 311.28 C 387.58 304.89 392.94 292.97 395.69 281.53 C 397.87 272.24 398.25 262.26 394.93 253.19 C 392.06 245.64 384.50 239.64 376.16 240.33 M 308.75 297.03 C 308.52 300.85 308.88 305.40 312.95 307.11 C 317.54 310.47 324.51 305.70 323.05 300.22 C 320.83 294.88 313.16 293.54 308.75 297.03 M 287.26 306.29 C 287.10 308.10 286.70 309.93 287.00 311.74 C 288.76 315.64 292.61 318.27 296.57 319.59 C 301.37 321.23 306.31 319.27 310.96 318.05 C 314.42 320.86 318.18 324.24 322.94 324.13 C 327.03 323.95 330.00 320.83 332.53 317.97 C 331.73 317.28 330.94 316.59 330.14 315.91 C 327.34 317.41 324.39 319.38 321.05 318.86 C 316.59 318.72 314.22 312.38 309.49 314.26 C 304.92 315.39 299.80 317.02 295.37 314.49 C 292.16 313.13 292.19 309.20 291.40 306.33 C 290.01 306.31 288.63 306.30 287.26 306.29 Z" opacity="1"/><path fill="#f8ceb2" d="M 424.33 368.68 C 421.90 366.49 419.68 364.07 417.85 361.36 C 424.28 364.12 429.94 368.32 435.39 372.63 C 445.94 381.23 455.59 391.16 462.60 402.90 C 460.75 403.49 458.92 404.10 457.06 404.64 C 454.28 403.32 451.93 401.28 450.39 398.61 C 443.23 387.40 434.03 377.71 424.33 368.68 Z" opacity="1"/><path fill="#f8ceb2" d="M 467.76 408.65 C 470.53 408.23 473.79 406.75 476.39 408.35 C 479.33 413.38 480.06 419.42 480.92 425.11 C 481.61 429.39 479.13 433.48 475.42 435.48 C 474.13 434.73 472.86 434.00 471.58 433.27 C 470.19 427.25 470.72 420.60 467.76 415.07 C 459.00 413.40 449.84 416.42 441.28 413.32 C 441.79 413.20 442.82 412.96 443.34 412.84 C 451.39 410.89 459.77 410.92 467.76 408.65 Z" opacity="1"/><path fill="#f8ceb2" d="M 471.30 443.43 C 472.54 443.20 473.79 442.96 475.04 442.73 C 475.13 445.06 475.25 447.39 475.33 449.73 C 475.11 461.86 474.65 474.41 469.84 485.74 C 467.85 490.64 464.22 494.60 460.38 498.14 C 463.15 490.58 466.58 483.16 467.39 475.05 C 468.57 464.89 469.44 454.38 467.07 444.32 C 468.49 444.05 469.89 443.72 471.30 443.43 Z" opacity="1"/><path fill="#f8ceb2" d="M 539.35 469.25 C 540.19 468.18 541.10 467.18 542.02 466.18 C 554.25 469.24 565.73 475.73 574.39 484.91 C 564.91 486.06 555.30 488.56 547.65 494.54 C 544.57 494.04 541.65 492.84 539.47 490.56 C 544.84 488.87 551.16 488.47 555.27 484.20 C 557.75 481.54 556.05 477.33 553.29 475.62 C 548.97 472.84 543.87 471.64 539.35 469.25 Z" opacity="1"/><path fill="#f8ceb2" d="M 478.63 478.76 C 483.66 478.27 488.81 478.28 493.62 479.99 C 499.61 483.43 505.36 487.72 508.97 493.75 C 508.13 495.01 507.29 496.28 506.47 497.56 L 506.06 498.14 C 502.96 494.46 499.47 490.97 495.02 488.97 C 490.97 487.18 487.58 484.27 483.72 482.18 C 481.52 481.92 479.53 483.60 477.50 484.30 C 477.58 483.92 477.75 483.16 477.83 482.78 C 478.14 481.44 478.40 480.10 478.63 478.76 Z" opacity="1"/><path fill="#f8ceb2" d="M 579.17 507.57 C 579.14 506.12 579.87 505.69 581.36 506.26 C 580.97 507.62 580.24 508.05 579.17 507.57 Z" opacity="1"/></g><g id="#8b3b34ff"><path fill="#8b3b34" d="M 253.36 239.35 C 259.90 237.22 267.71 239.71 271.52 245.52 C 278.65 255.73 276.28 269.78 269.63 279.61 C 265.56 285.45 259.43 290.71 252.01 291.05 C 246.50 291.39 241.18 288.35 238.28 283.73 C 233.76 277.27 233.83 268.81 235.26 261.37 C 237.39 251.83 243.65 242.35 253.36 239.35 M 263.33 249.45 C 259.73 249.97 256.85 253.36 257.22 257.05 C 256.78 261.11 261.85 264.16 265.36 262.29 C 270.86 259.84 270.15 249.13 263.33 249.45 Z" opacity="1"/><path fill="#8b3b34" d="M 370.31 256.39 C 377.67 254.01 385.55 259.34 387.42 266.53 C 390.63 280.34 387.00 297.50 374.28 305.40 C 369.88 307.88 364.15 308.00 359.88 305.18 C 354.58 302.10 352.47 295.78 351.88 290.01 C 351.11 280.93 353.88 271.64 359.27 264.32 C 361.97 260.59 365.85 257.63 370.31 256.39 M 374.47 266.38 C 369.36 268.19 368.56 276.11 373.48 278.59 C 378.02 280.31 382.09 275.35 381.73 271.09 C 381.66 267.64 377.69 264.88 374.47 266.38 Z" opacity="1"/><path fill="#8b3b34" d="M 308.75 297.03 C 313.16 293.54 320.83 294.88 323.05 300.22 C 324.51 305.70 317.54 310.47 312.95 307.11 C 308.88 305.40 308.52 300.85 308.75 297.03 Z" opacity="1"/><path fill="#8b3b34" d="M 287.26 306.29 C 288.63 306.30 290.01 306.31 291.40 306.33 C 292.19 309.20 292.16 313.13 295.37 314.49 C 299.80 317.02 304.92 315.39 309.49 314.26 C 314.22 312.38 316.59 318.72 321.05 318.86 C 324.39 319.38 327.34 317.41 330.14 315.91 C 330.94 316.59 331.73 317.28 332.53 317.97 C 330.00 320.83 327.03 323.95 322.94 324.13 C 318.18 324.24 314.42 320.86 310.96 318.05 C 306.31 319.27 301.37 321.23 296.57 319.59 C 292.61 318.27 288.76 315.64 287.00 311.74 C 286.70 309.93 287.10 308.10 287.26 306.29 Z" opacity="1"/></g><g id="#b8e6f4ff"><path fill="#b8e6f4" d="M 849.00 257.02 C 852.83 256.66 856.93 255.77 860.58 257.54 C 864.73 259.56 867.81 263.15 871.13 266.26 C 874.07 270.44 873.43 276.08 873.25 280.94 C 871.81 298.59 854.08 313.07 836.43 310.16 L 835.75 309.75 C 833.48 307.84 831.28 305.85 829.15 303.79 C 823.25 298.23 819.68 290.12 820.13 281.97 C 820.10 271.54 827.48 261.73 837.33 258.49 C 841.11 257.35 845.11 257.50 849.00 257.02 Z" opacity="1"/><path fill="#b8e6f4" d="M 476.49 526.61 C 476.93 526.06 477.81 524.94 478.25 524.39 C 480.59 524.86 482.96 525.18 485.33 525.53 C 483.59 526.47 481.84 527.37 480.09 528.29 C 478.89 527.73 477.69 527.17 476.49 526.61 Z" opacity="1"/></g><g id="#7a7a7aff"><path fill="#7a7a7a" d="M 875.89 318.95 C 877.26 317.64 878.60 316.30 879.93 314.94 C 883.99 318.62 888.42 322.02 891.40 326.71 C 889.89 327.65 888.39 328.59 886.90 329.53 C 882.90 326.36 879.31 322.73 875.89 318.95 Z" opacity="1"/><path fill="#7a7a7a" d="M 233.49 413.22 C 233.98 413.23 234.97 413.27 235.46 413.28 C 237.57 432.15 235.93 451.14 236.93 470.05 C 234.89 451.26 236.95 432.26 234.61 413.51 C 234.08 415.77 233.59 418.05 233.25 420.36 C 233.37 417.98 233.43 415.60 233.49 413.22 Z" opacity="1"/><path fill="#7a7a7a" d="M 196.41 422.59 C 196.60 426.15 196.59 429.72 196.24 433.28 C 196.11 430.47 195.78 427.67 195.65 424.87 C 195.84 424.30 196.22 423.16 196.41 422.59 Z" opacity="1"/><path fill="#7a7a7a" d="M 480.06 460.28 C 487.33 459.06 494.79 458.88 502.09 460.07 C 505.12 461.24 507.79 463.22 510.16 465.42 C 513.68 471.12 519.17 476.04 526.13 476.54 C 529.47 476.33 532.41 474.49 535.44 473.25 C 531.02 481.78 519.51 486.78 510.57 482.44 C 507.60 481.09 510.02 477.81 510.47 475.64 C 511.88 472.54 510.49 469.24 509.78 466.16 C 507.45 469.94 505.52 474.15 502.03 477.03 C 499.62 478.89 496.55 479.51 493.62 479.99 C 488.81 478.28 483.66 478.27 478.63 478.76 C 479.38 472.62 479.49 466.43 480.06 460.28 Z" opacity="1"/><path fill="#7a7a7a" d="M 574.39 484.91 C 576.90 487.54 579.19 490.48 580.44 493.93 C 579.75 495.90 579.47 498.50 577.31 499.46 C 573.12 501.52 568.49 502.59 563.88 503.18 C 557.07 504.15 552.37 498.13 547.10 494.91 L 547.65 494.54 C 555.30 488.56 564.91 486.06 574.39 484.91 Z" opacity="1"/><path fill="#7a7a7a" d="M 508.97 493.75 L 509.37 494.36 C 512.37 499.23 516.23 503.95 521.70 506.12 C 531.62 510.15 543.08 508.68 552.59 504.21 C 555.81 506.97 558.40 511.16 557.60 515.55 C 555.57 520.42 550.44 524.30 545.06 524.21 C 541.26 523.70 541.12 519.01 540.00 516.17 C 534.93 517.35 529.68 518.92 524.45 517.78 C 520.20 516.90 516.04 515.65 511.95 514.21 C 509.39 513.20 506.56 512.14 504.95 509.76 C 504.31 505.66 505.36 501.50 506.47 497.56 C 507.29 496.28 508.13 495.01 508.97 493.75 Z" opacity="1"/><path fill="#7a7a7a" d="M 426.62 494.93 L 427.09 495.58 C 431.88 503.60 441.37 507.33 450.42 507.03 C 450.47 506.50 450.56 505.42 450.60 504.88 C 454.12 504.87 457.89 503.55 461.28 504.72 C 463.94 506.38 466.45 508.40 469.50 509.31 C 474.28 510.74 479.32 510.66 484.25 511.08 C 488.05 512.87 486.16 519.33 482.86 521.19 C 478.08 521.79 473.51 519.72 469.24 517.85 C 465.11 515.91 460.73 514.63 456.32 513.53 C 455.36 511.71 454.41 509.89 453.46 508.07 C 448.74 510.91 443.00 513.83 437.44 511.69 C 433.55 509.17 430.60 505.46 426.80 502.80 C 426.76 500.17 426.72 497.55 426.62 494.93 Z" opacity="1"/><path fill="#7a7a7a" d="M 588.58 503.39 C 595.56 500.70 603.62 503.78 608.44 509.15 C 607.21 511.00 606.27 513.61 603.73 513.91 C 596.05 515.48 587.23 514.38 581.52 508.56 C 583.85 506.80 586.15 505.01 588.58 503.39 Z" opacity="1"/><path fill="#7a7a7a" d="M 373.96 517.80 C 379.91 514.57 387.78 516.13 393.17 519.90 C 394.84 520.97 393.63 522.98 393.60 524.52 C 389.48 525.02 385.31 525.72 381.16 525.17 C 377.72 524.75 374.67 523.00 371.67 521.41 C 372.42 520.19 373.16 518.98 373.96 517.80 Z" opacity="1"/><path fill="#7a7a7a" d="M 486.59 524.83 C 489.47 523.21 492.34 521.52 495.31 520.05 C 496.76 521.73 498.13 523.59 500.09 524.74 C 507.37 528.82 516.04 529.24 524.15 528.10 C 519.52 531.48 513.53 534.05 507.75 532.45 C 501.58 530.85 495.55 528.63 489.95 525.58 C 490.04 527.00 490.12 528.43 490.22 529.86 C 489.60 528.35 489.08 526.82 488.55 525.29 C 488.06 525.18 487.08 524.95 486.59 524.83 Z" opacity="1"/><path fill="#7a7a7a" d="M 558.50 523.63 C 563.12 521.23 568.82 519.91 573.73 522.31 C 576.02 523.24 577.39 525.39 578.80 527.31 C 573.22 532.82 564.81 530.00 558.07 528.84 C 558.21 527.10 558.35 525.36 558.50 523.63 Z" opacity="1"/><path fill="#7a7a7a" d="M 474.36 522.89 C 475.62 523.46 476.92 523.95 478.25 524.39 C 477.81 524.94 476.93 526.06 476.49 526.61 C 468.81 528.84 461.52 534.08 453.15 532.10 C 448.61 531.03 441.16 530.44 440.85 524.46 C 446.47 526.89 452.24 530.12 458.57 529.44 C 464.31 528.66 469.31 525.49 474.36 522.89 Z" opacity="1"/></g><g id="#9a9a9aff"><path fill="#9a9a9a" d="M 408.26 362.71 C 409.51 361.68 410.66 360.47 412.15 359.79 C 414.13 359.92 416.02 360.61 417.85 361.36 C 419.68 364.07 421.90 366.49 424.33 368.68 C 434.03 377.71 443.23 387.40 450.39 398.61 C 451.93 401.28 454.28 403.32 457.06 404.64 C 454.63 405.20 452.17 405.62 449.71 406.04 C 445.32 406.83 440.86 407.10 436.41 407.16 C 436.06 406.29 435.71 405.43 435.37 404.57 C 433.19 397.92 429.77 391.78 425.96 385.94 C 420.65 377.76 413.79 370.74 408.26 362.71 Z" opacity="1"/><path fill="#9a9a9a" d="M 434.08 412.99 C 436.47 413.13 438.87 413.25 441.28 413.32 C 449.84 416.42 459.00 413.40 467.76 415.07 C 470.72 420.60 470.19 427.25 471.58 433.27 C 472.86 434.00 474.13 434.73 475.42 435.48 C 473.27 436.51 471.05 437.39 468.78 438.12 C 458.93 439.90 448.86 440.54 438.87 440.14 C 437.12 431.12 435.84 422.01 434.08 412.99 Z" opacity="1"/><path fill="#9a9a9a" d="M 508.81 430.32 C 512.44 425.62 518.15 423.11 523.94 422.38 C 528.35 422.55 530.68 427.09 530.59 431.08 C 527.62 432.70 524.90 435.26 521.42 435.61 C 516.76 435.28 512.80 432.49 508.81 430.32 Z" opacity="1"/><path fill="#9a9a9a" d="M 548.88 435.09 C 551.70 431.93 555.97 428.16 560.45 430.55 C 564.45 431.40 564.98 435.76 565.02 439.14 L 564.13 439.32 C 560.92 439.83 557.57 440.82 554.35 439.92 C 552.08 438.91 550.61 436.77 548.88 435.09 Z" opacity="1"/><path fill="#9a9a9a" d="M 454.10 446.01 C 458.43 445.46 462.77 445.04 467.07 444.32 C 469.44 454.38 468.57 464.89 467.39 475.05 C 466.58 483.16 463.15 490.58 460.38 498.14 C 459.05 499.48 457.67 500.78 456.30 502.09 C 455.24 501.02 454.19 499.97 453.14 498.92 C 453.81 495.73 454.51 492.55 455.05 489.34 C 456.38 481.96 455.56 474.44 455.81 466.99 C 456.02 459.95 455.22 452.94 454.10 446.01 Z" opacity="1"/><path fill="#9a9a9a" d="M 510.16 465.42 C 515.98 462.01 522.39 459.35 529.12 458.50 C 532.00 458.08 534.59 459.67 536.84 461.27 C 536.53 461.09 535.92 460.74 535.62 460.56 C 536.71 464.73 537.64 469.24 535.44 473.25 C 532.41 474.49 529.47 476.33 526.13 476.54 C 519.17 476.04 513.68 471.12 510.16 465.42 Z" opacity="1"/><path fill="#9a9a9a" d="M 539.35 469.25 C 543.87 471.64 548.97 472.84 553.29 475.62 C 556.05 477.33 557.75 481.54 555.27 484.20 C 551.16 488.47 544.84 488.87 539.47 490.56 C 541.65 492.84 544.57 494.04 547.65 494.54 L 547.10 494.91 C 546.60 495.25 545.59 495.92 545.09 496.26 C 547.37 499.10 549.89 501.75 552.59 504.21 C 543.08 508.68 531.62 510.15 521.70 506.12 C 516.23 503.95 512.37 499.23 509.37 494.36 C 517.07 488.25 527.11 486.84 536.65 486.80 C 534.71 484.99 532.78 483.17 530.87 481.34 C 533.65 479.41 536.79 477.79 538.96 475.11 C 539.53 473.22 539.22 471.19 539.35 469.25 Z" opacity="1"/><path fill="#9a9a9a" d="M 477.50 484.30 C 479.53 483.60 481.52 481.92 483.72 482.18 C 487.58 484.27 490.97 487.18 495.02 488.97 C 499.47 490.97 502.96 494.46 506.06 498.14 C 503.84 500.53 501.47 505.19 497.57 503.66 C 489.38 501.01 481.48 497.23 474.56 492.09 C 475.57 488.96 476.74 485.88 477.83 482.78 C 477.75 483.16 477.58 483.92 477.50 484.30 Z" opacity="1"/><path fill="#9a9a9a" d="M 140.89 490.33 C 142.90 489.68 145.04 489.66 147.07 490.24 C 145.21 491.63 142.79 491.66 140.89 490.33 Z" opacity="1"/><path fill="#9a9a9a" d="M 427.09 495.58 C 429.10 494.30 431.13 491.80 433.79 492.91 C 440.43 495.11 445.82 499.94 450.60 504.88 C 450.56 505.42 450.47 506.50 450.42 507.03 C 441.37 507.33 431.88 503.60 427.09 495.58 Z" opacity="1"/><path fill="#9a9a9a" d="M 461.28 504.72 C 465.32 502.30 470.02 496.52 475.08 499.79 C 478.65 503.06 481.85 506.85 484.25 511.08 C 479.32 510.66 474.28 510.74 469.50 509.31 C 466.45 508.40 463.94 506.38 461.28 504.72 Z" opacity="1"/><path fill="#9a9a9a" d="M 409.17 502.16 C 417.00 496.83 427.86 503.35 429.48 511.99 C 423.28 512.85 416.45 512.84 411.31 508.76 C 409.19 507.46 405.80 504.05 409.17 502.16 Z" opacity="1"/><path fill="#9a9a9a" d="M 458.08 517.74 C 464.09 516.57 469.48 519.88 474.36 522.89 C 469.31 525.49 464.31 528.66 458.57 529.44 C 452.24 530.12 446.47 526.89 440.85 524.46 C 441.37 523.51 441.91 522.57 442.47 521.65 C 447.62 520.16 452.82 518.78 458.08 517.74 Z" opacity="1"/><path fill="#9a9a9a" d="M 495.31 520.05 C 499.51 517.95 504.16 516.20 508.94 516.78 C 514.06 517.60 519.01 519.72 523.22 522.73 C 524.87 523.83 526.59 526.91 524.15 528.10 C 516.04 529.24 507.37 528.82 500.09 524.74 C 498.13 523.59 496.76 521.73 495.31 520.05 Z" opacity="1"/></g><g id="#a9763aff"><path fill="#a9763a" d="M 274.85 390.20 C 286.73 390.51 298.36 393.24 310.04 395.18 C 313.71 395.97 317.42 396.54 321.12 397.22 C 325.53 398.15 329.96 398.98 334.41 399.67 C 341.28 400.63 347.52 404.00 354.40 404.86 C 360.66 405.72 366.77 407.44 373.04 408.24 C 376.69 408.85 380.31 407.85 383.60 406.31 C 397.44 408.17 411.33 409.62 425.20 411.27 C 425.39 411.90 425.77 413.16 425.96 413.79 C 428.01 421.01 429.51 428.38 431.04 435.73 C 418.50 433.51 405.79 432.61 393.21 430.73 C 389.51 430.22 385.78 429.98 382.06 429.88 C 381.65 427.54 381.65 424.91 379.98 423.05 C 376.15 418.46 369.70 417.06 363.99 417.70 C 357.15 418.21 352.94 425.28 345.91 425.20 C 338.17 424.05 330.32 421.96 322.48 423.07 C 324.48 420.10 326.43 416.73 326.29 413.03 C 325.65 407.18 321.63 401.40 315.65 400.10 C 302.12 396.75 286.56 399.17 274.85 390.20 Z" opacity="1"/></g></svg>